{
.appVersion = "3337";
.formatVersion = 3;
DisplayStrings = (
"சூரியனன் இன்று ெவளிச்சம் தருகிறது

ஃஅஆஇஈஉஊஎஏஐஒஓஔ
கசடதபற
ஙஞணநனம
யரலவழள

முரண்",
"்"
);
axes = (
{
name = Weight;
tag = wght;
},
{
name = Width;
tag = wdth;
}
);
classes = (
{
code = "aavowelsigntamil ivowelsigntamil iivowelsigntamil uvowelsigntamil uuvowelsigntamil viramatamil aulengthmarktamil ivowelsign3tamil ivowelsign2tamil ivowelsign1tamil uvowelsignalttamil uuvowelsignalttamil";
name = markAttachmentSet1;
},
{
code = "aatamil aitamil atamil autamil catamil cauuvowelsigntamil cauvowelsigntamil eetamil etamil haiivowelsigntamil iitamil katamil kauuvowelsigntamil kauvowelsigntamil laiivowelsigntamil laivowelsigntamil lauuvowelsigntamil lauvowelsigntamil llaiivowelsigntamil llauuvowelsigntamil llauvowelsigntamil lllatamil lllauuvowelsigntamil lllauvowelsigntamil matamil mauuvowelsigntamil mauvowelsigntamil natamil nauuvowelsigntamil nauvowelsigntamil ngaiivowelsigntamil ngauuvowelsigntamil ngauvowelsigntamil nnaiivowelsigntamil nnauuvowelsigntamil nnauvowelsigntamil nnnaiivowelsigntamil nnnauuvowelsigntamil nnnauvowelsigntamil nyaiivowelsigntamil nyauuvowelsigntamil nyauvowelsigntamil ootamil otamil patamil pauuvowelsigntamil pauvowelsigntamil ratamil rauuvowelsigntamil rauvowelsigntamil rratamil rrauuvowelsigntamil rrauvowelsigntamil saiivowelsigntamil saivowelsigntamil shritamil ssaiivowelsigntamil tatamil tauuvowelsigntamil tauvowelsigntamil tchaiivowelsigntamil ttaiivowelsigntamil ttaivowelsigntamil ttatamil utamil uutamil vaiivowelsigntamil vauuvowelsigntamil vauvowelsigntamil yatamil yauuvowelsigntamil yauvowelsigntamil";
name = class1;
},
{
code = "hatamil jatamil latamil llatamil ngatamil nnatamil nnnatamil nyatamil satamil shatamil ssatamil tchatamil vatamil";
name = class2;
},
{
code = "aavowelsigntamil aulengthmarktamil uuvowelsignalttamil uuvowelsigntamil uvowelsignalttamil uvowelsigntamil";
name = class4;
}
);
customParameters = (
{
name = glyphOrder;
value = (
.notdef,
NULL,
CR,
space,

glyphs = (
{
glyphname = .notdef;
layers = (
{
background = {
shapes = (
{
closed = 1;
nodes = (
(505,0,l),
(505,714,l),
(94,714,l),
(94,0,l)
);
},
{
closed = 1;
nodes = (
(145,663,l),
(454,663,l),
(454,51,l),
(145,51,l)
);
}
);
};
layerId = "B104C26B-E498-4044-8731-03CD50407EE8";
shapes = (
{
closed = 1;
nodes = (
(505,0,l),
(505,714,l),
(94,714,l),
(94,0,l)
);
},
{
closed = 1;
nodes = (
(145,663,l),
(454,663,l),
(454,51,l),
(145,51,l)
);
}
);
width = 600;
}
);
},
{
glyphname = anusvaratamil;
layers = (
{
anchors = (
{
name = _Anchor8;
pos = (200,-29);
}
);
background = {
shapes = (
{
closed = 1;
nodes = (
(41,639,o),
(95,584,o),
(201,584,cs),
(302,584,o),
(358,639,o),
(358,719,cs),
(358,792,o),
(306,851,o),
(201,851,cs),
(95,851,o),
(41,792,o),
(41,719,cs)
);
},
{
closed = 1;
nodes = (
(154,745,o),
(170,763,o),
(201,763,cs),
(229,763,o),
(245,745,o),
(245,719,cs),
(245,691,o),
(229,672,o),
(201,672,cs),
(170,672,o),
(154,691,o),
(154,719,cs)
);
}
);
};
layerId = "B104C26B-E498-4044-8731-03CD50407EE8";
shapes = (
{
closed = 1;
nodes = (
(41,639,o),
(95,584,o),
(201,584,cs),
(302,584,o),
(358,639,o),
(358,719,c),
(358,792,o),
(306,851,o),
(201,851,cs),
(95,851,o),
(41,792,o),
(41,719,cs)
);
},
{
closed = 1;
nodes = (
(154,745,o),
(170,763,o),
(201,763,cs),
(229,763,o),
(245,745,o),
(245,719,c),
(245,691,o),
(229,672,o),
(201,672,cs),
(170,672,o),
(154,691,o),
(154,719,cs)
);
}
);
width = 399;
}
);
unicode = 2946;
},
{
glyphname = visargatamil;
lastChange = "2025-02-12 17:28:57 +0000";
layers = (
{
background = {
shapes = (
{
closed = 1;
nodes = (
(249,-12,o),
(338,61,o),
(338,186,cs),
(338,311,o),
(249,384,o),
(108,384,cs),
(-33,384,o),
(-122,311,o),
(-122,186,cs),
(-122,61,o),
(-33,-12,o),
(108,-12,cs)
);
},
{
closed = 1;
nodes = (
(72,113,o),
(47,137,o),
(47,186,cs),
(47,235,o),
(71,259,o),
(108,259,cs),
(144,259,o),
(169,235,o),
(169,186,cs),
(169,137,o),
(144,113,o),
(108,113,cs)
);
},
{
closed = 1;
nodes = (
(757,-12,o),
(846,61,o),
(846,186,cs),
(846,311,o),
(757,384,o),
(616,384,cs),
(475,384,o),
(386,311,o),
(386,186,cs),
(386,61,o),
(475,-12,o),
(616,-12,cs)
);
},
{
closed = 1;
nodes = (
(580,113,o),
(555,137,o),
(555,186,cs),
(555,235,o),
(579,259,o),
(616,259,cs),
(652,259,o),
(677,235,o),
(677,186,cs),
(677,137,o),
(652,113,o),
(616,113,cs)
);
},
{
closed = 1;
nodes = (
(503,455,o),
(592,528,o),
(592,653,cs),
(592,778,o),
(503,851,o),
(362,851,cs),
(221,851,o),
(132,778,o),
(132,653,cs),
(132,528,o),
(221,455,o),
(362,455,cs)
);
},
{
closed = 1;
nodes = (
(326,580,o),
(301,604,o),
(301,653,cs),
(301,702,o),
(325,726,o),
(362,726,cs),
(398,726,o),
(423,702,o),
(423,653,cs),
(423,604,o),
(398,580,o),
(362,580,cs)
);
}
);
};
layerId = "B104C26B-E498-4044-8731-03CD50407EE8";
shapes = (
{
closed = 1;
nodes = (
(30,105,l),
(50,105,l)
);
},
{
closed = 1;
nodes = (
(673,105,l),
(693,105,l)
);
},
{
closed = 1;
nodes = (
(30,48,ls),
(30,11,o),
(69,-10,o),
(140,-10,cs),
(145,-10,l),
(145,-5,ls),
(145,66,o),
(124,105,o),
(87,105,cs),
(87,105,ls),
(50,105,o),
(30,85,o),
(30,48,cs)
);
},
{
closed = 1;
nodes = (
(30,-40,l),
(48,-40,l),
(48,-10,l),
(30,-10,l)
);
},
{
closed = 1;
nodes = (
(127,105,l),
(145,105,l),
(145,135,l),
(127,135,l)
);
},
{
closed = 1;
nodes = (
(30,-10,l),
(135,-10,l),
(135,48,l),
(30,48,l)
);
},
{
closed = 1;
nodes = (
(87,105,l),
(87,0,l),
(145,0,l),
(145,105,l)
);
},
{
closed = 1;
nodes = (
(578,105,l),
(598,105,l)
);
},
{
closed = 1;
nodes = (
(578,48,ls),
(578,11,o),
(617,-10,o),
(688,-10,cs),
(693,-10,l),
(693,-5,ls),
(693,66,o),
(672,105,o),
(635,105,cs),
(635,105,ls),
(598,105,o),
(578,85,o),
(578,48,cs)
);
},
{
closed = 1;
nodes = (
(578,-40,l),
(596,-40,l),
(596,-10,l),
(578,-10,l)
);
},
{
closed = 1;
nodes = (
(675,105,l),
(693,105,l),
(693,135,l),
(675,135,l)
);
},
{
closed = 1;
nodes = (
(578,-10,l),
(683,-10,l),
(683,48,l),
(578,48,l)
);
},
{
closed = 1;
nodes = (
(635,105,l),
(635,0,l),
(693,0,l),
(693,105,l)
);
},
{
closed = 1;
nodes = (
(306,579,l),
(326,579,l)
);
},
{
closed = 1;
nodes = (
(306,522,ls),
(306,485,o),
(345,464,o),
(416,464,cs),
(421,464,l),
(421,469,ls),
(421,540,o),
(400,579,o),
(363,579,cs),
(363,579,ls),
(326,579,o),
(306,559,o),
(306,522,cs)
);
},
{
closed = 1;
nodes = (
(306,434,l),
(324,434,l),
(324,464,l),
(306,464,l)
);
},
{
closed = 1;
nodes = (
(403,579,l),
(421,579,l),
(421,609,l),
(403,609,l)
);
},
{
closed = 1;
nodes = (
(306,464,l),
(411,464,l),
(411,522,l),
(306,522,l)
);
},
{
closed = 1;
nodes = (
(363,579,l),
(363,474,l),
(421,474,l),
(421,579,l)
);
}
);
width = 723;
}
);
unicode = 2947;
},
{
glyphname = atamil;
lastChange = "2025-02-12 16:38:21 +0000";
layers = (
{
anchors = (
{
name = Anchor10;
pos = (638,-29);
},
{
name = Anchor8;
pos = (638,-29);
}
);
background = {
shapes = (
{
closed = 1;
nodes = (
(397,-152,ls),
(674,-152,o),
(853,-56,o),
(927,125,c),
(927,168,l),
(930,190,o),
(933,214,o),
(933,239,cs),
(933,421,o),
(812,581,o),
(550,581,cs),
(399,581,o),
(287,522,o),
(287,395,cs),
(287,275,o),
(386,222,o),
(494,222,cs),
(667,222,o),
(697,311,o),
(697,382,cs),
(697,465,o),
(659,524,o),
(613,568,c),
(498,529,l),
(535,491,o),
(564,454,o),
(564,407,cs),
(564,360,o),
(539,346,o),
(509,346,cs),
(475,346,o),
(456,366,o),
(456,399,cs),
(456,448,o),
(501,461,o),
(556,461,cs),
(574,461,o),
(592,460,o),
(606,458,cs),
(715,440,o),
(753,344,o),
(753,234,cs),
(753,219,o),
(751,197,o),
(748,177,c),
(749,143,l),
(711,48,o),
(611,-22,o),
(397,-22,cs),
(389,-22,ls),
(261,-22,o),
(206,4,o),
(206,44,cs),
(206,54,o),
(209,62,o),
(218,67,cs),
(227,72,o),
(234,72,o),
(252,72,cs),
(1037,72,l),
(1041,200,l),
(249,200,ls),
(168,200,o),
(119,197,o),
(76,171,cs),
(44,151,o),
(22,119,o),
(22,65,cs),
(22,-63,o),
(146,-152,o),
(377,-152,cs)
);
},
{
closed = 1;
nodes = (
(1209,-154,l),
(1209,569,l),
(1019,569,l),
(1019,-154,l)
);
}
);
};
layerId = "B104C26B-E498-4044-8731-03CD50407EE8";
shapes = (
{
closed = 1;
nodes = (
(477,559,ls),
(477,630,o),
(447,669,o),
(392,669,cs),
(392,669,ls),
(337,669,o),
(306,630,o),
(306,559,cs),
(306,554,l),
(477,554,l)
);
},
{
closed = 1;
nodes = (
(477,557,l),
(457,557,l),
(457,-10,l),
(477,-10,l)
);
},
{
closed = 1;
nodes = (
(326,554,l),
(306,554,l),
(306,500,l),
(326,500,l)
);
},
{
closed = 1;
nodes = (
(402,505,l),
(306,505,l),
(306,390,l),
(402,390,l)
);
},
{
closed = 1;
nodes = (
(402,537,l),
(382,537,l),
(382,499,l),
(402,499,l)
);
},
{
closed = 1;
nodes = (
(594,269,l),
(30,269,l),
(30,154,l),
(594,154,l)
);
},
{
closed = 1;
nodes = (
(470,105,l),
(30,105,l),
(30,100,ls),
(30,29,o),
(69,-10,o),
(140,-10,cs),
(360,-10,ls),
(431,-10,o),
(470,29,o),
(470,100,cs)
);
},
{
closed = 1;
nodes = (
(50,154,l),
(30,154,l),
(30,105,l),
(50,105,l)
);
},
{
closed = 0;
nodes = (
(501,105,l)
);
},
{
closed = 1;
nodes = (
(306,554,l),
(391,554,l),
(391,669,l),
(306,669,l)
);
},
{
closed = 1;
nodes = (
(358,-10,l),
(477,-10,l),
(477,105,l),
(358,105,l)
);
},
{
closed = 1;
nodes = (
(574,-10,l),
(594,-10,l),
(594,431,l),
(574,431,l)
);
}
);
width = 624;
}
);
unicode = 2949;
},
{
glyphname = aatamil;
lastChange = "2025-02-12 16:39:14 +0000";
layers = (
{
anchors = (
{
name = Anchor10;
pos = (766,-29);
},
{
name = Anchor8;
pos = (766,-29);
}
);
background = {
shapes = (
{
closed = 1;
nodes = (
(397,-152,ls),
(674,-152,o),
(851,-46,o),
(927,129,c),
(927,168,l),
(930,190,o),
(933,214,o),
(933,239,cs),
(933,421,o),
(812,581,o),
(550,581,cs),
(399,581,o),
(287,522,o),
(287,395,cs),
(287,275,o),
(386,222,o),
(494,222,cs),
(667,222,o),
(697,311,o),
(697,382,cs),
(697,465,o),
(659,524,o),
(613,568,c),
(498,529,l),
(535,491,o),
(564,454,o),
(564,407,cs),
(564,360,o),
(539,346,o),
(509,346,cs),
(475,346,o),
(456,366,o),
(456,399,cs),
(456,448,o),
(501,461,o),
(556,461,cs),
(574,461,o),
(592,460,o),
(606,458,cs),
(715,440,o),
(753,344,o),
(753,234,cs),
(753,219,o),
(751,197,o),
(748,177,c),
(749,143,l),
(711,48,o),
(611,-22,o),
(397,-22,cs),
(389,-22,ls),
(261,-22,o),
(206,4,o),
(206,44,cs),
(206,54,o),
(209,62,o),
(218,67,cs),
(227,72,o),
(234,72,o),
(252,72,cs),
(1037,72,l),
(1041,200,l),
(249,200,ls),
(168,200,o),
(119,197,o),
(76,171,cs),
(44,151,o),
(22,119,o),
(22,65,cs),
(22,-63,o),
(146,-152,o),
(377,-152,cs)
);
},
{
closed = 1;
nodes = (
(1086,-321,ls),
(1377,-321,o),
(1531,-206,o),
(1531,-48,cs),
(1531,72,o),
(1437,130,o),
(1319,130,cs),
(1248,130,o),
(1203,109,o),
(1166,88,c),
(1175,-35,l),
(1206,-12,o),
(1236,4,o),
(1279,4,cs),
(1325,4,o),
(1350,-18,o),
(1350,-58,cs),
(1350,-147,o),
(1234,-194,o),
(1085,-194,cs),
(1080,-194,ls),
(936,-194,o),
(901,-177,o),
(901,-155,cs),
(901,-144,o),
(913,-137,o),
(930,-137,cs),
(952,-137,o),
(972,-142,o),
(987,-146,c),
(1007,-33,l),
(978,-24,o),
(947,-19,o),
(902,-19,cs),
(802,-19,o),
(741,-76,o),
(741,-149,cs),
(741,-256,o),
(831,-321,o),
(1045,-321,cs)
);
},
{
closed = 1;
nodes = (
(1209,-124,l),
(1209,569,l),
(1019,569,l),
(1019,-124,l)
);
}
);
};
layerId = "B104C26B-E498-4044-8731-03CD50407EE8";
shapes = (
{
closed = 1;
nodes = (
(477,559,ls),
(477,630,o),
(447,669,o),
(392,669,cs),
(392,669,ls),
(337,669,o),
(306,630,o),
(306,559,cs),
(306,554,l),
(477,554,l)
);
},
{
closed = 1;
nodes = (
(477,557,l),
(457,557,l),
(457,-10,l),
(477,-10,l)
);
},
{
closed = 1;
nodes = (
(326,554,l),
(306,554,l),
(306,500,l),
(326,500,l)
);
},
{
closed = 1;
nodes = (
(402,505,l),
(306,505,l),
(306,390,l),
(402,390,l)
);
},
{
closed = 1;
nodes = (
(402,537,l),
(382,537,l),
(382,499,l),
(402,499,l)
);
},
{
closed = 1;
nodes = (
(594,269,l),
(30,269,l),
(30,154,l),
(594,154,l)
);
},
{
closed = 1;
nodes = (
(470,105,l),
(30,105,l),
(30,100,ls),
(30,29,o),
(69,-10,o),
(140,-10,cs),
(360,-10,ls),
(431,-10,o),
(470,29,o),
(470,100,cs)
);
},
{
closed = 1;
nodes = (
(50,154,l),
(30,154,l),
(30,105,l),
(50,105,l)
);
},
{
closed = 0;
nodes = (
(501,105,l)
);
},
{
closed = 1;
nodes = (
(306,554,l),
(391,554,l),
(391,669,l),
(306,669,l)
);
},
{
closed = 1;
nodes = (
(358,-10,l),
(477,-10,l),
(477,105,l),
(358,105,l)
);
},
{
closed = 1;
nodes = (
(574,-10,l),
(594,-10,l),
(594,431,l),
(574,431,l)
);
},
{
closed = 1;
nodes = (
(594,431,l),
(574,431,l),
(574,-68,l),
(594,-68,l)
);
},
{
closed = 1;
nodes = (
(670,-50,l),
(650,-50,l),
(650,-92,l),
(670,-92,l)
);
},
{
closed = 1;
nodes = (
(670,-87,l),
(499,-87,l),
(499,-174,l),
(670,-174,l)
);
},
{
closed = 1;
nodes = (
(670,36,l),
(574,36,l),
(574,-50,l),
(670,-50,l)
);
},
{
closed = 1;
nodes = (
(519,-55,l),
(499,-55,l),
(499,-87,l),
(519,-87,l)
);
}
);
width = 700;
}
);
unicode = 2950;
},
{
glyphname = itamil;
lastChange = "2025-02-12 17:34:30 +0000";
layers = (
{
anchors = (
{
name = Anchor10;
pos = (401,-29);
}
);
background = {
shapes = (
{
closed = 1;
nodes = (
(187,-321,o),
(289,-290,o),
(383,-240,c),
(496,-185,o),
(590,-92,o),
(639,26,cs),
(667,93,o),
(684,167,o),
(684,249,cs),
(684,439,o),
(570,581,o),
(333,581,cs),
(188,581,o),
(76,519,o),
(76,395,cs),
(76,275,o),
(175,222,o),
(283,222,cs),
(422,222,o),
(480,288,o),
(480,396,cs),
(480,442,o),
(449,519,o),
(413,548,c),
(282,529,l),
(319,491,o),
(348,454,o),
(348,407,cs),
(348,360,o),
(328,346,o),
(298,346,cs),
(264,346,o),
(245,366,o),
(245,399,cs),
(245,448,o),
(290,461,o),
(327,461,cs),
(340,461,o),
(357,461,o),
(376,456,c),
(384,462,l),
(499,432,o),
(509,339,o),
(509,254,cs),
(509,192,o),
(497,137,o),
(479,86,cs),
(436,-36,o),
(344,-118,o),
(232,-161,cs),
(184,-179,o),
(131,-192,o),
(76,-192,cs),
(-13,-192,o),
(-41,-158,o),
(-41,-109,cs),
(-41,-61,o),
(-14,-24,o),
(39,-1,c),
(104,35,o),
(199,49,o),
(294,49,cs),
(376,49,o),
(464,39,o),
(530,10,c),
(597,-13,o),
(636,-54,o),
(636,-109,cs),
(636,-157,o),
(607,-192,o),
(519,-192,cs),
(462,-192,o),
(408,-175,o),
(358,-155,cs),
(240,-107,o),
(143,-16,o),
(83,100,c),
(38,182,o),
(13,261,o),
(13,361,cs),
(13,600,o),
(173,718,o),
(403,718,cs),
(529,718,o),
(616,685,o),
(674,626,cs),
(751,547,o),
(778,429,o),
(778,241,cs),
(778,0,l),
(968,0,l),
(968,292,ls),
(968,532,o),
(914,651,o),
(794,743,cs),
(701,815,o),
(566,851,o),
(409,851,cs),
(3,851,o),
(-169,625,o),
(-169,384,cs),
(-169,244,o),
(-133,134,o),
(-65,30,c),
(3,-84,o),
(98,-176,o),
(224,-238,c),
(319,-289,o),
(419,-321,o),
(533,-321,cs),
(730,-321,o),
(806,-245,o),
(806,-113,cs),
(806,18,o),
(707,97,o),
(582,136,c),
(488,168,o),
(382,178,o),
(301,178,cs),
(192,178,o),
(67,162,o),
(-32,118,c),
(-139,74,o),
(-211,-3,o),
(-211,-114,cs),
(-211,-245,o),
(-130,-321,o),
(67,-321,cs)
);
}
);
};
layerId = "B104C26B-E498-4044-8731-03CD50407EE8";
shapes = (
{
closed = 1;
nodes = (
(477,559,ls),
(477,630,o),
(447,669,o),
(392,669,cs),
(392,669,ls),
(337,669,o),
(306,630,o),
(306,559,cs),
(306,554,l),
(477,554,l)
);
},
{
closed = 1;
nodes = (
(477,557,l),
(457,557,l),
(457,-10,l),
(477,-10,l)
);
},
{
closed = 1;
nodes = (
(326,554,l),
(306,554,l),
(306,500,l),
(326,500,l)
);
},
{
closed = 1;
nodes = (
(402,505,l),
(306,505,l),
(306,390,l),
(402,390,l)
);
},
{
closed = 1;
nodes = (
(402,537,l),
(382,537,l),
(382,505,l),
(402,505,l)
);
},
{
closed = 1;
nodes = (
(773,269,l),
(30,269,l),
(30,154,l),
(773,154,l)
);
},
{
closed = 1;
nodes = (
(470,105,l),
(30,105,l),
(30,100,ls),
(30,29,o),
(69,-10,o),
(140,-10,cs),
(360,-10,ls),
(431,-10,o),
(470,29,o),
(470,100,cs)
);
},
{
closed = 1;
nodes = (
(50,154,l),
(30,154,l),
(30,105,l),
(50,105,l)
);
},
{
closed = 1;
nodes = (
(773,154,l),
(753,154,l),
(753,105,l),
(773,105,l)
);
},
{
closed = 1;
nodes = (
(773,105,l),
(501,105,l),
(501,100,ls),
(501,29,o),
(540,-10,o),
(611,-10,cs),
(663,-10,ls),
(734,-10,o),
(773,29,o),
(773,100,cs)
);
},
{
closed = 1;
nodes = (
(128,726,l),
(108,726,l),
(108,311,l),
(128,311,l)
);
},
{
closed = 1;
nodes = (
(696,723,ls),
(696,794,o),
(657,833,o),
(586,833,cs),
(218,833,ls),
(147,833,o),
(108,794,o),
(108,723,cs),
(108,718,l),
(696,718,l)
);
},
{
closed = 1;
nodes = (
(696,724,l),
(676,724,l),
(676,599,l),
(696,599,l)
);
},
{
closed = 1;
nodes = (
(152,426,l),
(128,426,l),
(128,311,l),
(152,311,l)
);
},
{
closed = 1;
nodes = (
(306,554,l),
(391,554,l),
(391,669,l),
(306,669,l)
);
},
{
closed = 1;
nodes = (
(358,-10,l),
(469,-10,l),
(469,105,l),
(358,105,l)
);
},
{
closed = 1;
nodes = (
(501,-10,l),
(612,-10,l),
(612,105,l),
(501,105,l)
);
}
);
width = 803;
}
);
unicode = 2951;
},
{
glyphname = iitamil;
lastChange = "2025-02-12 16:53:44 +0000";
layers = (
{
anchors = (
{
name = Anchor10;
pos = (312,-29);
},
{
name = Anchor8;
pos = (312,-29);
}
);
background = {
shapes = (
{
closed = 1;
nodes = (
(121,0,l),
(121,439,l),
(335,439,l),
(335,0,l),
(525,0,l),
(525,439,l),
(745,439,l),
(745,569,l),
(-69,569,l),
(-69,0,l)
);
},
{
closed = 1;
nodes = (
(276,187,o),
(313,221,o),
(313,271,cs),
(313,319,o),
(278,356,o),
(228,356,cs),
(180,356,o),
(144,319,o),
(144,271,cs),
(144,221,o),
(179,187,o),
(228,187,cs)
);
},
{
closed = 1;
nodes = (
(679,187,o),
(716,221,o),
(716,271,cs),
(716,319,o),
(681,356,o),
(631,356,cs),
(583,356,o),
(547,319,o),
(547,271,cs),
(547,221,o),
(582,187,o),
(631,187,cs)
);
}
);
};
layerId = "B104C26B-E498-4044-8731-03CD50407EE8";
shapes = (
{
closed = 1;
nodes = (
(30,-10,l),
(50,-10,l),
(50,464,l),
(30,464,l)
);
},
{
closed = 1;
nodes = (
(323,-10,l),
(343,-10,l),
(343,464,l),
(323,464,l)
);
},
{
closed = 1;
nodes = (
(352,464,l),
(463,464,l),
(463,579,l),
(352,579,l)
);
},
{
closed = 1;
nodes = (
(50,464,l),
(30,464,l),
(30,252,l),
(50,252,l)
);
},
{
closed = 1;
nodes = (
(30,464,l),
(463,464,l),
(463,469,ls),
(463,540,o),
(424,579,o),
(353,579,cs),
(140,579,ls),
(69,579,o),
(30,540,o),
(30,469,cs)
);
},
{
closed = 1;
nodes = (
(130,252,ls),
(130,215,o),
(169,194,o),
(240,194,cs),
(245,194,l),
(245,199,ls),
(245,270,o),
(224,309,o),
(187,309,cs),
(187,309,ls),
(150,309,o),
(130,289,o),
(130,252,cs)
);
},
{
closed = 1;
nodes = (
(130,164,l),
(148,164,l),
(148,194,l),
(130,194,l)
);
},
{
closed = 1;
nodes = (
(227,309,l),
(245,309,l),
(245,339,l),
(227,339,l)
);
},
{
closed = 1;
nodes = (
(130,194,l),
(235,194,l),
(235,252,l),
(130,252,l)
);
},
{
closed = 1;
nodes = (
(187,309,l),
(187,204,l),
(245,204,l),
(245,309,l)
);
},
{
closed = 1;
nodes = (
(423,252,ls),
(423,215,o),
(462,194,o),
(533,194,cs),
(538,194,l),
(538,199,ls),
(538,270,o),
(517,309,o),
(480,309,cs),
(480,309,ls),
(443,309,o),
(423,289,o),
(423,252,cs)
);
},
{
closed = 1;
nodes = (
(423,164,l),
(441,164,l),
(441,194,l),
(423,194,l)
);
},
{
closed = 1;
nodes = (
(520,309,l),
(538,309,l),
(538,339,l),
(520,339,l)
);
},
{
closed = 1;
nodes = (
(423,194,l),
(528,194,l),
(528,252,l),
(423,252,l)
);
},
{
closed = 1;
nodes = (
(480,309,l),
(480,204,l),
(538,204,l),
(538,309,l)
);
}
);
width = 568;
}
);
unicode = 2952;
},
{
glyphname = utamil;
lastChange = "2025-02-12 16:57:09 +0000";
layers = (
{
anchors = (
{
name = Anchor10;
pos = (487,-29);
},
{
name = Anchor8;
pos = (487,-29);
}
);
background = {
shapes = (
{
closed = 1;
nodes = (
(72,581,o),
(-27,522,o),
(-27,411,cs),
(-27,298,o),
(79,267,o),
(179,267,cs),
(319,267,o),
(389,313,o),
(389,412,cs),
(389,474,o),
(367,513,o),
(332,544,c),
(192,523,l),
(231,490,o),
(249,457,o),
(249,424,cs),
(249,389,o),
(225,375,o),
(192,375,cs),
(164,375,o),
(141,383,o),
(141,413,cs),
(141,444,o),
(164,457,o),
(203,457,cs),
(218,457,o),
(242,456,o),
(262,454,c),
(296,456,l),
(374,456,o),
(459,435,o),
(459,368,cs),
(459,309,o),
(402,281,o),
(233,267,cs),
(138,259,ls),
(6,248,o),
(-25,179,o),
(-25,130,cs),
(-25,64,o),
(10,0,o),
(175,0,cs),
(1020,0,l),
(1020,130,l),
(168,130,ls),
(155,130,o),
(149,134,o),
(149,140,cs),
(149,147,o),
(157,150,o),
(175,151,cs),
(297,161,ls),
(467,175,o),
(644,218,o),
(644,374,cs),
(644,496,o),
(520,581,o),
(259,581,cs)
);
}
);
};
layerId = "B104C26B-E498-4044-8731-03CD50407EE8";
shapes = (
{
closed = 1;
nodes = (
(415,559,ls),
(415,630,o),
(385,669,o),
(330,669,cs),
(330,669,ls),
(275,669,o),
(244,630,o),
(244,559,cs),
(244,554,l),
(415,554,l)
);
},
{
closed = 1;
nodes = (
(415,557,l),
(395,557,l),
(395,154,l),
(415,154,l)
);
},
{
closed = 1;
nodes = (
(264,554,l),
(244,554,l),
(244,500,l),
(264,500,l)
);
},
{
closed = 1;
nodes = (
(340,505,l),
(244,505,l),
(244,390,l),
(340,390,l)
);
},
{
closed = 1;
nodes = (
(340,537,l),
(320,537,l),
(320,499,l),
(340,499,l)
);
},
{
closed = 1;
nodes = (
(415,269,l),
(30,269,l),
(30,154,l),
(415,154,l)
);
},
{
closed = 1;
nodes = (
(50,154,l),
(30,154,l),
(30,105,l),
(50,105,l)
);
},
{
closed = 0;
nodes = (
(439,105,l)
);
},
{
closed = 1;
nodes = (
(244,554,l),
(329,554,l),
(329,669,l),
(244,669,l)
);
},
{
closed = 1;
nodes = (
(681,-10,l),
(800,-10,l),
(800,105,l),
(681,105,l)
);
},
{
closed = 1;
nodes = (
(30,100,ls),
(30,29,o),
(69,-10,o),
(140,-10,cs),
(690,-10,ls),
(761,-10,o),
(800,29,o),
(800,100,cs),
(800,105,l),
(30,105,l)
);
}
);
width = 830;
}
);
unicode = 2953;
},
{
glyphname = uutamil;
lastChange = "2025-02-12 17:02:44 +0000";
layers = (
{
anchors = (
{
name = Anchor10;
pos = (869,-29);
},
{
name = Anchor8;
pos = (869,-29);
}
);
background = {
shapes = (
{
closed = 1;
nodes = (
(134,581,o),
(35,522,o),
(35,411,cs),
(35,298,o),
(141,267,o),
(241,267,cs),
(381,267,o),
(451,313,o),
(451,412,cs),
(451,474,o),
(429,513,o),
(394,544,c),
(254,523,l),
(293,490,o),
(311,457,o),
(311,424,cs),
(311,389,o),
(287,375,o),
(254,375,cs),
(226,375,o),
(203,383,o),
(203,413,cs),
(203,444,o),
(226,457,o),
(265,457,cs),
(280,457,o),
(304,456,o),
(324,454,c),
(358,456,l),
(436,456,o),
(521,435,o),
(521,368,cs),
(521,309,o),
(464,281,o),
(295,267,cs),
(200,259,ls),
(68,248,o),
(37,179,o),
(37,130,cs),
(37,64,o),
(72,0,o),
(237,0,cs),
(1700,0,l),
(1700,130,l),
(230,130,ls),
(217,130,o),
(211,134,o),
(211,140,cs),
(211,147,o),
(219,150,o),
(237,151,cs),
(359,161,ls),
(529,175,o),
(706,218,o),
(706,374,cs),
(706,496,o),
(582,581,o),
(321,581,cs)
);
},
{
closed = 1;
nodes = (
(1089,155,o),
(1149,207,o),
(1149,295,cs),
(1149,382,o),
(1085,424,o),
(995,424,cs),
(922,424,o),
(875,395,o),
(829,355,c),
(852,275,l),
(877,301,o),
(915,325,o),
(953,325,cs),
(985,325,o),
(1001,314,o),
(1001,291,cs),
(1001,270,o),
(988,256,o),
(958,256,cs),
(913,256,o),
(895,286,o),
(895,330,c),
(898,372,l),
(915,439,o),
(986,464,o),
(1049,464,cs),
(1124,464,o),
(1175,427,o),
(1217,392,c),
(1256,515,l),
(1191,556,o),
(1137,581,o),
(1046,581,cs),
(868,581,o),
(761,480,o),
(761,344,cs),
(761,213,o),
(842,155,o),
(962,155,cs)
);
},
{
closed = 1;
nodes = (
(1354,162,l),
(1354,452,l),
(1436,452,l),
(1436,162,l),
(1594,162,l),
(1594,452,l),
(1690,452,l),
(1690,569,l),
(1216,569,l),
(1216,510,l),
(1196,494,l),
(1196,162,l)
);
}
);
};
layerId = "B104C26B-E498-4044-8731-03CD50407EE8";
shapes = (
{
closed = 1;
nodes = (
(415,559,ls),
(415,630,o),
(385,669,o),
(330,669,cs),
(330,669,ls),
(275,669,o),
(244,630,o),
(244,559,cs),
(244,554,l),
(415,554,l)
);
},
{
closed = 1;
nodes = (
(415,557,l),
(395,557,l),
(395,154,l),
(415,154,l)
);
},
{
closed = 1;
nodes = (
(264,554,l),
(244,554,l),
(244,500,l),
(264,500,l)
);
},
{
closed = 1;
nodes = (
(340,505,l),
(244,505,l),
(244,390,l),
(340,390,l)
);
},
{
closed = 1;
nodes = (
(340,537,l),
(320,537,l),
(320,499,l),
(340,499,l)
);
},
{
closed = 1;
nodes = (
(415,269,l),
(30,269,l),
(30,154,l),
(415,154,l)
);
},
{
closed = 1;
nodes = (
(50,154,l),
(30,154,l),
(30,105,l),
(50,105,l)
);
},
{
closed = 0;
nodes = (
(439,105,l)
);
},
{
closed = 1;
nodes = (
(244,554,l),
(329,554,l),
(329,669,l),
(244,669,l)
);
},
{
closed = 1;
nodes = (
(1039,-10,l),
(1158,-10,l),
(1158,105,l),
(1039,105,l)
);
},
{
closed = 1;
nodes = (
(1158,105,l),
(30,105,l),
(30,100,ls),
(30,29,o),
(69,-10,o),
(140,-10,cs),
(1048,-10,ls),
(1119,-10,o),
(1158,29,o),
(1158,100,cs)
);
},
{
closed = 1;
nodes = (
(1032,482,l),
(1012,482,l),
(1012,154,l),
(1032,154,l)
);
},
{
closed = 1;
nodes = (
(798,482,l),
(778,482,l),
(778,154,l),
(798,154,l)
);
},
{
closed = 1;
nodes = (
(497,482,l),
(477,482,l),
(477,269,l),
(497,269,l)
);
},
{
closed = 1;
nodes = (
(477,264,ls),
(477,193,o),
(507,154,o),
(563,154,cs),
(563,154,ls),
(618,154,o),
(648,193,o),
(648,264,cs),
(648,269,l),
(477,269,l)
);
},
{
closed = 1;
nodes = (
(628,269,l),
(648,269,l),
(648,324,l),
(628,324,l)
);
},
{
closed = 1;
nodes = (
(552,318,l),
(648,318,l),
(648,323,ls),
(648,394,o),
(631,433,o),
(600,433,cs),
(600,433,ls),
(569,433,o),
(552,394,o),
(552,323,cs)
);
},
{
closed = 1;
nodes = (
(552,286,l),
(572,286,l),
(572,331,l),
(552,331,l)
);
},
{
closed = 1;
nodes = (
(477,482,l),
(1143,482,l),
(1143,487,ls),
(1143,558,o),
(1103,597,o),
(1031,597,cs),
(589,597,ls),
(517,597,o),
(477,558,o),
(477,487,cs)
);
},
{
closed = 1;
nodes = (
(563,154,l),
(648,154,l),
(648,269,l),
(563,269,l)
);
},
{
closed = 1;
nodes = (
(1032,482,l),
(1143,482,l),
(1143,597,l),
(1032,597,l)
);
},
{
closed = 1;
nodes = (
(552,318,l),
(600,318,l),
(600,433,l),
(552,433,l)
);
}
);
width = 1188;
}
);
unicode = 2954;
},
{
glyphname = etamil;
lastChange = "2025-02-12 17:12:25 +0000";
layers = (
{
anchors = (
{
name = Anchor10;
pos = (465,-29);
},
{
name = Anchor12;
pos = (465,-78);
},
{
name = Anchor8;
pos = (465,-29);
}
);
background = {
shapes = (
{
closed = 1;
nodes = (
(449,-12,o),
(521,61,o),
(521,177,cs),
(521,294,o),
(447,355,o),
(335,355,cs),
(248,355,o),
(184,311,o),
(124,261,c),
(156,162,l),
(193,204,o),
(230,234,o),
(278,234,cs),
(315,234,o),
(340,217,o),
(340,174,cs),
(340,135,o),
(321,114,o),
(283,114,cs),
(231,114,o),
(209,158,o),
(209,226,cs),
(209,314,o),
(240,366,o),
(287,398,cs),
(329,427,o),
(394,439,o),
(485,439,cs),
(574,439,l),
(574,569,l),
(530,569,ls),
(340,569,o),
(234,550,o),
(146,482,cs),
(80,431,o),
(37,355,o),
(37,239,cs),
(37,79,o),
(127,-12,o),
(285,-12,cs)
);
},
{
closed = 1;
nodes = (
(781,0,l),
(781,439,l),
(913,439,l),
(913,569,l),
(551,569,l),
(535,439,l),
(591,439,l),
(591,0,l)
);
}
);
};
layerId = "B104C26B-E498-4044-8731-03CD50407EE8";
shapes = (
{
closed = 1;
nodes = (
(30,100,ls),
(30,29,o),
(60,-10,o),
(116,-10,cs),
(116,-10,ls),
(171,-10,o),
(201,29,o),
(201,100,cs),
(201,105,l),
(30,105,l)
);
},
{
closed = 1;
nodes = (
(30,105,l),
(50,105,l),
(50,465,l),
(30,465,l)
);
},
{
closed = 1;
nodes = (
(181,105,l),
(201,105,l),
(201,162,l),
(181,162,l)
);
},
{
closed = 1;
nodes = (
(105,154,l),
(201,154,l),
(201,159,ls),
(201,230,o),
(184,269,o),
(153,269,cs),
(153,269,ls),
(122,269,o),
(105,230,o),
(105,159,cs)
);
},
{
closed = 1;
nodes = (
(105,122,l),
(125,122,l),
(125,162,l),
(105,162,l)
);
},
{
closed = 1;
nodes = (
(116,-10,l),
(201,-10,l),
(201,105,l),
(116,105,l)
);
},
{
closed = 1;
nodes = (
(423,464,l),
(534,464,l),
(534,579,l),
(423,579,l)
);
},
{
closed = 1;
nodes = (
(105,154,l),
(153,154,l),
(153,269,l),
(105,269,l)
);
},
{
closed = 1;
nodes = (
(403,-8,l),
(423,-8,l),
(423,185,o),
(423,378,o),
(423,571,c),
(403,571,l)
);
},
{
closed = 1;
nodes = (
(30,464,l),
(534,464,l),
(534,469,ls),
(534,540,o),
(495,579,o),
(424,579,cs),
(140,579,ls),
(69,579,o),
(30,540,o),
(30,469,cs)
);
}
);
width = 564;
}
);
unicode = 2958;
},
{
glyphname = eetamil;
lastChange = "2025-02-12 17:15:09 +0000";
layers = (
{
anchors = (
{
name = Anchor10;
pos = (465,-29);
},
{
name = Anchor8;
pos = (465,-29);
}
);
background = {
shapes = (
{
closed = 1;
nodes = (
(781,0,l),
(781,439,l),
(913,439,l),
(913,569,l),
(551,569,l),
(535,439,l),
(591,439,l),
(591,39,l),
(438,-104,l),
(557,-214,l)
);
},
{
closed = 1;
nodes = (
(449,-12,o),
(521,61,o),
(521,177,cs),
(521,294,o),
(447,355,o),
(335,355,cs),
(248,355,o),
(184,311,o),
(124,261,c),
(156,162,l),
(193,204,o),
(230,234,o),
(278,234,cs),
(315,234,o),
(340,217,o),
(340,174,cs),
(340,135,o),
(321,114,o),
(283,114,cs),
(231,114,o),
(209,158,o),
(209,226,cs),
(209,314,o),
(240,366,o),
(287,398,cs),
(329,427,o),
(394,439,o),
(485,439,cs),
(574,439,l),
(579,569,l),
(530,569,ls),
(340,569,o),
(234,550,o),
(146,482,cs),
(80,431,o),
(37,355,o),
(37,239,cs),
(37,79,o),
(127,-12,o),
(285,-12,cs)
);
}
);
};
layerId = "B104C26B-E498-4044-8731-03CD50407EE8";
shapes = (
{
closed = 1;
nodes = (
(30,100,ls),
(30,29,o),
(60,-10,o),
(116,-10,cs),
(116,-10,ls),
(171,-10,o),
(201,29,o),
(201,100,cs),
(201,105,l),
(30,105,l)
);
},
{
closed = 1;
nodes = (
(30,105,l),
(50,105,l),
(50,465,l),
(30,465,l)
);
},
{
closed = 1;
nodes = (
(181,105,l),
(201,105,l),
(201,162,l),
(181,162,l)
);
},
{
closed = 1;
nodes = (
(105,154,l),
(201,154,l),
(201,159,ls),
(201,230,o),
(184,269,o),
(153,269,cs),
(153,269,ls),
(122,269,o),
(105,230,o),
(105,159,cs)
);
},
{
closed = 1;
nodes = (
(105,122,l),
(125,122,l),
(125,162,l),
(105,162,l)
);
},
{
closed = 1;
nodes = (
(116,-10,l),
(201,-10,l),
(201,105,l),
(116,105,l)
);
},
{
closed = 1;
nodes = (
(423,464,l),
(534,464,l),
(534,579,l),
(423,579,l)
);
},
{
closed = 1;
nodes = (
(105,154,l),
(153,154,l),
(153,269,l),
(105,269,l)
);
},
{
closed = 1;
nodes = (
(403,-59,l),
(423,-59,l),
(423,151,o),
(423,361,o),
(423,571,c),
(403,571,l)
);
},
{
closed = 1;
nodes = (
(30,464,l),
(534,464,l),
(534,469,ls),
(534,540,o),
(495,579,o),
(424,579,cs),
(140,579,ls),
(69,579,o),
(30,540,o),
(30,469,cs)
);
},
{
closed = 1;
nodes = (
(199,-64,ls),
(199,-135,o),
(238,-174,o),
(309,-174,cs),
(313,-174,ls),
(384,-174,o),
(423,-135,o),
(423,-64,cs),
(423,-59,l),
(199,-59,l)
);
},
{
closed = 1;
nodes = (
(199,-261,l),
(219,-261,l),
(219,-154,l),
(199,-154,l)
);
},
{
closed = 1;
nodes = (
(199,-174,l),
(310,-174,l),
(310,-59,l),
(199,-59,l)
);
}
);
width = 564;
}
);
unicode = 2959;
},
{
glyphname = aitamil;
lastChange = "2025-02-12 17:43:37 +0000";
layers = (
{
anchors = (
{
name = Anchor10;
pos = (499,-29);
},
{
name = Anchor8;
pos = (499,-29);
}
);
background = {
shapes = (
{
closed = 1;
nodes = (
(433,-321,o),
(518,-262,o),
(573,-200,c),
(504,-180,l),
(557,-276,o),
(637,-321,o),
(769,-321,cs),
(969,-321,o),
(1034,-221,o),
(1034,-89,cs),
(1034,-38,o),
(1020,18,o),
(1003,59,c),
(823,8,l),
(836,-24,o),
(844,-57,o),
(844,-88,cs),
(844,-138,o),
(825,-190,o),
(748,-190,cs),
(705,-190,o),
(676,-176,o),
(660,-153,cs),
(643,-129,o),
(637,-99,o),
(637,-30,cs),
(637,-12,l),
(449,-12,l),
(449,-32,ls),
(449,-88,o),
(441,-116,o),
(424,-140,cs),
(401,-173,o),
(362,-190,o),
(291,-190,cs),
(197,-190,o),
(147,-151,o),
(147,-82,cs),
(147,-42,o),
(166,-11,o),
(195,7,cs),
(232,30,o),
(273,35,o),
(345,35,cs),
(588,35,ls),
(736,35,o),
(845,48,o),
(930,106,cs),
(995,150,o),
(1034,220,o),
(1034,329,cs),
(1034,458,o),
(946,581,o),
(751,581,cs),
(630,581,o),
(555,529,o),
(507,439,c),
(567,453,l),
(505,527,o),
(441,581,o),
(265,581,cs),
(96,581,o),
(-43,496,o),
(-43,350,cs),
(-43,261,o),
(10,164,o),
(172,164,cs),
(317,164,o),
(384,228,o),
(384,330,cs),
(384,412,o),
(329,468,o),
(262,482,c),
(102,430,l),
(210,428,o),
(232,384,o),
(232,343,cs),
(232,308,o),
(210,284,o),
(171,284,cs),
(128,284,o),
(113,313,o),
(113,343,cs),
(113,388,o),
(143,424,o),
(194,442,cs),
(216,450,l),
(237,456,o),
(259,459,o),
(277,459,cs),
(405,459,o),
(449,397,o),
(449,292,cs),
(449,204,l),
(637,204,l),
(637,299,ls),
(637,370,o),
(647,400,o),
(668,423,cs),
(682,438,o),
(703,449,o),
(736,449,cs),
(796,449,o),
(844,408,o),
(844,322,cs),
(844,270,o),
(829,233,o),
(798,208,cs),
(758,176,o),
(703,163,o),
(586,163,cs),
(366,163,ls),
(212,163,o),
(127,149,o),
(56,104,cs),
(-4,66,o),
(-43,7,o),
(-43,-84,cs),
(-43,-241,o),
(66,-321,o),
(274,-321,cs)
);
}
);
};
layerId = "B104C26B-E498-4044-8731-03CD50407EE8";
shapes = (
{
closed = 1;
nodes = (
(50,718,l),
(30,718,l),
(30,664,l),
(50,664,l)
);
},
{
closed = 1;
nodes = (
(126,669,l),
(30,669,l),
(30,554,l),
(126,554,l)
);
},
{
closed = 1;
nodes = (
(126,701,l),
(106,701,l),
(106,669,l),
(126,669,l)
);
},
{
closed = 1;
nodes = (
(773,723,ls),
(773,794,o),
(734,833,o),
(663,833,cs),
(140,833,ls),
(69,833,o),
(30,794,o),
(30,723,cs),
(30,718,l),
(773,718,l)
);
},
{
closed = 1;
nodes = (
(773,105,l),
(30,105,l),
(30,100,ls),
(30,29,o),
(69,-10,o),
(140,-10,cs),
(663,-10,ls),
(734,-10,o),
(773,29,o),
(773,100,cs)
);
},
{
closed = 1;
nodes = (
(423,718,l),
(403,718,l),
(403,506,l),
(423,506,l)
);
},
{
closed = 1;
nodes = (
(773,718,l),
(753,718,l),
(753,269,l),
(773,269,l)
);
},
{
closed = 1;
nodes = (
(50,246,l),
(30,246,l),
(30,104,l),
(50,104,l)
);
},
{
closed = 1;
nodes = (
(423,154,l),
(403,154,l),
(403,1,l),
(423,1,l)
);
},
{
closed = 1;
nodes = (
(773,154,l),
(753,154,l),
(753,105,l),
(773,105,l)
);
},
{
closed = 1;
nodes = (
(773,318,l),
(30,318,l),
(30,203,l),
(773,203,l)
);
}
);
width = 803;
}
);
unicode = 2960;
},
{
glyphname = otamil;
lastChange = "2025-02-12 17:56:28 +0000";
layers = (
{
anchors = (
{
name = Anchor10;
pos = (403,-29);
},
{
name = Anchor8;
pos = (403,-29);
}
);
background = {
shapes = (
{
closed = 1;
nodes = (
(902,37,o),
(961,144,o),
(961,251,cs),
(961,349,o),
(916,420,o),
(847,470,cs),
(737,549,o),
(586,581,o),
(385,581,cs),
(204,581,o),
(66,556,o),
(-40,484,cs),
(-111,436,o),
(-155,367,o),
(-155,271,cs),
(-155,137,o),
(-68,48,o),
(76,48,cs),
(195,48,o),
(294,97,o),
(294,231,cs),
(294,341,o),
(213,398,o),
(118,398,cs),
(61,398,o),
(18,379,o),
(-32,344,c),
(-26,234,l),
(7,269,o),
(38,289,o),
(76,289,cs),
(111,289,o),
(136,273,o),
(136,234,cs),
(136,193,o),
(113,172,o),
(76,172,cs),
(16,172,o),
(4,227,o),
(4,261,cs),
(4,283,o),
(6,297,o),
(9,309,cs),
(17,346,l),
(111,430,o),
(234,446,o),
(395,446,cs),
(642,446,o),
(773,368,o),
(773,238,cs),
(773,195,o),
(754,161,o),
(717,161,cs),
(670,161,o),
(655,193,o),
(655,241,cs),
(655,267,o),
(660,300,o),
(672,326,c),
(522,394,l),
(391,344,o),
(314,254,o),
(314,125,cs),
(314,34,o),
(369,-76,o),
(531,-118,cs),
(575,-130,o),
(619,-138,o),
(700,-138,cs),
(861,-138,l),
(861,-9,l),
(742,-9,ls),
(605,-9,o),
(558,5,o),
(519,35,cs),
(485,61,o),
(468,98,o),
(468,144,cs),
(468,174,o),
(477,223,o),
(536,264,c),
(522,266,l),
(513,245,o),
(510,211,o),
(510,200,cs),
(510,107,o),
(572,37,o),
(718,37,cs)
);
},
{
closed = 1;
nodes = (
(458,-321,o),
(546,-266,o),
(626,-154,cs),
(643,-130,o),
(657,-109,o),
(677,-87,c),
(504,-58,l),
(480,-73,o),
(466,-92,o),
(456,-106,cs),
(405,-173,o),
(368,-191,o),
(307,-191,cs),
(245,-191,o),
(220,-159,o),
(220,-118,cs),
(220,-93,o),
(229,-69,o),
(248,-41,c),
(88,29,l),
(54,-24,o),
(37,-69,o),
(37,-125,cs),
(37,-259,o),
(148,-321,o),
(303,-321,cs)
);
}
);
};
layerId = "B104C26B-E498-4044-8731-03CD50407EE8";
shapes = (
{
closed = 1;
nodes = (
(478,390,l),
(498,390,l),
(498,718,l),
(478,718,l)
);
},
{
closed = 1;
nodes = (
(30,718,l),
(498,718,l),
(498,723,ls),
(498,794,o),
(459,833,o),
(388,833,cs),
(140,833,ls),
(69,833,o),
(30,794,o),
(30,723,cs)
);
},
{
closed = 1;
nodes = (
(50,718,l),
(30,718,l),
(30,669,l),
(50,669,l)
);
},
{
closed = 1;
nodes = (
(126,669,l),
(30,669,l),
(30,554,l),
(126,554,l)
);
},
{
closed = 1;
nodes = (
(126,701,l),
(106,701,l),
(106,669,l),
(126,669,l)
);
},
{
closed = 1;
nodes = (
(574,554,l),
(498,554,l),
(498,439,l),
(574,439,l)
);
},
{
closed = 1;
nodes = (
(554,105,l),
(574,105,l),
(574,577,l),
(554,577,l)
);
},
{
closed = 1;
nodes = (
(92,154,l),
(72,154,l),
(72,105,l),
(92,105,l)
);
},
{
closed = 1;
nodes = (
(498,833,l),
(381,833,l),
(381,718,l),
(498,718,l)
);
},
{
closed = 1;
nodes = (
(72,100,ls),
(72,29,o),
(111,-10,o),
(182,-10,cs),
(464,-10,ls),
(535,-10,o),
(574,29,o),
(574,100,cs),
(574,105,l),
(72,105,l)
);
}
);
width = 645;
}
);
unicode = 2962;
},
{
glyphname = ootamil;
lastChange = "2025-02-12 17:56:37 +0000";
layers = (
{
anchors = (
{
name = Anchor10;
pos = (591,-29);
},
{
name = Anchor8;
pos = (591,-29);
}
);
background = {
shapes = (
{
closed = 1;
nodes = (
(1090,37,o),
(1149,144,o),
(1149,251,cs),
(1149,349,o),
(1104,420,o),
(1035,470,cs),
(925,549,o),
(774,581,o),
(573,581,cs),
(392,581,o),
(254,556,o),
(148,484,cs),
(77,436,o),
(33,367,o),
(33,271,cs),
(33,137,o),
(120,48,o),
(264,48,cs),
(383,48,o),
(482,97,o),
(482,231,cs),
(482,341,o),
(401,398,o),
(306,398,cs),
(249,398,o),
(206,379,o),
(156,344,c),
(162,234,l),
(195,269,o),
(226,289,o),
(264,289,cs),
(299,289,o),
(324,273,o),
(324,234,cs),
(324,193,o),
(301,172,o),
(264,172,cs),
(204,172,o),
(192,227,o),
(192,261,cs),
(192,283,o),
(194,297,o),
(197,309,cs),
(205,346,l),
(299,430,o),
(422,446,o),
(583,446,cs),
(830,446,o),
(961,368,o),
(961,238,cs),
(961,195,o),
(942,161,o),
(905,161,cs),
(858,161,o),
(843,193,o),
(843,241,cs),
(843,267,o),
(848,300,o),
(860,326,c),
(710,394,l),
(579,344,o),
(502,254,o),
(502,125,cs),
(502,34,o),
(557,-76,o),
(719,-118,cs),
(763,-130,o),
(807,-138,o),
(888,-138,cs),
(1049,-138,l),
(1049,-9,l),
(930,-9,ls),
(793,-9,o),
(746,5,o),
(707,35,cs),
(673,61,o),
(656,98,o),
(656,144,cs),
(656,174,o),
(665,223,o),
(724,264,c),
(710,266,l),
(701,245,o),
(698,211,o),
(698,200,cs),
(698,107,o),
(760,37,o),
(906,37,cs)
);
},
{
closed = 1;
nodes = (
(206,33,o),
(139,-41,o),
(139,-131,cs),
(139,-200,o),
(174,-252,o),
(237,-285,cs),
(283,-308,o),
(339,-321,o),
(456,-321,cs),
(476,-321,ls),
(658,-321,o),
(739,-259,o),
(814,-154,cs),
(831,-130,o),
(845,-109,o),
(865,-87,c),
(692,-58,l),
(668,-73,o),
(654,-92,o),
(644,-106,cs),
(593,-173,o),
(563,-201,o),
(490,-201,cs),
(406,-201,ls),
(338,-201,o),
(298,-190,o),
(298,-140,cs),
(298,-114,o),
(316,-91,o),
(349,-91,cs),
(375,-91,o),
(402,-104,o),
(402,-143,cs),
(402,-165,o),
(394,-190,o),
(379,-209,c),
(511,-243,l),
(531,-222,o),
(552,-179,o),
(552,-121,cs),
(552,-41,o),
(497,33,o),
(352,33,cs)
);
}
);
};
layerId = "B104C26B-E498-4044-8731-03CD50407EE8";
shapes = (
{
closed = 1;
nodes = (
(498,718,l),
(478,718,l)
);
},
{
closed = 1;
nodes = (
(30,718,l),
(498,718,l),
(498,723,ls),
(498,794,o),
(459,833,o),
(388,833,cs),
(140,833,ls),
(69,833,o),
(30,794,o),
(30,723,cs)
);
},
{
closed = 1;
nodes = (
(50,718,l),
(30,718,l),
(30,669,l),
(50,669,l)
);
},
{
closed = 1;
nodes = (
(126,669,l),
(30,669,l),
(30,554,l),
(126,554,l)
);
},
{
closed = 1;
nodes = (
(126,701,l),
(106,701,l),
(106,669,l),
(126,669,l)
);
},
{
closed = 1;
nodes = (
(92,154,l),
(72,154,l),
(72,105,l),
(92,105,l)
);
},
{
closed = 1;
nodes = (
(498,833,l),
(381,833,l),
(381,718,l),
(498,718,l)
);
},
{
closed = 1;
nodes = (
(168,269,l),
(72,269,l),
(72,154,l),
(168,154,l)
);
},
{
closed = 1;
nodes = (
(168,154,l),
(148,154,l),
(148,122,l),
(168,122,l)
);
},
{
closed = 1;
nodes = (
(574,554,l),
(498,554,l),
(498,439,l),
(574,439,l)
);
},
{
closed = 1;
nodes = (
(554,105,l),
(574,105,l),
(574,577,l),
(554,577,l)
);
},
{
closed = 1;
nodes = (
(92,154,l),
(72,154,l),
(72,105,l),
(92,105,l)
);
},
{
closed = 1;
nodes = (
(72,100,ls),
(72,29,o),
(111,-10,o),
(182,-10,cs),
(464,-10,ls),
(535,-10,o),
(574,29,o),
(574,100,cs),
(574,105,l),
(72,105,l)
);
},
{
closed = 1;
nodes = (
(478,390,l),
(498,390,l),
(498,718,l),
(478,718,l)
);
}
);
width = 604;
}
);
unicode = 2963;
},
{
glyphname = katamil;
lastChange = "2025-02-12 10:36:37 +0000";
layers = (
{
anchors = (
{
name = Anchor10;
pos = (394,-29);
},
{
name = Anchor12;
pos = (394,-78);
},
{
name = Anchor8;
pos = (394,-29);
}
);
background = {
shapes = (
{
closed = 1;
nodes = (
(335,-12,o),
(409,8,o),
(460,55,cs),
(506,98,o),
(530,162,o),
(530,252,cs),
(530,439,l),
(719,439,l),
(719,569,l),
(40,569,l),
(40,286,l),
(211,302,l),
(211,439,l),
(345,439,l),
(345,240,ls),
(345,144,o),
(300,118,o),
(226,118,cs),
(164,118,o),
(128,133,o),
(128,176,cs),
(128,196,o),
(138,211,o),
(158,221,cs),
(180,231,o),
(207,234,o),
(264,234,cs),
(533,234,ls),
(599,234,o),
(666,227,o),
(666,174,cs),
(666,136,o),
(638,120,o),
(595,120,cs),
(570,120,o),
(553,123,o),
(535,127,c),
(507,1,l),
(543,-8,o),
(594,-12,o),
(631,-12,cs),
(769,-12,o),
(845,54,o),
(845,167,cs),
(845,238,o),
(813,284,o),
(761,313,cs),
(703,344,o),
(636,355,o),
(532,355,cs),
(290,355,ls),
(37,355,o),
(-56,280,o),
(-56,168,cs),
(-56,50,o),
(43,-12,o),
(224,-12,cs)
);
}
);
};
layerId = "B104C26B-E498-4044-8731-03CD50407EE8";
shapes = (
{
closed = 1;
nodes = (
(167,464,l),
(535,464,l),
(535,469,ls),
(535,540,o),
(496,579,o),
(425,579,cs),
(277,579,ls),
(206,579,o),
(167,540,o),
(167,469,cs)
);
},
{
closed = 1;
nodes = (
(167,315,l),
(187,315,l),
(187,464,l),
(167,464,l)
);
},
{
closed = 1;
nodes = (
(395,-10,l),
(415,-10,l),
(415,464,l),
(395,464,l)
);
},
{
closed = 1;
nodes = (
(571,159,ls),
(571,230,o),
(532,269,o),
(461,269,cs),
(140,269,ls),
(69,269,o),
(30,230,o),
(30,159,cs),
(30,154,l),
(571,154,l)
);
},
{
closed = 1;
nodes = (
(409,105,l),
(30,105,l),
(30,-10,l),
(409,-10,l)
);
},
{
closed = 1;
nodes = (
(50,156,l),
(30,156,l),
(30,105,l),
(50,105,l)
);
},
{
closed = 1;
nodes = (
(557,105,l),
(577,105,l),
(577,269,l),
(557,269,l)
);
},
{
closed = 1;
nodes = (
(440,100,ls),
(440,29,o),
(465,-10,o),
(509,-10,cs),
(509,-10,ls),
(553,-10,o),
(577,29,o),
(577,100,cs),
(577,105,l),
(440,105,l)
);
},
{
closed = 1;
nodes = (
(424,464,l),
(535,464,l),
(535,579,l),
(424,579,l)
);
},
{
closed = 1;
nodes = (
(466,154,l),
(577,154,l),
(577,269,l),
(466,269,l)
);
},
{
closed = 1;
nodes = (
(440,-10,l),
(509,-10,l),
(509,105,l),
(440,105,l)
);
}
);
width = 607;
}
);
unicode = 2965;
},
{
glyphname = ngatamil;
lastChange = "2025-02-12 15:29:44 +0000";
layers = (
{
anchors = (
{
name = Anchor10;
pos = (365,-29);
},
{
name = Anchor12;
pos = (365,-78);
},
{
name = Anchor8;
pos = (365,-29);
}
);
background = {
shapes = (
{
closed = 1;
nodes = (
(1,0,l),
(1,439,l),
(121,439,l),
(121,172,l),
(311,172,l),
(311,214,l),
(338,232,o),
(361,240,o),
(386,240,cs),
(419,240,o),
(441,221,o),
(441,185,cs),
(441,159,o),
(434,144,o),
(425,130,c),
(121,130,l),
(121,0,l),
(715,0,l),
(717,130,l),
(610,130,l),
(621,149,o),
(630,174,o),
(630,217,cs),
(630,289,o),
(575,370,o),
(440,370,cs),
(390,370,o),
(351,361,o),
(311,338,c),
(311,439,l),
(506,439,l),
(506,569,l),
(-189,569,l),
(-189,0,l)
);
},
{
closed = 1;
nodes = (
(919,0,l),
(919,569,l),
(729,569,l),
(729,130,l),
(656,130,l),
(659,0,l)
);
}
);
};
layerId = "B104C26B-E498-4044-8731-03CD50407EE8";
shapes = (
{
closed = 1;
nodes = (
(30,464,l),
(398,464,l),
(398,469,ls),
(398,540,o),
(359,579,o),
(288,579,cs),
(140,579,ls),
(69,579,o),
(30,540,o),
(30,469,cs)
);
},
{
closed = 1;
nodes = (
(30,315,l),
(50,315,l),
(50,464,l),
(30,464,l)
);
},
{
closed = 1;
nodes = (
(258,251,l),
(278,251,l),
(278,464,l),
(258,464,l)
);
},
{
closed = 1;
nodes = (
(287,464,l),
(398,464,l),
(398,579,l),
(287,579,l)
);
},
{
closed = 1;
nodes = (
(395,415,l),
(278,415,l),
(278,300,l),
(395,300,l)
);
},
{
closed = 1;
nodes = (
(629,569,l),
(609,569,l),
(609,105,l),
(629,105,l)
);
},
{
closed = 1;
nodes = (
(395,415,l),
(375,415,l),
(375,105,l),
(395,105,l)
);
},
{
closed = 1;
nodes = (
(345,-10,l),
(629,-10,l),
(629,105,l),
(345,105,l)
);
}
);
width = 659;
}
);
unicode = 2969;
},
{
glyphname = catamil;
lastChange = "2025-02-12 10:18:14 +0000";
layers = (
{
anchors = (
{
name = Anchor10;
pos = (285,-29);
},
{
name = Anchor12;
pos = (285,-78);
},
{
name = Anchor8;
pos = (285,-29);
}
);
background = {
shapes = (
{
closed = 1;
nodes = (
(277,-12,o),
(351,8,o),
(402,55,cs),
(448,98,o),
(472,162,o),
(472,252,cs),
(472,439,l),
(663,439,l),
(663,569,l),
(-18,569,l),
(-18,286,l),
(153,302,l),
(153,439,l),
(287,439,l),
(287,240,ls),
(287,144,o),
(242,118,o),
(168,118,cs),
(106,118,o),
(70,133,o),
(70,176,cs),
(70,196,o),
(80,211,o),
(100,221,cs),
(122,231,o),
(149,234,o),
(206,234,cs),
(663,234,l),
(663,355,l),
(232,355,ls),
(-21,355,o),
(-114,280,o),
(-114,168,cs),
(-114,50,o),
(-16,-12,o),
(166,-12,cs)
);
}
);
};
layerId = "B104C26B-E498-4044-8731-03CD50407EE8";
shapes = (
{
closed = 1;
nodes = (
(167,464,l),
(535,464,l),
(535,469,ls),
(535,540,o),
(496,579,o),
(425,579,cs),
(277,579,ls),
(206,579,o),
(167,540,o),
(167,469,cs)
);
},
{
closed = 1;
nodes = (
(167,315,l),
(187,315,l),
(187,464,l),
(167,464,l)
);
},
{
closed = 1;
nodes = (
(395,105,l),
(415,105,l),
(415,464,l),
(395,464,l)
);
},
{
closed = 1;
nodes = (
(577,159,ls),
(577,230,o),
(538,269,o),
(467,269,cs),
(140,269,ls),
(69,269,o),
(30,230,o),
(30,159,cs),
(30,154,l),
(577,154,l)
);
},
{
closed = 1;
nodes = (
(415,105,l),
(30,105,l),
(30,100,ls),
(30,29,o),
(70,-10,o),
(142,-10,cs),
(303,-10,ls),
(375,-10,o),
(415,29,o),
(415,100,cs)
);
},
{
closed = 1;
nodes = (
(50,157,l),
(30,157,l),
(30,105,l),
(50,105,l)
);
},
{
closed = 1;
nodes = (
(424,464,l),
(535,464,l),
(535,579,l),
(424,579,l)
);
},
{
closed = 1;
nodes = (
(30,-10,l),
(141,-10,l),
(141,105,l),
(30,105,l)
);
},
{
closed = 1;
nodes = (
(466,154,l),
(577,154,l),
(577,269,l),
(466,269,l)
);
}
);
width = 607;
}
);
unicode = 2970;
},
{
glyphname = jatamil;
layers = (
{
anchors = (
{
name = Anchor10;
pos = (576,-29);
},
{
name = Anchor12;
pos = (575,-308);
},
{
name = Anchor8;
pos = (576,-29);
}
);
background = {
shapes = (
{
closed = 1;
nodes = (
(174,581,o),
(35,496,o),
(35,350,cs),
(35,261,o),
(88,164,o),
(250,164,cs),
(395,164,o),
(462,228,o),
(462,330,cs),
(462,412,o),
(407,468,o),
(340,482,c),
(180,430,l),
(288,428,o),
(310,384,o),
(310,343,cs),
(310,308,o),
(288,284,o),
(249,284,cs),
(206,284,o),
(191,313,o),
(191,343,cs),
(191,388,o),
(221,424,o),
(272,442,cs),
(294,450,l),
(315,456,o),
(337,459,o),
(355,459,cs),
(483,459,o),
(527,397,o),
(527,292,cs),
(527,204,l),
(715,204,l),
(715,299,ls),
(715,370,o),
(725,400,o),
(746,423,cs),
(760,438,o),
(781,449,o),
(814,449,cs),
(874,449,o),
(922,408,o),
(922,322,cs),
(922,270,o),
(907,233,o),
(876,208,cs),
(836,176,o),
(781,163,o),
(664,163,cs),
(444,163,ls),
(290,163,o),
(205,149,o),
(134,104,cs),
(74,66,o),
(35,7,o),
(35,-85,cs),
(35,-216,o),
(118,-321,o),
(328,-321,cs),
(485,-321,o),
(567,-275,o),
(676,-166,cs),
(723,-119,o),
(746,-103,o),
(775,-90,cs),
(795,-81,o),
(818,-77,o),
(843,-77,cs),
(918,-77,o),
(936,-113,o),
(936,-141,cs),
(936,-171,o),
(919,-197,o),
(879,-197,cs),
(837,-197,o),
(818,-176,o),
(818,-140,cs),
(818,-104,o),
(841,-70,o),
(891,-36,c),
(745,-20,l),
(705,-57,o),
(673,-106,o),
(673,-165,cs),
(673,-229,o),
(717,-321,o),
(882,-321,cs),
(1037,-321,o),
(1099,-245,o),
(1099,-149,cs),
(1099,-47,o),
(1024,45,o),
(857,45,cs),
(740,45,o),
(668,25,o),
(542,-88,cs),
(449,-171,o),
(404,-191,o),
(339,-191,cs),
(258,-191,o),
(225,-142,o),
(225,-82,cs),
(225,-42,o),
(244,-11,o),
(273,7,cs),
(310,30,o),
(351,35,o),
(423,35,cs),
(666,35,ls),
(814,35,o),
(923,48,o),
(1008,106,cs),
(1073,150,o),
(1112,220,o),
(1112,329,cs),
(1112,458,o),
(1024,581,o),
(829,581,cs),
(708,581,o),
(633,529,o),
(585,439,c),
(645,453,l),
(583,527,o),
(519,581,o),
(343,581,cs)
);
}
);
};
layerId = "B104C26B-E498-4044-8731-03CD50407EE8";
shapes = (
{
closed = 1;
nodes = (
(174,581,o),
(35,496,o),
(35,350,cs),
(35,261,o),
(88,164,o),
(250,164,cs),
(395,164,o),
(462,228,o),
(462,330,cs),
(462,412,o),
(407,468,o),
(340,482,c),
(180,430,l),
(288,428,o),
(310,384,o),
(310,343,cs),
(310,308,o),
(288,284,o),
(249,284,cs),
(206,284,o),
(191,313,o),
(191,343,cs),
(191,388,o),
(221,424,o),
(272,442,c),
(294,450,l),
(315,456,o),
(337,459,o),
(355,459,cs),
(483,459,o),
(527,397,o),
(527,292,cs),
(527,204,l),
(715,204,l),
(715,299,ls),
(715,370,o),
(725,400,o),
(746,423,cs),
(760,438,o),
(781,449,o),
(814,449,cs),
(874,449,o),
(922,408,o),
(922,322,cs),
(922,270,o),
(907,233,o),
(876,208,cs),
(836,176,o),
(781,163,o),
(664,163,cs),
(444,163,ls),
(290,163,o),
(205,149,o),
(134,104,cs),
(74,66,o),
(35,7,o),
(35,-85,cs),
(35,-216,o),
(118,-321,o),
(328,-321,cs),
(485,-321,o),
(567,-275,o),
(676,-166,cs),
(723,-119,o),
(746,-103,o),
(775,-90,cs),
(795,-81,o),
(818,-77,o),
(843,-77,cs),
(918,-77,o),
(936,-113,o),
(936,-141,cs),
(936,-171,o),
(919,-197,o),
(879,-197,cs),
(837,-197,o),
(818,-176,o),
(818,-140,cs),
(818,-104,o),
(841,-70,o),
(891,-36,c),
(745,-20,l),
(705,-57,o),
(673,-106,o),
(673,-165,cs),
(673,-229,o),
(717,-321,o),
(882,-321,cs),
(1037,-321,o),
(1099,-245,o),
(1099,-149,cs),
(1099,-47,o),
(1024,45,o),
(857,45,cs),
(740,45,o),
(668,25,o),
(542,-88,cs),
(449,-171,o),
(404,-191,o),
(339,-191,cs),
(258,-191,o),
(225,-142,o),
(225,-82,cs),
(225,-42,o),
(244,-11,o),
(273,7,cs),
(310,30,o),
(351,35,o),
(423,35,cs),
(666,35,ls),
(814,35,o),
(923,48,o),
(1008,106,cs),
(1073,150,o),
(1112,220,o),
(1112,329,cs),
(1112,458,o),
(1024,581,o),
(829,581,cs),
(708,581,o),
(633,529,o),
(585,439,c),
(645,453,l),
(583,527,o),
(519,581,o),
(343,581,cs)
);
}
);
width = 1153;
}
);
unicode = 2972;
},
{
glyphname = nyatamil;
lastChange = "2025-02-12 15:43:28 +0000";
layers = (
{
anchors = (
{
name = Anchor10;
pos = (287,-29);
},
{
name = Anchor12;
pos = (296,-33);
},
{
name = Anchor8;
pos = (287,-29);
}
);
background = {
shapes = (
{
closed = 1;
nodes = (
(695,346,o),
(645,336,o),
(608,315,c),
(619,190,l),
(640,207,o),
(663,216,o),
(688,216,cs),
(746,216,o),
(776,170,o),
(776,102,cs),
(776,-104,o),
(593,-186,o),
(322,-186,cs),
(280,-186,ls),
(-80,-186,o),
(-200,-51,o),
(-200,167,cs),
(-200,183,ls),
(-200,277,o),
(-167,388,o),
(-93,498,c),
(-241,582,l),
(-316,470,o),
(-378,328,o),
(-378,163,cs),
(-378,152,ls),
(-378,-111,o),
(-218,-321,o),
(274,-321,cs),
(343,-321,ls),
(650,-321,o),
(966,-219,o),
(966,99,cs),
(966,252,o),
(884,346,o),
(737,346,cs)
);
},
{
closed = 1;
nodes = (
(311,-12,o),
(383,61,o),
(383,177,cs),
(383,294,o),
(309,355,o),
(197,355,cs),
(110,355,o),
(46,311,o),
(-14,261,c),
(18,162,l),
(55,204,o),
(92,234,o),
(140,234,cs),
(177,234,o),
(202,217,o),
(202,174,cs),
(202,135,o),
(183,114,o),
(145,114,cs),
(93,114,o),
(71,158,o),
(71,226,cs),
(71,314,o),
(102,366,o),
(149,398,cs),
(191,427,o),
(256,439,o),
(347,439,cs),
(436,439,l),
(436,569,l),
(392,569,ls),
(202,569,o),
(96,550,o),
(8,482,cs),
(-58,431,o),
(-101,355,o),
(-101,239,cs),
(-101,79,o),
(-11,-12,o),
(147,-12,cs)
);
},
{
closed = 1;
nodes = (
(643,0,l),
(643,439,l),
(775,439,l),
(775,569,l),
(413,569,l),
(397,439,l),
(453,439,l),
(453,0,l)
);
}
);
};
layerId = "B104C26B-E498-4044-8731-03CD50407EE8";
shapes = (
{
closed = 1;
nodes = (
(155,100,ls),
(155,29,o),
(185,-10,o),
(241,-10,cs),
(241,-10,ls),
(296,-10,o),
(326,29,o),
(326,100,cs),
(326,105,l),
(269,105,o),
(212,105,o),
(155,105,c)
);
},
{
closed = 1;
nodes = (
(306,105,l),
(326,105,l),
(326,154,l),
(306,154,l)
);
},
{
closed = 1;
nodes = (
(230,154,l),
(262,154,o),
(294,154,o),
(326,154,c),
(326,159,ls),
(326,230,o),
(309,269,o),
(278,269,cs),
(278,269,ls),
(247,269,o),
(230,230,o),
(230,159,cs)
);
},
{
closed = 1;
nodes = (
(230,122,l),
(250,122,l),
(250,156,l),
(230,156,l)
);
},
{
closed = 1;
nodes = (
(469,464,l),
(449,464,l),
(449,-34,l),
(469,-34,l)
);
},
{
closed = 1;
nodes = (
(175,464,l),
(155,464,l),
(155,105,l),
(175,105,l)
);
},
{
closed = 1;
nodes = (
(478,464,l),
(589,464,l),
(589,579,l),
(478,579,l)
);
},
{
closed = 1;
nodes = (
(230,154,l),
(278,154,l),
(278,269,l),
(230,269,l)
);
},
{
closed = 1;
nodes = (
(240,-10,l),
(326,-10,l),
(326,105,l),
(240,105,l)
);
},
{
closed = 1;
nodes = (
(631,105,l),
(611,105,l),
(611,-59,l),
(631,-59,l)
);
},
{
closed = 1;
nodes = (
(50,313,l),
(30,313,l),
(30,-59,l),
(50,-59,l)
);
},
{
closed = 1;
nodes = (
(631,105,l),
(449,105,l),
(449,-10,l),
(631,-10,l)
);
},
{
closed = 1;
nodes = (
(155,464,l),
(589,464,l),
(589,469,ls),
(589,540,o),
(550,579,o),
(479,579,cs),
(265,579,ls),
(194,579,o),
(155,540,o),
(155,469,cs)
);
},
{
closed = 1;
nodes = (
(30,-64,ls),
(30,-135,o),
(69,-174,o),
(140,-174,cs),
(521,-174,ls),
(592,-174,o),
(631,-135,o),
(631,-64,cs),
(631,-59,l),
(30,-59,l)
);
}
);
width = 661;
}
);
unicode = 2974;
},
{
glyphname = ttatamil;
lastChange = "2025-02-12 14:06:04 +0000";
layers = (
{
anchors = (
{
name = Anchor10;
pos = (185,-29);
},
{
name = Anchor12;
pos = (185,-78);
},
{
name = Anchor8;
pos = (185,-29);
}
);
background = {
shapes = (
{
closed = 1;
nodes = (
(548,0,l),
(548,130,l),
(63,130,l),
(63,569,l),
(-127,569,l),
(-127,0,l)
);
}
);
};
layerId = "B104C26B-E498-4044-8731-03CD50407EE8";
shapes = (
{
closed = 1;
nodes = (
(30,100,ls),
(30,29,o),
(69,-10,o),
(140,-10,cs),
(305,-10,ls),
(376,-10,o),
(415,29,o),
(415,100,cs),
(415,105,l),
(30,105,l)
);
},
{
closed = 1;
nodes = (
(30,105,l),
(50,105,l),
(50,569,l),
(30,569,l)
);
},
{
closed = 1;
nodes = (
(304,-10,l),
(415,-10,l),
(415,105,l),
(304,105,l)
);
}
);
width = 445;
}
);
unicode = 2975;
},
{
glyphname = nnatamil;
lastChange = "2025-02-12 15:41:02 +0000";
layers = (
{
anchors = (
{
name = Anchor10;
pos = (405,-29);
},
{
name = Anchor12;
pos = (405,-78);
},
{
name = Anchor8;
pos = (405,-29);
}
);
background = {
shapes = (
{
closed = 1;
nodes = (
(-101,-12,o),
(-29,61,o),
(-29,177,cs),
(-29,294,o),
(-103,355,o),
(-215,355,cs),
(-302,355,o),
(-366,311,o),
(-426,261,c),
(-394,162,l),
(-357,204,o),
(-320,234,o),
(-272,234,cs),
(-235,234,o),
(-210,217,o),
(-210,174,cs),
(-210,133,o),
(-230,113,o),
(-263,113,cs),
(-332,113,o),
(-341,187,o),
(-341,230,cs),
(-341,240,o),
(-341,261,o),
(-338,271,c),
(-319,371,o),
(-222,451,o),
(-61,451,cs),
(36,451,o),
(100,433,o),
(156,392,c),
(240,342,o),
(282,272,o),
(282,196,cs),
(282,148,o),
(270,114,o),
(231,114,cs),
(200,114,o),
(180,138,o),
(180,200,cs),
(180,277,o),
(218,343,o),
(278,388,cs),
(331,428,o),
(388,451,o),
(474,451,cs),
(555,451,o),
(611,429,o),
(663,392,cs),
(728,346,o),
(771,276,o),
(771,196,cs),
(771,148,o),
(759,114,o),
(720,114,cs),
(689,114,o),
(669,138,o),
(669,197,cs),
(669,271,o),
(700,336,o),
(769,382,c),
(815,414,o),
(867,439,o),
(993,439,cs),
(1022,439,l),
(1022,0,l),
(1212,0,l),
(1212,439,l),
(1344,439,l),
(1344,569,l),
(1022,569,ls),
(845,569,o),
(763,544,o),
(682,491,c),
(657,468,l),
(570,413,o),
(498,311,o),
(498,202,cs),
(498,66,o),
(576,-12,o),
(725,-12,cs),
(865,-12,o),
(942,52,o),
(942,196,cs),
(942,300,o),
(891,392,o),
(803,460,c),
(776,489,l),
(679,555,o),
(603,581,o),
(474,581,cs),
(354,581,o),
(251,553,o),
(163,486,c),
(135,458,l),
(61,395,o),
(9,311,o),
(9,202,cs),
(9,66,o),
(87,-12,o),
(236,-12,cs),
(376,-12,o),
(453,52,o),
(453,196,cs),
(453,317,o),
(384,402,o),
(279,478,cs),
(255,496,l),
(161,556,o),
(66,581,o),
(-66,581,cs),
(-338,581,o),
(-513,451,o),
(-513,244,cs),
(-513,79,o),
(-423,-12,o),
(-265,-12,cs)
);
}
);
};
layerId = "B104C26B-E498-4044-8731-03CD50407EE8";
shapes = (
{
closed = 1;
nodes = (
(30,100,ls),
(30,29,o),
(60,-10,o),
(116,-10,cs),
(116,-10,ls),
(171,-10,o),
(201,29,o),
(201,100,cs),
(201,105,l),
(30,105,l)
);
},
{
closed = 1;
nodes = (
(30,105,l),
(50,105,l),
(50,465,l),
(30,465,l)
);
},
{
closed = 1;
nodes = (
(276,105,l),
(296,105,l),
(296,569,l),
(276,569,l)
);
},
{
closed = 1;
nodes = (
(276,-10,l),
(441,-10,l),
(441,105,l),
(276,105,l)
);
},
{
closed = 1;
nodes = (
(421,105,l),
(441,105,l),
(441,569,l),
(421,569,l)
);
},
{
closed = 1;
nodes = (
(181,105,l),
(201,105,l),
(201,162,l),
(181,162,l)
);
},
{
closed = 1;
nodes = (
(105,154,l),
(201,154,l),
(201,159,ls),
(201,230,o),
(184,269,o),
(153,269,cs),
(153,269,ls),
(122,269,o),
(105,230,o),
(105,159,cs)
);
},
{
closed = 1;
nodes = (
(105,122,l),
(125,122,l),
(125,162,l),
(105,162,l)
);
},
{
closed = 1;
nodes = (
(116,-10,l),
(201,-10,l),
(201,105,l),
(116,105,l)
);
},
{
closed = 1;
nodes = (
(819,464,l),
(930,464,l),
(930,579,l),
(819,579,l)
);
},
{
closed = 1;
nodes = (
(105,154,l),
(153,154,l),
(153,269,l),
(105,269,l)
);
},
{
closed = 1;
nodes = (
(516,105,l),
(536,105,l),
(536,569,l),
(516,569,l)
);
},
{
closed = 1;
nodes = (
(516,-10,l),
(681,-10,l),
(681,105,l),
(516,105,l)
);
},
{
closed = 1;
nodes = (
(817,-10,l),
(837,-10,l),
(837,569,l),
(817,569,l)
);
},
{
closed = 1;
nodes = (
(661,105,l),
(681,105,l),
(681,509,l),
(661,509,l)
);
},
{
closed = 1;
nodes = (
(30,465,l),
(930,465,l),
(930,470,ls),
(930,541,o),
(891,580,o),
(820,580,cs),
(140,580,ls),
(69,580,o),
(30,541,o),
(30,470,cs)
);
}
);
width = 960;
}
);
unicode = 2979;
},
{
glyphname = tatamil;
lastChange = "2025-02-12 10:32:51 +0000";
layers = (
{
anchors = (
{
name = Anchor10;
pos = (277,-29);
},
{
name = Anchor12;
pos = (277,-217);
},
{
name = Anchor8;
pos = (277,-29);
}
);
background = {
shapes = (
{
closed = 1;
nodes = (
(216,-12,o),
(290,8,o),
(341,55,cs),
(387,98,o),
(411,162,o),
(411,252,cs),
(411,439,l),
(600,439,l),
(600,569,l),
(-79,569,l),
(-79,286,l),
(92,302,l),
(92,439,l),
(226,439,l),
(226,239,ls),
(226,143,o),
(181,118,o),
(107,118,cs),
(45,118,o),
(9,133,o),
(9,176,cs),
(9,196,o),
(19,211,o),
(39,221,cs),
(61,231,o),
(88,234,o),
(145,234,cs),
(368,234,ls),
(471,234,o),
(545,204,o),
(545,108,cs),
(545,60,o),
(529,26,o),
(502,2,cs),
(449,-44,o),
(353,-50,o),
(233,-50,cs),
(95,-50,ls),
(-13,-50,o),
(-59,-62,o),
(-103,-91,cs),
(-147,-120,o),
(-175,-169,o),
(-175,-230,cs),
(-175,-262,o),
(-173,-291,o),
(-169,-322,c),
(18,-312,l),
(16,-299,o),
(15,-286,o),
(15,-269,cs),
(15,-235,o),
(26,-214,o),
(45,-200,cs),
(68,-184,o),
(95,-180,o),
(156,-180,cs),
(271,-180,ls),
(421,-180,o),
(532,-164,o),
(613,-117,cs),
(684,-75,o),
(730,-10,o),
(730,96,cs),
(730,290,o),
(589,355,o),
(365,355,cs),
(171,355,ls),
(-82,355,o),
(-175,280,o),
(-175,168,cs),
(-175,50,o),
(-76,-12,o),
(105,-12,cs)
);
}
);
};
layerId = "B104C26B-E498-4044-8731-03CD50407EE8";
shapes = (
{
closed = 1;
nodes = (
(167,464,l),
(535,464,l),
(535,469,ls),
(535,540,o),
(496,579,o),
(425,579,cs),
(277,579,ls),
(206,579,o),
(167,540,o),
(167,469,cs)
);
},
{
closed = 1;
nodes = (
(167,315,l),
(187,315,l),
(187,464,l),
(167,464,l)
);
},
{
closed = 1;
nodes = (
(395,-10,l),
(415,-10,l),
(415,464,l),
(395,464,l)
);
},
{
closed = 1;
nodes = (
(571,159,ls),
(571,230,o),
(532,269,o),
(461,269,cs),
(140,269,ls),
(69,269,o),
(30,230,o),
(30,159,cs),
(30,154,l),
(571,154,l)
);
},
{
closed = 1;
nodes = (
(409,105,l),
(30,105,l),
(30,-10,l),
(409,-10,l)
);
},
{
closed = 1;
nodes = (
(50,160,l),
(30,160,l),
(30,105,l),
(50,105,l)
);
},
{
closed = 1;
nodes = (
(577,-59,l),
(179,-59,l),
(179,-64,ls),
(179,-135,o),
(219,-174,o),
(291,-174,cs),
(465,-174,ls),
(537,-174,o),
(577,-135,o),
(577,-64,cs)
);
},
{
closed = 1;
nodes = (
(557,-59,l),
(577,-59,l),
(577,269,l),
(557,269,l)
);
},
{
closed = 1;
nodes = (
(199,-174,l),
(179,-174,l),
(179,-279,l),
(199,-279,l)
);
},
{
closed = 1;
nodes = (
(424,464,l),
(535,464,l),
(535,579,l),
(424,579,l)
);
},
{
closed = 1;
nodes = (
(466,154,l),
(577,154,l),
(577,269,l),
(466,269,l)
);
},
{
closed = 1;
nodes = (
(179,-174,l),
(290,-174,l),
(290,-59,l),
(179,-59,l)
);
}
);
width = 607;
}
);
unicode = 2980;
},
{
glyphname = natamil;
lastChange = "2025-02-12 15:44:08 +0000";
layers = (
{
anchors = (
{
name = Anchor10;
pos = (287,-29);
},
{
name = Anchor12;
pos = (287,-217);
},
{
name = Anchor8;
pos = (287,-29);
}
);
background = {
shapes = (
{
closed = 1;
nodes = (
(439,370,o),
(395,356,o),
(352,333,c),
(367,210,l),
(387,226,o),
(419,240,o),
(449,240,cs),
(505,240,o),
(535,200,o),
(535,123,cs),
(535,64,o),
(522,27,o),
(496,1,cs),
(458,-37,o),
(404,-50,o),
(282,-50,cs),
(119,-50,ls),
(11,-50,o),
(-35,-62,o),
(-79,-91,cs),
(-123,-120,o),
(-151,-169,o),
(-151,-231,cs),
(-151,-262,o),
(-149,-291,o),
(-145,-322,c),
(42,-312,l),
(40,-299,o),
(39,-286,o),
(39,-269,cs),
(39,-235,o),
(50,-214,o),
(69,-200,cs),
(92,-184,o),
(119,-180,o),
(180,-180,cs),
(313,-180,ls),
(444,-180,o),
(533,-164,o),
(606,-115,cs),
(676,-68,o),
(721,8,o),
(721,130,cs),
(721,269,o),
(651,370,o),
(503,370,cs)
);
},
{
closed = 1;
nodes = (
(77,0,l),
(77,439,l),
(201,439,l),
(201,0,l),
(391,0,l),
(391,439,l),
(523,439,l),
(523,569,l),
(-113,569,l),
(-113,0,l)
);
}
);
};
layerId = "B104C26B-E498-4044-8731-03CD50407EE8";
shapes = (
{
closed = 1;
nodes = (
(30,464,l),
(398,464,l),
(398,469,ls),
(398,540,o),
(359,579,o),
(288,579,cs),
(140,579,ls),
(69,579,o),
(30,540,o),
(30,469,cs)
);
},
{
closed = 1;
nodes = (
(30,315,l),
(50,315,l),
(50,464,l),
(30,464,l)
);
},
{
closed = 1;
nodes = (
(258,-34,l),
(278,-34,l),
(278,464,l),
(258,464,l)
);
},
{
closed = 1;
nodes = (
(440,-59,l),
(42,-59,l),
(42,-64,ls),
(42,-135,o),
(82,-174,o),
(154,-174,cs),
(328,-174,ls),
(400,-174,o),
(440,-135,o),
(440,-64,cs)
);
},
{
closed = 1;
nodes = (
(420,-59,l),
(440,-59,l),
(440,105,l),
(420,105,l)
);
},
{
closed = 1;
nodes = (
(62,-174,l),
(42,-174,l),
(42,-279,l),
(62,-279,l)
);
},
{
closed = 1;
nodes = (
(287,464,l),
(398,464,l),
(398,579,l),
(287,579,l)
);
},
{
closed = 1;
nodes = (
(258,-10,l),
(440,-10,l),
(440,105,l),
(258,105,l)
);
},
{
closed = 1;
nodes = (
(42,-174,l),
(153,-174,l),
(153,-59,l),
(42,-59,l)
);
}
);
width = 470;
}
);
unicode = 2984;
},
{
glyphname = nnnatamil;
lastChange = "2025-02-12 13:51:45 +0000";
layers = (
{
anchors = (
{
name = Anchor10;
pos = (363,-29);
},
{
name = Anchor12;
pos = (363,-78);
},
{
name = Anchor8;
pos = (363,-29);
}
);
background = {
shapes = (
{
closed = 1;
nodes = (
(101,-12,o),
(173,61,o),
(173,177,cs),
(173,294,o),
(99,355,o),
(-13,355,cs),
(-100,355,o),
(-164,311,o),
(-224,261,c),
(-192,162,l),
(-155,204,o),
(-118,234,o),
(-70,234,cs),
(-33,234,o),
(-8,217,o),
(-8,174,cs),
(-8,135,o),
(-27,114,o),
(-65,114,cs),
(-117,114,o),
(-139,158,o),
(-139,230,cs),
(-139,244,o),
(-138,259,o),
(-136,271,cs),
(-117,371,o),
(-20,451,o),
(141,451,cs),
(238,451,o),
(302,433,o),
(358,392,c),
(442,342,o),
(484,272,o),
(484,196,cs),
(484,148,o),
(472,114,o),
(433,114,cs),
(402,114,o),
(382,138,o),
(382,197,cs),
(382,271,o),
(413,336,o),
(482,382,c),
(528,414,o),
(580,439,o),
(706,439,cs),
(735,439,l),
(735,0,l),
(925,0,l),
(925,439,l),
(1057,439,l),
(1057,569,l),
(735,569,ls),
(558,569,o),
(476,544,o),
(395,491,c),
(370,468,l),
(283,413,o),
(211,311,o),
(211,202,cs),
(211,66,o),
(289,-12,o),
(438,-12,cs),
(578,-12,o),
(655,52,o),
(655,196,cs),
(655,317,o),
(586,402,o),
(481,478,cs),
(457,496,l),
(363,556,o),
(268,581,o),
(136,581,cs),
(-136,581,o),
(-311,451,o),
(-311,244,cs),
(-311,79,o),
(-221,-12,o),
(-63,-12,cs)
);
}
);
};
layerId = "B104C26B-E498-4044-8731-03CD50407EE8";
shapes = (
{
closed = 1;
nodes = (
(30,100,ls),
(30,29,o),
(60,-10,o),
(116,-10,cs),
(116,-10,ls),
(171,-10,o),
(201,29,o),
(201,100,cs),
(201,105,l),
(30,105,l)
);
},
{
closed = 1;
nodes = (
(30,105,l),
(50,105,l),
(50,465,l),
(30,465,l)
);
},
{
closed = 1;
nodes = (
(276,105,l),
(296,105,l),
(296,569,l),
(276,569,l)
);
},
{
closed = 1;
nodes = (
(30,464,l),
(690,464,l),
(690,469,ls),
(690,540,o),
(651,579,o),
(580,579,cs),
(140,579,ls),
(69,579,o),
(30,540,o),
(30,469,cs)
);
},
{
closed = 1;
nodes = (
(577,-10,l),
(597,-10,l),
(597,569,l),
(577,569,l)
);
},
{
closed = 1;
nodes = (
(276,-10,l),
(441,-10,l),
(441,105,l),
(276,105,l)
);
},
{
closed = 1;
nodes = (
(421,105,l),
(441,105,l),
(441,569,l),
(421,569,l)
);
},
{
closed = 1;
nodes = (
(181,105,l),
(201,105,l),
(201,162,l),
(181,162,l)
);
},
{
closed = 1;
nodes = (
(105,154,l),
(201,154,l),
(201,159,ls),
(201,230,o),
(184,269,o),
(153,269,cs),
(153,269,ls),
(122,269,o),
(105,230,o),
(105,159,cs)
);
},
{
closed = 1;
nodes = (
(105,122,l),
(125,122,l),
(125,162,l),
(105,162,l)
);
},
{
closed = 1;
nodes = (
(116,-10,l),
(201,-10,l),
(201,105,l),
(116,105,l)
);
},
{
closed = 1;
nodes = (
(579,464,l),
(690,464,l),
(690,579,l),
(579,579,l)
);
},
{
closed = 1;
nodes = (
(105,154,l),
(153,154,l),
(153,269,l),
(105,269,l)
);
}
);
width = 720;
}
);
unicode = 2985;
},
{
glyphname = patamil;
lastChange = "2025-02-12 14:06:51 +0000";
layers = (
{
anchors = (
{
name = Anchor10;
pos = (228,-29);
},
{
name = Anchor12;
pos = (228,-78);
},
{
name = Anchor8;
pos = (228,-29);
}
);
background = {
shapes = (
{
closed = 1;
nodes = (
(588,0,l),
(588,569,l),
(398,569,l),
(398,130,l),
(59,130,l),
(59,569,l),
(-131,569,l),
(-131,0,l)
);
}
);
};
layerId = "B104C26B-E498-4044-8731-03CD50407EE8";
shapes = (
{
closed = 1;
nodes = (
(30,100,ls),
(30,29,o),
(69,-10,o),
(140,-10,cs),
(305,-10,ls),
(376,-10,o),
(415,29,o),
(415,100,cs),
(415,105,l),
(30,105,l)
);
},
{
closed = 1;
nodes = (
(30,105,l),
(50,105,l),
(50,569,l),
(30,569,l)
);
},
{
closed = 1;
nodes = (
(395,105,l),
(415,105,l),
(415,569,l),
(395,569,l)
);
},
{
closed = 1;
nodes = (
(304,-10,l),
(415,-10,l),
(415,105,l),
(304,105,l)
);
}
);
width = 445;
}
);
unicode = 2986;
},
{
glyphname = matamil;
lastChange = "2025-02-12 10:20:22 +0000";
layers = (
{
anchors = (
{
name = Anchor10;
pos = (281,-29);
},
{
name = Anchor12;
pos = (281,-78);
},
{
name = Anchor8;
pos = (281,-29);
}
);
background = {
shapes = (
{
closed = 1;
nodes = (
(373,581,o),
(312,563,o),
(272,528,cs),
(230,492,o),
(207,442,o),
(207,351,cs),
(207,130,l),
(55,130,l),
(55,569,l),
(-135,569,l),
(-135,0,l),
(386,0,ls),
(514,0,o),
(584,15,o),
(639,57,cs),
(694,98,o),
(727,166,o),
(727,275,cs),
(727,445,o),
(642,581,o),
(438,581,cs)
);
},
{
closed = 1;
nodes = (
(514,451,o),
(539,385,o),
(539,276,cs),
(539,166,o),
(500,130,o),
(413,130,cs),
(397,130,l),
(397,356,ls),
(397,402,o),
(400,418,o),
(414,434,cs),
(423,445,o),
(438,451,o),
(454,451,cs)
);
}
);
};
layerId = "B104C26B-E498-4044-8731-03CD50407EE8";
shapes = (
{
closed = 1;
nodes = (
(30,100,ls),
(30,29,o),
(69,-10,o),
(140,-10,cs),
(456,-10,ls),
(527,-10,o),
(566,29,o),
(566,100,cs),
(566,105,l),
(30,105,l)
);
},
{
closed = 1;
nodes = (
(566,569,l),
(546,569,l),
(546,105,l),
(566,105,l)
);
},
{
closed = 1;
nodes = (
(344,464,l),
(324,464,l),
(324,105,l),
(344,105,l)
);
},
{
closed = 1;
nodes = (
(50,569,l),
(30,569,l),
(30,105,l),
(50,105,l)
);
},
{
closed = 1;
nodes = (
(324,464,l),
(566,464,l),
(566,469,ls),
(566,540,o),
(527,579,o),
(456,579,cs),
(434,579,ls),
(363,579,o),
(324,540,o),
(324,469,cs)
);
},
{
closed = 1;
nodes = (
(455,464,l),
(566,464,l),
(566,579,l),
(455,579,l)
);
},
{
closed = 1;
nodes = (
(30,-10,l),
(141,-10,l),
(141,105,l),
(30,105,l)
);
}
);
width = 596;
}
);
unicode = 2990;
},
{
glyphname = yatamil;
lastChange = "2025-02-12 14:03:29 +0000";
layers = (
{
anchors = (
{
name = Anchor10;
pos = (302,-29);
},
{
name = Anchor12;
pos = (302,-78);
},
{
name = Anchor8;
pos = (302,-29);
}
);
background = {
shapes = (
{
closed = 1;
nodes = (
(770,0,l),
(770,569,l),
(580,569,l),
(580,130,l),
(334,130,l),
(334,569,l),
(144,569,l),
(144,0,l)
);
},
{
closed = 1;
nodes = (
(99,-12,o),
(137,12,o),
(173,49,c),
(169,176,l),
(150,143,o),
(128,117,o),
(86,117,cs),
(66,117,o),
(52,122,o),
(42,132,cs),
(25,149,o),
(22,179,o),
(22,229,cs),
(22,569,l),
(-168,569,l),
(-168,225,ls),
(-168,129,o),
(-148,73,o),
(-110,36,cs),
(-76,4,o),
(-31,-12,o),
(24,-12,cs)
);
}
);
};
layerId = "B104C26B-E498-4044-8731-03CD50407EE8";
shapes = (
{
closed = 1;
nodes = (
(30,100,ls),
(30,29,o),
(69,-10,o),
(140,-10,cs),
(468,-10,ls),
(539,-10,o),
(578,29,o),
(578,100,cs),
(578,105,l),
(30,105,l)
);
},
{
closed = 1;
nodes = (
(30,105,l),
(50,105,l),
(50,569,l),
(30,569,l)
);
},
{
closed = 1;
nodes = (
(276,105,l),
(296,105,l),
(296,569,l),
(276,569,l)
);
},
{
closed = 1;
nodes = (
(566,105,l),
(586,105,l),
(586,569,l),
(566,569,l)
);
},
{
closed = 1;
nodes = (
(467,-10,l),
(586,-10,l),
(586,105,l),
(467,105,l)
);
}
);
width = 608;
}
);
unicode = 2991;
},
{
glyphname = ratamil;
lastChange = "2025-02-12 10:02:40 +0000";
layers = (
{
anchors = (
{
name = Anchor10;
pos = (211,-29);
},
{
name = Anchor12;
pos = (204,-225);
},
{
name = Anchor8;
pos = (211,-29);
}
);
background = {
shapes = (
{
closed = 1;
nodes = (
(427,0,l),
(427,439,l),
(559,439,l),
(559,569,l),
(-85,569,l),
(-85,0,l),
(105,0,l),
(105,439,l),
(237,439,l),
(237,39,l),
(84,-104,l),
(203,-214,l)
);
}
);
};
layerId = "B104C26B-E498-4044-8731-03CD50407EE8";
shapes = (
{
closed = 1;
nodes = (
(30,464,l),
(398,464,l),
(398,469,ls),
(398,540,o),
(359,579,o),
(288,579,cs),
(140,579,ls),
(69,579,o),
(30,540,o),
(30,469,cs)
);
},
{
closed = 1;
nodes = (
(30,315,l),
(50,315,l),
(50,464,l),
(30,464,l)
);
},
{
closed = 1;
nodes = (
(258,-10,l),
(278,-10,l),
(278,464,l),
(258,464,l)
);
},
{
closed = 1;
nodes = (
(54,-15,ls),
(54,-86,o),
(93,-125,o),
(164,-125,cs),
(168,-125,ls),
(239,-125,o),
(278,-86,o),
(278,-15,cs),
(278,-10,l),
(54,-10,l)
);
},
{
closed = 1;
nodes = (
(54,-212,l),
(74,-212,l),
(74,-105,l),
(54,-105,l)
);
},
{
closed = 1;
nodes = (
(496,0,l),
(504,0,l)
);
},
{
closed = 1;
nodes = (
(301,569,l),
(309,569,l)
);
},
{
closed = 1;
nodes = (
(287,464,l),
(398,464,l),
(398,579,l),
(287,579,l)
);
},
{
closed = 1;
nodes = (
(54,-125,l),
(165,-125,l),
(165,-10,l),
(54,-10,l)
);
}
);
width = 428;
}
);
unicode = 2992;
},
{
glyphname = rratamil;
lastChange = "2025-02-12 10:40:35 +0000";
layers = (
{
anchors = (
{
name = Anchor10;
pos = (370,-29);
},
{
name = Anchor12;
pos = (371,-217);
},
{
name = Anchor8;
pos = (370,-29);
}
);
background = {
shapes = (
{
closed = 1;
nodes = (
(431,581,o),
(363,530,o),
(306,442,c),
(369,440,l),
(321,527,o),
(270,581,o),
(159,581,cs),
(95,581,o),
(45,565,o),
(7,536,cs),
(-48,494,o),
(-80,429,o),
(-80,310,cs),
(-80,0,l),
(110,0,l),
(110,304,ls),
(110,366,o),
(112,407,o),
(133,432,cs),
(143,444,o),
(158,451,o),
(178,451,cs),
(198,451,o),
(211,443,o),
(221,431,cs),
(239,408,o),
(241,372,o),
(241,297,cs),
(241,0,l),
(431,0,l),
(431,298,ls),
(431,364,o),
(439,403,o),
(467,429,cs),
(482,443,o),
(502,451,o),
(531,451,cs),
(607,451,o),
(653,379,o),
(653,236,cs),
(653,0,o),
(558,-50,o),
(334,-50,cs),
(152,-50,ls),
(44,-50,o),
(-2,-62,o),
(-46,-91,cs),
(-90,-120,o),
(-118,-169,o),
(-118,-231,cs),
(-118,-262,o),
(-116,-291,o),
(-112,-322,c),
(75,-312,l),
(73,-299,o),
(72,-286,o),
(72,-269,cs),
(72,-235,o),
(83,-214,o),
(102,-200,cs),
(125,-184,o),
(152,-180,o),
(213,-180,cs),
(347,-180,ls),
(527,-180,o),
(632,-158,o),
(717,-89,cs),
(793,-28,o),
(843,73,o),
(843,239,cs),
(843,456,o),
(737,581,o),
(547,581,cs)
);
}
);
};
layerId = "B104C26B-E498-4044-8731-03CD50407EE8";
shapes = (
{
closed = 1;
nodes = (
(578,469,ls),
(578,540,o),
(539,579,o),
(468,579,cs),
(140,579,ls),
(69,579,o),
(30,540,o),
(30,469,cs),
(30,464,l),
(578,464,l)
);
},
{
closed = 1;
nodes = (
(285,464,l),
(265,464,l),
(265,252,l),
(285,252,l)
);
},
{
closed = 1;
nodes = (
(578,464,l),
(558,464,l),
(558,-56,l),
(578,-56,l)
);
},
{
closed = 1;
nodes = (
(30,315,l),
(50,315,l),
(50,464,l),
(30,464,l)
);
},
{
closed = 1;
nodes = (
(578,-56,l),
(180,-56,l),
(180,-61,ls),
(180,-132,o),
(220,-171,o),
(292,-171,cs),
(466,-171,ls),
(538,-171,o),
(578,-132,o),
(578,-61,cs)
);
},
{
closed = 1;
nodes = (
(200,-56,l),
(180,-56,l),
(180,-276,l),
(200,-276,l)
);
},
{
closed = 1;
nodes = (
(467,464,l),
(578,464,l),
(578,579,l),
(467,579,l)
);
},
{
closed = 1;
nodes = (
(180,-171,l),
(291,-171,l),
(291,-56,l),
(180,-56,l)
);
}
);
width = 608;
}
);
unicode = 2993;
},
{
glyphname = latamil;
lastChange = "2025-02-12 15:49:00 +0000";
layers = (
{
anchors = (
{
name = Anchor10;
pos = (425,-29);
},
{
name = Anchor12;
pos = (425,-78);
},
{
name = Anchor8;
pos = (425,-29);
}
);
background = {
shapes = (
{
closed = 1;
nodes = (
(284,-12,o),
(356,61,o),
(356,177,cs),
(356,295,o),
(282,355,o),
(170,355,cs),
(83,355,o),
(19,311,o),
(-41,261,c),
(-9,162,l),
(28,204,o),
(65,234,o),
(112,234,cs),
(150,234,o),
(175,217,o),
(175,174,cs),
(175,135,o),
(156,114,o),
(117,114,cs),
(65,114,o),
(43,157,o),
(43,235,cs),
(43,370,o),
(134,451,o),
(254,451,cs),
(316,451,o),
(352,433,o),
(376,402,cs),
(409,359,o),
(415,295,o),
(421,229,cs),
(430,133,o),
(461,68,o),
(518,30,cs),
(561,2,o),
(614,-12,o),
(696,-12,cs),
(889,-12,o),
(974,112,o),
(974,266,cs),
(974,388,o),
(936,501,o),
(839,615,c),
(682,526,l),
(752,440,o),
(784,345,o),
(784,253,cs),
(784,150,o),
(755,118,o),
(700,118,cs),
(674,118,o),
(653,126,o),
(639,141,cs),
(621,160,o),
(613,184,o),
(611,233,cs),
(605,377,o),
(573,462,o),
(502,518,cs),
(447,561,o),
(377,581,o),
(268,581,cs),
(49,581,o),
(-128,469,o),
(-128,247,cs),
(-128,79,o),
(-38,-12,o),
(119,-12,cs)
);
}
);
};
layerId = "B104C26B-E498-4044-8731-03CD50407EE8";
shapes = (
{
closed = 1;
nodes = (
(30,100,ls),
(30,29,o),
(60,-10,o),
(116,-10,cs),
(116,-10,ls),
(171,-10,o),
(201,29,o),
(201,100,cs),
(201,105,l),
(30,105,l)
);
},
{
closed = 1;
nodes = (
(181,105,l),
(201,105,l),
(201,154,l),
(181,154,l)
);
},
{
closed = 1;
nodes = (
(105,154,l),
(201,154,l),
(201,159,ls),
(201,230,o),
(184,269,o),
(153,269,cs),
(153,269,ls),
(122,269,o),
(105,230,o),
(105,159,cs)
);
},
{
closed = 1;
nodes = (
(105,122,l),
(125,122,l),
(125,156,l),
(105,156,l)
);
},
{
closed = 1;
nodes = (
(344,464,l),
(324,464,l),
(324,-10,l),
(344,-10,l)
);
},
{
closed = 1;
nodes = (
(50,464,l),
(30,464,l),
(30,105,l),
(50,105,l)
);
},
{
closed = 1;
nodes = (
(30,464,l),
(344,464,l),
(344,469,ls),
(344,540,o),
(305,579,o),
(234,579,cs),
(140,579,ls),
(69,579,o),
(30,540,o),
(30,469,cs)
);
},
{
closed = 1;
nodes = (
(105,154,l),
(153,154,l),
(153,269,l),
(105,269,l)
);
},
{
closed = 1;
nodes = (
(233,464,l),
(344,464,l),
(344,579,l),
(233,579,l)
);
},
{
closed = 1;
nodes = (
(105,154,l),
(153,154,l),
(153,269,l),
(105,269,l)
);
},
{
closed = 1;
nodes = (
(105,154,l),
(153,154,l),
(153,269,l),
(105,269,l)
);
},
{
closed = 1;
nodes = (
(115,-10,l),
(201,-10,l),
(201,105,l),
(115,105,l)
);
},
{
closed = 1;
nodes = (
(638,579,l),
(618,579,l),
(618,99,l),
(638,99,l)
);
},
{
closed = 1;
nodes = (
(324,100,ls),
(324,29,o),
(363,-10,o),
(434,-10,cs),
(528,-10,ls),
(599,-10,o),
(638,29,o),
(638,100,cs),
(638,105,l),
(324,105,l)
);
},
{
closed = 1;
nodes = (
(324,-10,l),
(440,-10,l),
(440,105,l),
(324,105,l)
);
},
{
closed = 1;
nodes = (
(618,579,l),
(594,579,l),
(594,464,l),
(618,464,l)
);
}
);
width = 668;
}
);
unicode = 2994;
},
{
glyphname = llatamil;
lastChange = "2025-02-12 17:50:38 +0000";
layers = (
{
anchors = (
{
name = Anchor10;
pos = (411,-29);
},
{
name = Anchor12;
pos = (411,-78);
},
{
name = Anchor8;
pos = (411,-29);
}
);
background = {
shapes = (
{
closed = 1;
nodes = (
(238,-12,o),
(310,61,o),
(310,177,cs),
(310,296,o),
(236,355,o),
(124,355,cs),
(37,355,o),
(-27,311,o),
(-87,261,c),
(-55,162,l),
(-18,204,o),
(19,234,o),
(67,234,cs),
(104,234,o),
(129,217,o),
(129,174,cs),
(129,135,o),
(110,114,o),
(72,114,cs),
(20,114,o),
(-2,157,o),
(-2,235,cs),
(-2,372,o),
(77,451,o),
(194,451,cs),
(292,451,o),
(352,403,o),
(403,340,c),
(485,466,l),
(388,545,o),
(309,581,o),
(189,581,cs),
(1,581,o),
(-174,469,o),
(-174,248,cs),
(-174,79,o),
(-84,-12,o),
(74,-12,cs)
);
},
{
closed = 1;
nodes = (
(570,0,l),
(570,439,l),
(694,439,l),
(694,0,l),
(884,0,l),
(884,439,l),
(1016,439,l),
(1016,569,l),
(402,569,l),
(401,469,l),
(380,478,l),
(380,0,l)
);
}
);
};
layerId = "B104C26B-E498-4044-8731-03CD50407EE8";
shapes = (
{
closed = 1;
nodes = (
(585,464,l),
(565,464,l),
(565,-10,l),
(585,-10,l)
);
},
{
closed = 1;
nodes = (
(351,464,l),
(331,464,l),
(331,-10,l),
(351,-10,l)
);
},
{
closed = 1;
nodes = (
(50,464,l),
(30,464,l),
(30,105,l),
(50,105,l)
);
},
{
closed = 1;
nodes = (
(30,100,ls),
(30,29,o),
(60,-10,o),
(116,-10,cs),
(116,-10,ls),
(171,-10,o),
(201,29,o),
(201,100,cs),
(201,105,l),
(30,105,l)
);
},
{
closed = 1;
nodes = (
(181,105,l),
(201,105,l),
(201,160,l),
(181,160,l)
);
},
{
closed = 1;
nodes = (
(105,154,l),
(201,154,l),
(201,159,ls),
(201,230,o),
(184,269,o),
(153,269,cs),
(153,269,ls),
(122,269,o),
(105,230,o),
(105,159,cs)
);
},
{
closed = 1;
nodes = (
(105,122,l),
(125,122,l),
(125,167,l),
(105,167,l)
);
},
{
closed = 1;
nodes = (
(30,464,l),
(696,464,l),
(696,469,ls),
(696,540,o),
(656,579,o),
(584,579,cs),
(142,579,ls),
(70,579,o),
(30,540,o),
(30,469,cs)
);
},
{
closed = 1;
nodes = (
(116,-10,l),
(201,-10,l),
(201,105,l),
(116,105,l)
);
},
{
closed = 1;
nodes = (
(585,464,l),
(696,464,l),
(696,579,l),
(585,579,l)
);
},
{
closed = 1;
nodes = (
(105,154,l),
(153,154,l),
(153,269,l),
(105,269,l)
);
}
);
width = 714;
}
);
unicode = 2995;
},
{
glyphname = lllatamil;
lastChange = "2025-02-12 16:39:45 +0000";
layers = (
{
anchors = (
{
name = Anchor10;
pos = (484,-29);
},
{
name = Anchor12;
pos = (759,-231);
},
{
name = Anchor8;
pos = (484,-29);
}
);
background = {
shapes = (
{
closed = 1;
nodes = (
(576,581,o),
(515,563,o),
(475,528,cs),
(433,492,o),
(410,442,o),
(410,351,cs),
(410,130,l),
(258,130,l),
(258,569,l),
(68,569,l),
(68,0,l),
(589,0,ls),
(717,0,o),
(787,15,o),
(842,57,cs),
(897,98,o),
(930,166,o),
(930,275,cs),
(930,445,o),
(845,581,o),
(641,581,cs)
);
},
{
closed = 1;
nodes = (
(717,451,o),
(742,385,o),
(742,276,cs),
(742,166,o),
(703,130,o),
(616,130,cs),
(600,130,l),
(600,356,ls),
(600,402,o),
(603,418,o),
(617,434,cs),
(626,445,o),
(641,451,o),
(657,451,cs)
);
},
{
closed = 1;
nodes = (
(100,-27,o),
(37,-86,o),
(37,-165,cs),
(37,-216,o),
(57,-251,o),
(90,-275,cs),
(138,-310,o),
(203,-321,o),
(296,-321,cs),
(311,-321,ls),
(470,-321,o),
(572,-280,o),
(631,-161,cs),
(642,-139,o),
(668,-125,o),
(725,-113,c),
(631,-88,l),
(521,-88,o),
(473,-101,o),
(459,-119,c),
(433,-167,o),
(387,-194,o),
(298,-194,cs),
(283,-194,ls),
(230,-194,o),
(217,-185,o),
(217,-168,cs),
(217,-155,o),
(227,-146,o),
(264,-146,cs),
(280,-146,o),
(303,-147,o),
(315,-149,c),
(326,-36,l),
(300,-30,o),
(262,-27,o),
(232,-27,cs)
);
},
{
closed = 1;
nodes = (
(804,-195,l),
(804,-67,l),
(695,-67,ls),
(654,-67,o),
(632,-63,o),
(614,-46,cs),
(603,-35,o),
(595,-20,o),
(595,3,c),
(411,2,l),
(415,-114,o),
(484,-164,o),
(568,-182,c),
(581,-195,l)
);
}
);
};
layerId = "B104C26B-E498-4044-8731-03CD50407EE8";
shapes = (
{
closed = 1;
nodes = (
(30,100,ls),
(30,29,o),
(69,-10,o),
(140,-10,cs),
(456,-10,ls),
(527,-10,o),
(566,29,o),
(566,100,cs),
(566,105,l),
(30,105,l)
);
},
{
closed = 1;
nodes = (
(566,569,l),
(546,569,l),
(546,105,l),
(566,105,l)
);
},
{
closed = 1;
nodes = (
(344,464,l),
(324,464,l),
(324,-198,l),
(344,-198,l)
);
},
{
closed = 1;
nodes = (
(50,569,l),
(30,569,l),
(30,105,l),
(50,105,l)
);
},
{
closed = 1;
nodes = (
(324,464,l),
(566,464,l),
(566,469,ls),
(566,540,o),
(527,579,o),
(456,579,cs),
(434,579,ls),
(363,579,o),
(324,540,o),
(324,469,cs)
);
},
{
closed = 1;
nodes = (
(455,464,l),
(566,464,l),
(566,579,l),
(455,579,l)
);
},
{
closed = 1;
nodes = (
(30,-10,l),
(141,-10,l),
(141,105,l),
(30,105,l)
);
},
{
closed = 1;
nodes = (
(420,-174,l),
(400,-174,l),
(400,-229,l),
(420,-229,l)
);
},
{
closed = 1;
nodes = (
(269,-191,l),
(249,-191,l),
(249,-223,l),
(269,-223,l)
);
},
{
closed = 1;
nodes = (
(420,-223,l),
(249,-223,l),
(249,-338,l),
(420,-338,l)
);
},
{
closed = 1;
nodes = (
(420,-59,l),
(324,-59,l),
(324,-174,l),
(420,-174,l)
);
}
);
width = 596;
}
);
unicode = 2996;
},
{
glyphname = vatamil;
lastChange = "2025-02-12 13:47:06 +0000";
layers = (
{
anchors = (
{
name = Anchor10;
pos = (-45,-29);
},
{
name = Anchor12;
pos = (-45,-78);
},
{
name = Anchor8;
pos = (-45,-29);
}
);
background = {
shapes = (
{
closed = 1;
nodes = (
(-193,-12,o),
(-121,61,o),
(-121,177,cs),
(-121,293,o),
(-192,355,o),
(-307,355,cs),
(-394,355,o),
(-458,311,o),
(-518,261,c),
(-486,162,l),
(-449,204,o),
(-412,234,o),
(-364,234,cs),
(-327,234,o),
(-302,217,o),
(-302,174,cs),
(-302,135,o),
(-321,114,o),
(-359,114,cs),
(-411,114,o),
(-433,157,o),
(-433,235,cs),
(-433,369,o),
(-357,451,o),
(-227,451,cs),
(-114,451,o),
(-41,381,o),
(-41,259,cs),
(-41,198,o),
(-53,142,o),
(-78,99,c),
(-72,0,l),
(484,0,l),
(484,569,l),
(294,569,l),
(294,130,l),
(120,130,l),
(141,175,o),
(149,236,o),
(149,283,cs),
(149,446,o),
(44,581,o),
(-213,581,cs),
(-438,581,o),
(-605,469,o),
(-605,245,cs),
(-605,79,o),
(-515,-12,o),
(-357,-12,cs)
);
}
);
};
layerId = "B104C26B-E498-4044-8731-03CD50407EE8";
shapes = (
{
closed = 1;
nodes = (
(30,100,ls),
(30,29,o),
(60,-10,o),
(116,-10,cs),
(116,-10,ls),
(171,-10,o),
(201,29,o),
(201,100,cs),
(201,105,l),
(30,105,l)
);
},
{
closed = 1;
nodes = (
(181,105,l),
(201,105,l),
(201,154,l),
(181,154,l)
);
},
{
closed = 1;
nodes = (
(105,154,l),
(201,154,l),
(201,159,ls),
(201,230,o),
(184,269,o),
(153,269,cs),
(153,269,ls),
(122,269,o),
(105,230,o),
(105,159,cs)
);
},
{
closed = 1;
nodes = (
(105,122,l),
(125,122,l),
(125,156,l),
(105,156,l)
);
},
{
closed = 1;
nodes = (
(578,569,l),
(558,569,l),
(558,105,l),
(578,105,l)
);
},
{
closed = 1;
nodes = (
(344,464,l),
(324,464,l),
(324,105,l),
(344,105,l)
);
},
{
closed = 1;
nodes = (
(50,464,l),
(30,464,l),
(30,105,l),
(50,105,l)
);
},
{
closed = 1;
nodes = (
(30,464,l),
(344,464,l),
(344,469,ls),
(344,540,o),
(305,579,o),
(234,579,cs),
(140,579,ls),
(69,579,o),
(30,540,o),
(30,469,cs)
);
},
{
closed = 1;
nodes = (
(294,-10,l),
(578,-10,l),
(578,105,l),
(294,105,l)
);
},
{
closed = 1;
nodes = (
(105,154,l),
(153,154,l),
(153,269,l),
(105,269,l)
);
},
{
closed = 1;
nodes = (
(233,464,l),
(344,464,l),
(344,579,l),
(233,579,l)
);
},
{
closed = 1;
nodes = (
(105,154,l),
(153,154,l),
(153,269,l),
(105,269,l)
);
},
{
closed = 1;
nodes = (
(105,154,l),
(153,154,l),
(153,269,l),
(105,269,l)
);
},
{
closed = 1;
nodes = (
(115,-10,l),
(201,-10,l),
(201,105,l),
(115,105,l)
);
}
);
width = 608;
}
);
unicode = 2997;
},
{
glyphname = shatamil;
layers = (
{
anchors = (
{
name = Anchor10;
pos = (667,-29);
},
{
name = Anchor12;
pos = (667,-78);
},
{
name = Anchor8;
pos = (667,-29);
}
);
background = {
shapes = (
{
closed = 1;
nodes = (
(438,-12,o),
(514,8,o),
(562,59,cs),
(599,99,o),
(619,156,o),
(619,257,cs),
(619,439,l),
(711,439,l),
(711,270,ls),
(711,166,o),
(730,109,o),
(766,67,cs),
(815,10,o),
(893,-12,o),
(992,-12,cs),
(1090,-12,o),
(1163,9,o),
(1210,59,cs),
(1249,101,o),
(1269,159,o),
(1269,258,cs),
(1269,569,l),
(429,569,l),
(429,260,ls),
(429,196,o),
(423,164,o),
(406,144,cs),
(392,128,o),
(372,120,o),
(342,120,cs),
(314,120,o),
(294,128,o),
(281,142,cs),
(260,163,o),
(255,199,o),
(255,260,cs),
(255,569,l),
(65,569,l),
(65,270,ls),
(65,170,o),
(84,114,o),
(118,70,cs),
(166,9,o),
(244,-12,o),
(344,-12,cs)
);
},
{
closed = 1;
nodes = (
(961,120,o),
(943,127,o),
(929,141,cs),
(910,161,o),
(901,192,o),
(901,259,cs),
(901,439,l),
(1079,439,l),
(1079,256,ls),
(1079,194,o),
(1072,164,o),
(1055,144,cs),
(1041,128,o),
(1021,120,o),
(990,120,cs)
);
}
);
};
layerId = "B104C26B-E498-4044-8731-03CD50407EE8";
shapes = (
{
closed = 1;
nodes = (
(438,-12,o),
(514,8,o),
(562,59,cs),
(599,99,o),
(619,156,o),
(619,257,cs),
(619,439,l),
(711,439,l),
(711,270,ls),
(711,166,o),
(730,109,o),
(766,67,cs),
(815,10,o),
(893,-12,o),
(992,-12,cs),
(1090,-12,o),
(1163,9,o),
(1210,59,cs),
(1249,101,o),
(1269,159,o),
(1269,258,cs),
(1269,569,l),
(429,569,l),
(429,260,ls),
(429,196,o),
(423,164,o),
(406,144,cs),
(392,128,o),
(372,120,o),
(342,120,cs),
(314,120,o),
(294,128,o),
(281,142,cs),
(260,163,o),
(255,199,o),
(255,260,cs),
(255,569,l),
(65,569,l),
(65,270,ls),
(65,170,o),
(84,114,o),
(118,70,cs),
(166,9,o),
(244,-12,o),
(344,-12,cs)
);
},
{
closed = 1;
nodes = (
(961,120,o),
(943,127,o),
(929,141,cs),
(910,161,o),
(901,192,o),
(901,259,cs),
(901,439,l),
(1079,439,l),
(1079,256,ls),
(1079,194,o),
(1072,164,o),
(1055,144,cs),
(1041,128,o),
(1021,120,o),
(990,120,cs)
);
}
);
width = 1334;
}
);
unicode = 2998;
},
{
glyphname = ssatamil;
layers = (
{
anchors = (
{
name = Anchor10;
pos = (797,-29);
},
{
name = Anchor12;
pos = (737,-78);
},
{
name = Anchor8;
pos = (797,-29);
}
);
background = {
shapes = (
{
closed = 1;
nodes = (
(900,581,o),
(841,484,o),
(841,390,cs),
(841,287,o),
(901,185,o),
(1135,185,cs),
(1203,185,ls),
(1292,185,o),
(1352,215,o),
(1380,232,c),
(1379,216,o),
(1378,198,o),
(1378,184,cs),
(1378,130,l),
(867,130,l),
(870,0,l),
(1538,0,l),
(1538,368,l),
(1378,368,l),
(1334,334,o),
(1276,308,o),
(1202,308,cs),
(1125,308,ls),
(1040,308,o),
(1007,336,o),
(1007,390,cs),
(1007,423,o),
(1026,453,o),
(1059,453,cs),
(1091,453,o),
(1101,426,o),
(1101,394,cs),
(1101,362,o),
(1094,337,o),
(1086,303,c),
(1031,103,l),
(1026,65,l),
(940,-236,l),
(1117,-284,l),
(1256,215,l),
(1262,250,l),
(1275,297,o),
(1286,337,o),
(1286,393,cs),
(1286,493,o),
(1228,581,o),
(1069,581,cs)
);
},
{
closed = 1;
nodes = (
(449,-12,o),
(521,61,o),
(521,177,cs),
(521,293,o),
(450,355,o),
(335,355,cs),
(248,355,o),
(184,311,o),
(124,261,c),
(156,162,l),
(193,204,o),
(230,234,o),
(278,234,cs),
(315,234,o),
(340,217,o),
(340,174,cs),
(340,135,o),
(321,114,o),
(283,114,cs),
(231,114,o),
(209,157,o),
(209,235,cs),
(209,369,o),
(285,451,o),
(415,451,cs),
(528,451,o),
(601,381,o),
(601,259,cs),
(601,198,o),
(589,142,o),
(564,99,c),
(570,0,l),
(937,0,l),
(933,130,l),
(762,130,l),
(783,175,o),
(791,236,o),
(791,283,cs),
(791,446,o),
(686,581,o),
(428,581,cs),
(204,581,o),
(37,469,o),
(37,245,cs),
(37,79,o),
(127,-12,o),
(285,-12,cs)
);
}
);
};
layerId = "B104C26B-E498-4044-8731-03CD50407EE8";
shapes = (
{
closed = 1;
nodes = (
(900,581,o),
(841,484,o),
(841,390,cs),
(841,287,o),
(901,185,o),
(1135,185,cs),
(1203,185,ls),
(1292,185,o),
(1352,215,o),
(1380,232,c),
(1379,216,o),
(1378,198,o),
(1378,184,cs),
(1378,130,l),
(867,130,l),
(870,0,l),
(1538,0,l),
(1538,368,l),
(1378,368,l),
(1334,334,o),
(1276,308,o),
(1202,308,cs),
(1125,308,ls),
(1040,308,o),
(1007,336,o),
(1007,390,cs),
(1007,423,o),
(1026,453,o),
(1059,453,cs),
(1091,453,o),
(1101,426,o),
(1101,394,cs),
(1101,362,o),
(1094,337,o),
(1086,303,c),
(1031,103,l),
(1026,65,l),
(940,-236,l),
(1117,-284,l),
(1256,215,l),
(1262,250,l),
(1275,297,o),
(1286,337,o),
(1286,393,cs),
(1286,493,o),
(1228,581,o),
(1069,581,cs)
);
},
{
closed = 1;
nodes = (
(449,-12,o),
(521,61,o),
(521,177,cs),
(521,293,o),
(450,355,o),
(335,355,cs),
(248,355,o),
(184,311,o),
(124,261,c),
(156,162,l),
(193,204,o),
(230,234,o),
(278,234,cs),
(315,234,o),
(340,217,o),
(340,174,cs),
(340,135,o),
(321,114,o),
(283,114,cs),
(231,114,o),
(209,157,o),
(209,235,cs),
(209,369,o),
(285,451,o),
(415,451,cs),
(528,451,o),
(601,381,o),
(601,259,cs),
(601,198,o),
(589,142,o),
(564,99,c),
(570,0,l),
(937,0,l),
(933,130,l),
(762,130,l),
(783,175,o),
(791,236,o),
(791,283,cs),
(791,446,o),
(686,581,o),
(428,581,cs),
(204,581,o),
(37,469,o),
(37,245,cs),
(37,79,o),
(127,-12,o),
(285,-12,cs)
);
}
);
width = 1595;
}
);
unicode = 2999;
},
{
glyphname = satamil;
layers = (
{
anchors = (
{
name = Anchor10;
pos = (749,-29);
},
{
name = Anchor12;
pos = (749,-78);
},
{
name = Anchor8;
pos = (749,-29);
}
);
background = {
shapes = (
{
closed = 1;
nodes = (
(449,-12,o),
(521,61,o),
(521,177,cs),
(521,295,o),
(447,355,o),
(335,355,cs),
(248,355,o),
(184,311,o),
(124,261,c),
(156,162,l),
(193,204,o),
(230,234,o),
(277,234,cs),
(315,234,o),
(340,217,o),
(340,174,cs),
(340,135,o),
(321,114,o),
(282,114,cs),
(230,114,o),
(209,157,o),
(209,235,cs),
(209,370,o),
(288,451,o),
(415,451,cs),
(474,451,o),
(511,436,o),
(536,413,cs),
(580,373,o),
(589,307,o),
(589,242,cs),
(589,0,l),
(779,0,l),
(779,326,ls),
(779,381,o),
(786,412,o),
(803,432,cs),
(814,445,o),
(830,451,o),
(850,451,cs),
(871,451,o),
(884,444,o),
(893,431,cs),
(909,410,o),
(911,374,o),
(911,332,cs),
(911,254,ls),
(911,127,o),
(949,65,o),
(1002,30,cs),
(1045,2,o),
(1098,-12,o),
(1180,-12,cs),
(1373,-12,o),
(1458,112,o),
(1458,266,cs),
(1458,388,o),
(1420,501,o),
(1323,615,c),
(1166,526,l),
(1236,439,o),
(1268,345,o),
(1268,253,cs),
(1268,150,o),
(1239,118,o),
(1184,118,cs),
(1158,118,o),
(1137,126,o),
(1123,141,cs),
(1106,160,o),
(1098,184,o),
(1098,253,cs),
(1098,316,ls),
(1098,413,o),
(1076,485,o),
(1023,532,cs),
(988,563,o),
(940,581,o),
(876,581,cs),
(758,581,o),
(690,526,o),
(630,426,c),
(710,433,l),
(643,517,o),
(566,581,o),
(419,581,cs),
(213,581,o),
(37,469,o),
(37,245,cs),
(37,79,o),
(127,-12,o),
(284,-12,cs)
);
}
);
};
layerId = "B104C26B-E498-4044-8731-03CD50407EE8";
shapes = (
{
closed = 1;
nodes = (
(449,-12,o),
(521,61,o),
(521,177,cs),
(521,295,o),
(447,355,o),
(335,355,cs),
(248,355,o),
(184,311,o),
(124,261,c),
(156,162,l),
(193,204,o),
(230,234,o),
(277,234,cs),
(315,234,o),
(340,217,o),
(340,174,cs),
(340,135,o),
(321,114,o),
(282,114,cs),
(230,114,o),
(209,157,o),
(209,235,cs),
(209,370,o),
(288,451,o),
(415,451,cs),
(474,451,o),
(511,436,o),
(536,413,cs),
(580,373,o),
(589,307,o),
(589,242,cs),
(589,0,l),
(779,0,l),
(779,326,ls),
(779,381,o),
(786,412,o),
(803,432,cs),
(814,445,o),
(830,451,o),
(850,451,cs),
(871,451,o),
(884,444,o),
(893,431,cs),
(909,410,o),
(911,374,o),
(911,332,cs),
(911,254,ls),
(911,127,o),
(949,65,o),
(1002,30,cs),
(1045,2,o),
(1098,-12,o),
(1180,-12,cs),
(1373,-12,o),
(1458,112,o),
(1458,266,cs),
(1458,388,o),
(1420,501,o),
(1323,615,c),
(1166,526,l),
(1236,439,o),
(1268,345,o),
(1268,253,cs),
(1268,150,o),
(1239,118,o),
(1184,118,cs),
(1158,118,o),
(1137,126,o),
(1123,141,cs),
(1106,160,o),
(1098,184,o),
(1098,253,cs),
(1098,316,ls),
(1098,413,o),
(1076,485,o),
(1023,532,cs),
(988,563,o),
(940,581,o),
(876,581,cs),
(758,581,o),
(690,526,o),
(630,426,c),
(710,433,l),
(643,517,o),
(566,581,o),
(419,581,cs),
(213,581,o),
(37,469,o),
(37,245,cs),
(37,79,o),
(127,-12,o),
(284,-12,cs)
);
}
);
width = 1499;
}
);
unicode = 3000;
},
{
glyphname = hatamil;
layers = (
{
anchors = (
{
name = Anchor10;
pos = (942,-29);
},
{
name = Anchor12;
pos = (942,-217);
},
{
name = Anchor8;
pos = (942,-29);
}
);
background = {
shapes = (
{
closed = 1;
nodes = (
(1428,581,o),
(1360,530,o),
(1303,442,c),
(1366,440,l),
(1318,527,o),
(1267,581,o),
(1156,581,cs),
(1092,581,o),
(1042,565,o),
(1004,536,cs),
(949,494,o),
(917,429,o),
(917,310,cs),
(917,0,l),
(1107,0,l),
(1107,304,ls),
(1107,366,o),
(1109,407,o),
(1130,432,cs),
(1140,444,o),
(1155,451,o),
(1175,451,cs),
(1195,451,o),
(1208,443,o),
(1218,431,cs),
(1236,408,o),
(1238,372,o),
(1238,297,cs),
(1238,0,l),
(1428,0,l),
(1428,298,ls),
(1428,364,o),
(1436,403,o),
(1464,429,cs),
(1479,443,o),
(1499,451,o),
(1528,451,cs),
(1604,451,o),
(1650,379,o),
(1650,236,cs),
(1650,0,o),
(1555,-50,o),
(1331,-50,cs),
(300,-50,ls),
(192,-50,o),
(146,-62,o),
(102,-91,cs),
(58,-120,o),
(30,-169,o),
(30,-231,cs),
(30,-262,o),
(32,-291,o),
(36,-322,c),
(223,-312,l),
(221,-299,o),
(220,-286,o),
(220,-269,cs),
(220,-235,o),
(231,-214,o),
(250,-200,cs),
(273,-184,o),
(300,-180,o),
(361,-180,cs),
(1344,-180,ls),
(1524,-180,o),
(1629,-157,o),
(1714,-88,cs),
(1790,-27,o),
(1840,73,o),
(1840,239,cs),
(1840,456,o),
(1734,581,o),
(1544,581,cs)
);
},
{
closed = 1;
nodes = (
(449,-12,o),
(521,61,o),
(521,177,cs),
(521,293,o),
(450,355,o),
(335,355,cs),
(248,355,o),
(184,311,o),
(124,261,c),
(156,162,l),
(193,204,o),
(230,234,o),
(278,234,cs),
(315,234,o),
(340,217,o),
(340,174,cs),
(340,135,o),
(321,114,o),
(283,114,cs),
(231,114,o),
(209,157,o),
(209,235,cs),
(209,369,o),
(284,451,o),
(415,451,cs),
(528,451,o),
(601,381,o),
(601,259,cs),
(601,198,o),
(589,142,o),
(564,99,c),
(570,0,l),
(1008,0,l),
(950,130,l),
(762,130,l),
(783,175,o),
(791,236,o),
(791,283,cs),
(791,446,o),
(686,581,o),
(428,581,cs),
(204,581,o),
(37,469,o),
(37,245,cs),
(37,79,o),
(127,-12,o),
(285,-12,cs)
);
}
);
};
layerId = "B104C26B-E498-4044-8731-03CD50407EE8";
shapes = (
{
closed = 1;
nodes = (
(1428,581,o),
(1360,530,o),
(1303,442,c),
(1366,440,l),
(1318,527,o),
(1267,581,o),
(1156,581,cs),
(1092,581,o),
(1042,565,o),
(1004,536,cs),
(949,494,o),
(917,429,o),
(917,310,cs),
(917,0,l),
(1107,0,l),
(1107,304,ls),
(1107,366,o),
(1109,407,o),
(1130,432,cs),
(1140,444,o),
(1155,451,o),
(1175,451,cs),
(1195,451,o),
(1208,443,o),
(1218,431,cs),
(1236,408,o),
(1238,372,o),
(1238,297,cs),
(1238,0,l),
(1428,0,l),
(1428,298,ls),
(1428,364,o),
(1436,403,o),
(1464,429,cs),
(1479,443,o),
(1499,451,o),
(1528,451,cs),
(1604,451,o),
(1650,379,o),
(1650,236,cs),
(1650,0,o),
(1555,-50,o),
(1331,-50,cs),
(300,-50,ls),
(192,-50,o),
(146,-62,o),
(102,-91,cs),
(58,-120,o),
(30,-169,o),
(30,-231,cs),
(30,-262,o),
(32,-291,o),
(36,-322,c),
(223,-312,l),
(221,-299,o),
(220,-286,o),
(220,-269,cs),
(220,-235,o),
(231,-214,o),
(250,-200,cs),
(273,-184,o),
(300,-180,o),
(361,-180,cs),
(1344,-180,ls),
(1524,-180,o),
(1629,-157,o),
(1714,-88,cs),
(1790,-27,o),
(1840,73,o),
(1840,239,cs),
(1840,456,o),
(1734,581,o),
(1544,581,cs)
);
},
{
closed = 1;
nodes = (
(449,-12,o),
(521,61,o),
(521,177,cs),
(521,293,o),
(450,355,o),
(335,355,cs),
(248,355,o),
(184,311,o),
(124,261,c),
(156,162,l),
(193,204,o),
(230,234,o),
(278,234,cs),
(315,234,o),
(340,217,o),
(340,174,cs),
(340,135,o),
(321,114,o),
(283,114,cs),
(231,114,o),
(209,157,o),
(209,235,cs),
(209,369,o),
(284,451,o),
(415,451,cs),
(528,451,o),
(601,381,o),
(601,259,cs),
(601,198,o),
(589,142,o),
(564,99,c),
(570,0,l),
(1008,0,l),
(950,130,l),
(762,130,l),
(783,175,o),
(791,236,o),
(791,283,cs),
(791,446,o),
(686,581,o),
(428,581,cs),
(204,581,o),
(37,469,o),
(37,245,cs),
(37,79,o),
(127,-12,o),
(285,-12,cs)
);
}
);
width = 1885;
}
);
unicode = 3001;
},
{
glyphname = aavowelsigntamil;
lastChange = "2025-02-09 19:51:29 +0000";
layers = (
{
background = {
shapes = (
{
closed = 1;
nodes = (
(258,0,l),
(258,439,l),
(390,439,l),
(390,0,l),
(580,0,l),
(580,439,l),
(712,439,l),
(712,569,l),
(68,569,l),
(68,0,l)
);
}
);
};
layerId = "B104C26B-E498-4044-8731-03CD50407EE8";
shapes = (
{
closed = 1;
nodes = (
(249,464,l),
(611,464,l),
(611,569,l),
(249,569,l)
);
},
{
closed = 1;
nodes = (
(249,315,l),
(257,315,l),
(257,464,l),
(249,464,l)
);
},
{
closed = 1;
nodes = (
(483,0,l),
(491,0,l),
(491,464,l),
(483,464,l)
);
},
{
closed = 1;
nodes = (
(653,256,l),
(112,256,l),
(112,151,l),
(653,151,l)
);
},
{
closed = 1;
nodes = (
(491,105,l),
(112,105,l),
(112,0,l),
(491,0,l)
);
},
{
closed = 1;
nodes = (
(120,151,l),
(112,151,l),
(112,105,l),
(120,105,l)
);
},
{
closed = 1;
nodes = (
(645,-258,l),
(653,-258,l),
(653,249,l),
(645,249,l)
);
},
{
closed = 1;
nodes = (
(774,-46,l),
(782,-46,l),
(782,103,l),
(774,103,l)
);
},
{
closed = 1;
nodes = (
(782,-46,l),
(231,-46,l),
(231,-151,l),
(415,-151,o),
(598,-151,o),
(782,-151,c)
);
},
{
closed = 1;
nodes = (
(653,-197,l),
(512,-197,o),
(372,-197,o),
(231,-197,c),
(231,-302,l),
(653,-302,l)
);
},
{
closed = 1;
nodes = (
(231,-292,l),
(239,-292,l),
(239,-242,o),
(239,-193,o),
(239,-143,c),
(231,-143,l)
);
}
);
width = 729;
}
);
unicode = 3006;
},
{
glyphname = ivowelsigntamil;
lastChange = "2025-02-12 10:07:07 +0000";
layers = (
{
background = {
shapes = (
{
closed = 1;
nodes = (
(-374,851,o),
(-522,792,o),
(-522,629,cs),
(-522,594,o),
(-513,546,o),
(-497,515,c),
(-310,515,l),
(-331,556,o),
(-340,592,o),
(-340,627,cs),
(-340,678,o),
(-315,723,o),
(-234,723,cs),
(-194,723,o),
(-165,712,o),
(-144,693,cs),
(-89,644,o),
(-88,545,o),
(-88,435,cs),
(-88,0,l),
(102,0,l),
(102,467,ls),
(102,631,o),
(73,704,o),
(14,763,cs),
(-42,819,o),
(-126,851,o),
(-237,851,cs)
);
}
);
};
layerId = "B104C26B-E498-4044-8731-03CD50407EE8";
shapes = (
{
closed = 1;
nodes = (
(75,-10,l),
(95,-10,l),
(95,648,l),
(75,648,l)
);
},
{
closed = 1;
nodes = (
(-104,642,l),
(95,642,l),
(95,647,ls),
(95,718,o),
(60,757,o),
(-5,757,cs),
(-5,757,ls),
(-69,757,o),
(-104,718,o),
(-104,647,cs)
);
},
{
closed = 1;
nodes = (
(-104,569,l),
(-84,569,l),
(-84,646,l),
(-104,646,l)
);
},
{
closed = 1;
nodes = (
(-16,642,l),
(95,642,l),
(95,757,l),
(-16,757,l)
);
}
);
width = 117;
}
);
unicode = 3007;
},
{
glyphname = iivowelsigntamil;
layers = (
{
background = {
shapes = (
{
closed = 1;
nodes = (
(-441,851,o),
(-521,729,o),
(-521,632,cs),
(-521,583,o),
(-513,547,o),
(-495,510,c),
(-351,536,l),
(-363,562,o),
(-370,586,o),
(-370,616,cs),
(-370,668,o),
(-343,696,o),
(-307,720,c),
(-277,734,o),
(-230,744,o),
(-194,744,cs),
(-159,744,o),
(-134,733,o),
(-134,706,cs),
(-134,684,o),
(-147,669,o),
(-175,669,cs),
(-207,669,o),
(-222,684,o),
(-222,715,cs),
(-222,751,o),
(-202,774,o),
(-164,814,c),
(-261,845,l),
(-304,811,o),
(-337,756,o),
(-337,706,cs),
(-337,628,o),
(-292,576,o),
(-171,576,cs),
(-53,576,o),
(8,626,o),
(8,707,cs),
(8,792,o),
(-62,851,o),
(-213,851,cs)
);
}
);
};
layerId = "B104C26B-E498-4044-8731-03CD50407EE8";
shapes = (
{
closed = 1;
nodes = (
(-441,851,o),
(-521,729,o),
(-521,632,cs),
(-521,583,o),
(-513,547,o),
(-495,510,c),
(-351,536,l),
(-363,562,o),
(-370,586,o),
(-370,616,cs),
(-370,668,o),
(-343,696,o),
(-307,720,c),
(-277,734,o),
(-230,744,o),
(-194,744,cs),
(-159,744,o),
(-134,733,o),
(-134,706,cs),
(-134,684,o),
(-147,669,o),
(-175,669,cs),
(-207,669,o),
(-222,684,o),
(-222,715,cs),
(-222,751,o),
(-202,774,o),
(-164,814,c),
(-261,845,l),
(-304,811,o),
(-337,756,o),
(-337,706,cs),
(-337,628,o),
(-292,576,o),
(-171,576,cs),
(-53,576,o),
(8,626,o),
(8,707,cs),
(8,792,o),
(-62,851,o),
(-213,851,cs)
);
}
);
width = 0;
}
);
unicode = 3008;
},
{
glyphname = uvowelsigntamil;
lastChange = "2025-02-09 19:34:13 +0000";
layers = (
{
background = {
shapes = (
{
closed = 1;
nodes = (
(494,196,o),
(540,293,o),
(540,385,cs),
(540,454,o),
(506,509,o),
(445,539,cs),
(407,558,o),
(358,569,o),
(268,569,cs),
(-244,569,l),
(-244,439,l),
(249,439,ls),
(300,439,o),
(329,434,o),
(348,419,cs),
(360,410,o),
(367,396,o),
(367,376,cs),
(367,343,o),
(347,322,o),
(310,322,cs),
(272,322,o),
(239,341,o),
(239,401,cs),
(239,442,o),
(257,480,o),
(275,506,c),
(86,525,l),
(74,498,o),
(66,463,o),
(66,417,cs),
(66,302,o),
(128,196,o),
(313,196,cs)
);
}
);
};
backgroundImage = {
imagePath = "../../../../Downloads/IMG_3255 copy.heic";
pos = (-1,-246);
scale = (0.923,0.923);
};
layerId = "B104C26B-E498-4044-8731-03CD50407EE8";
shapes = (
{
closed = 1;
nodes = (
(144,464,l),
(506,464,l),
(506,569,l),
(144,569,l)
);
},
{
closed = 1;
nodes = (
(144,315,l),
(152,315,l),
(152,464,l),
(144,464,l)
);
},
{
closed = 1;
nodes = (
(378,0,l),
(386,0,l),
(386,464,l),
(378,464,l)
);
},
{
closed = 1;
nodes = (
(378,0,l),
(548,0,l),
(548,105,l),
(378,105,l)
);
},
{
closed = 1;
nodes = (
(548,105,l),
(542,105,l),
(542,-148,l),
(548,-148,l)
);
},
{
closed = 1;
nodes = (
(35,313,l),
(27,313,l),
(27,-59,l),
(35,-59,l)
);
},
{
closed = 1;
nodes = (
(548,-46,l),
(27,-46,l),
(27,-151,l),
(548,-151,l)
);
}
);
width = 570;
}
);
unicode = 3009;
},
{
glyphname = uuvowelsigntamil;
lastChange = "2025-02-09 19:08:59 +0000";
layers = (
{
background = {
shapes = (
{
closed = 1;
nodes = (
(714,-12,o),
(891,110,o),
(891,409,cs),
(891,605,o),
(782,792,o),
(494,792,cs),
(265,792,o),
(124,670,o),
(92,527,c),
(94,491,l),
(93,477,o),
(92,469,o),
(92,439,cs),
(92,309,o),
(162,199,o),
(339,199,cs),
(521,199,o),
(566,293,o),
(566,385,cs),
(566,454,o),
(532,509,o),
(471,539,cs),
(433,558,o),
(384,569,o),
(294,569,cs),
(-244,569,l),
(-244,439,l),
(275,439,ls),
(326,439,o),
(355,434,o),
(374,419,cs),
(386,409,o),
(393,396,o),
(393,376,cs),
(393,343,o),
(373,322,o),
(336,322,cs),
(289,322,o),
(265,353,o),
(265,415,cs),
(265,438,o),
(265,454,o),
(267,470,c),
(265,516,l),
(290,599,o),
(365,662,o),
(484,662,cs),
(619,662,o),
(701,571,o),
(701,404,cs),
(701,224,o),
(610,121,o),
(429,121,cs),
(314,121,o),
(236,148,o),
(137,211,c),
(66,84,l),
(175,20,o),
(302,-12,o),
(439,-12,cs)
);
}
);
};
backgroundImage = {
angle = 0.5;
imagePath = "../../../../Downloads/IMG_3252.heic";
pos = (-21,-235);
scale = (0.7604,0.7604);
};
guides = (
{
pos = (441,355);
}
);
layerId = "B104C26B-E498-4044-8731-03CD50407EE8";
shapes = (
{
closed = 1;
nodes = (
(363,464,l),
(725,464,l),
(725,569,l),
(363,569,l)
);
},
{
closed = 1;
nodes = (
(363,315,l),
(371,315,l),
(371,464,l),
(363,464,l)
);
},
{
closed = 1;
nodes = (
(597,0,l),
(605,0,l),
(605,464,l),
(597,464,l)
);
},
{
closed = 1;
nodes = (
(767,256,l),
(226,256,l),
(226,151,l),
(767,151,l)
);
},
{
closed = 1;
nodes = (
(605,105,l),
(226,105,l),
(226,0,l),
(605,0,l)
);
},
{
closed = 1;
nodes = (
(234,151,l),
(226,151,l),
(226,105,l),
(234,105,l)
);
},
{
closed = 1;
nodes = (
(722,151,l),
(714,151,l),
(714,11,l),
(722,11,l)
);
},
{
closed = 1;
nodes = (
(839,105,l),
(831,105,l),
(831,-148,l),
(839,-148,l)
);
},
{
closed = 1;
nodes = (
(117,313,l),
(109,313,l),
(109,-59,l),
(117,-59,l)
);
},
{
closed = 1;
nodes = (
(839,-46,l),
(109,-46,l),
(109,-151,l),
(839,-151,l)
);
},
{
closed = 1;
nodes = (
(839,105,l),
(714,105,l),
(714,0,l),
(839,0,l)
);
}
);
width = 935;
}
);
unicode = 3010;
},
{
glyphname = evowelsigntamil;
lastChange = "2025-02-12 13:52:12 +0000";
layers = (
{
background = {
shapes = (
{
closed = 1;
nodes = (
(339,-12,o),
(441,62,o),
(441,192,cs),
(441,292,o),
(375,388,o),
(215,388,cs),
(73,388,o),
(8,312,o),
(8,207,cs),
(8,161,o),
(18,117,o),
(33,93,c),
(184,81,l),
(165,98,o),
(142,138,o),
(142,189,cs),
(142,237,o),
(165,264,o),
(205,264,cs),
(250,264,o),
(262,227,o),
(262,192,cs),
(262,147,o),
(241,112,o),
(185,112,cs),
(162,112,o),
(137,114,o),
(118,117,c),
(73,111,l),
(17,134,o),
(-31,205,o),
(-31,375,cs),
(-31,612,o),
(118,718,o),
(287,718,cs),
(360,718,o),
(412,700,o),
(447,664,cs),
(502,607,o),
(515,509,o),
(515,355,cs),
(515,0,l),
(705,0,l),
(705,426,ls),
(705,603,o),
(663,707,o),
(574,773,cs),
(503,826,o),
(400,851,o),
(295,851,cs),
(-2,851,o),
(-213,668,o),
(-213,380,cs),
(-213,142,o),
(-85,-12,o),
(168,-12,cs)
);
}
);
};
layerId = "B104C26B-E498-4044-8731-03CD50407EE8";
shapes = (
{
closed = 1;
nodes = (
(344,710,ls),
(344,781,o),
(305,820,o),
(234,820,cs),
(140,820,ls),
(69,820,o),
(30,781,o),
(30,710,cs),
(30,705,l),
(344,705,l)
);
},
{
closed = 1;
nodes = (
(30,105,l),
(50,105,l),
(50,705,l),
(30,705,l)
);
},
{
closed = 1;
nodes = (
(324,-10,l),
(344,-10,l),
(344,705,l),
(324,705,l)
);
},
{
closed = 1;
nodes = (
(30,100,ls),
(30,29,o),
(60,-10,o),
(116,-10,cs),
(116,-10,ls),
(171,-10,o),
(201,29,o),
(201,100,cs),
(201,105,l),
(30,105,l)
);
},
{
closed = 1;
nodes = (
(181,105,l),
(201,105,l),
(201,161,l),
(181,161,l)
);
},
{
closed = 1;
nodes = (
(105,154,l),
(201,154,l),
(201,159,ls),
(201,230,o),
(184,269,o),
(153,269,cs),
(153,269,ls),
(122,269,o),
(105,230,o),
(105,159,cs)
);
},
{
closed = 1;
nodes = (
(105,122,l),
(125,122,l),
(125,157,l),
(105,157,l)
);
},
{
closed = 1;
nodes = (
(116,-10,l),
(201,-10,l),
(201,105,l),
(116,105,l)
);
},
{
closed = 1;
nodes = (
(105,154,l),
(153,154,l),
(153,269,l),
(105,269,l)
);
}
);
width = 374;
}
);
unicode = 3014;
},
{
glyphname = eevowelsigntamil;
layers = (
{
background = {
shapes = (
{
closed = 1;
nodes = (
(706,-12,o),
(794,78,o),
(794,197,cs),
(794,295,o),
(728,388,o),
(561,388,cs),
(406,388,o),
(340,306,o),
(340,212,cs),
(340,154,o),
(356,124,o),
(374,88,c),
(541,80,l),
(520,97,o),
(495,142,o),
(495,193,cs),
(495,237,o),
(518,264,o),
(556,264,cs),
(598,264,o),
(615,230,o),
(615,194,cs),
(615,162,o),
(599,112,o),
(516,112,cs),
(511,112,o),
(492,113,o),
(469,115,c),
(352,115,o),
(224,210,o),
(224,416,cs),
(224,607,o),
(346,716,o),
(455,720,c),
(489,727,o),
(525,727,o),
(531,727,cs),
(608,727,o),
(627,680,o),
(627,648,cs),
(627,609,o),
(612,580,o),
(570,580,cs),
(540,580,o),
(508,596,o),
(508,650,cs),
(508,697,o),
(535,744,o),
(557,758,c),
(390,758,l),
(370,726,o),
(353,683,o),
(353,636,cs),
(353,538,o),
(424,456,o),
(577,456,cs),
(737,456,o),
(806,544,o),
(806,642,cs),
(806,785,o),
(689,851,o),
(508,851,cs),
(233,851,o),
(42,687,o),
(42,416,cs),
(42,140,o),
(227,-12,o),
(501,-12,cs)
);
}
);
};
layerId = "B104C26B-E498-4044-8731-03CD50407EE8";
shapes = (
{
closed = 1;
nodes = (
(706,-12,o),
(794,78,o),
(794,197,cs),
(794,295,o),
(728,388,o),
(561,388,cs),
(406,388,o),
(340,306,o),
(340,212,cs),
(340,154,o),
(356,124,o),
(374,88,c),
(541,80,l),
(520,97,o),
(495,142,o),
(495,193,cs),
(495,237,o),
(518,264,o),
(556,264,cs),
(598,264,o),
(615,230,o),
(615,194,cs),
(615,162,o),
(599,112,o),
(516,112,cs),
(511,112,o),
(492,113,o),
(469,115,c),
(352,115,o),
(224,210,o),
(224,416,cs),
(224,607,o),
(346,716,o),
(455,720,c),
(489,727,o),
(525,727,o),
(531,727,cs),
(608,727,o),
(627,680,o),
(627,648,cs),
(627,609,o),
(612,580,o),
(570,580,cs),
(540,580,o),
(508,596,o),
(508,650,cs),
(508,697,o),
(535,744,o),
(557,758,c),
(390,758,l),
(370,726,o),
(353,683,o),
(353,636,cs),
(353,538,o),
(424,456,o),
(577,456,cs),
(737,456,o),
(806,544,o),
(806,642,cs),
(806,785,o),
(689,851,o),
(508,851,cs),
(233,851,o),
(42,687,o),
(42,416,cs),
(42,140,o),
(227,-12,o),
(501,-12,cs)
);
}
);
width = 825;
}
);
unicode = 3015;
},
{
glyphname = aivowelsigntamil;
layers = (
{
background = {
shapes = (
{
closed = 1;
nodes = (
(449,-12,o),
(521,61,o),
(521,177,cs),
(521,294,o),
(447,355,o),
(335,355,cs),
(248,355,o),
(184,311,o),
(124,261,c),
(156,162,l),
(193,204,o),
(230,234,o),
(278,234,cs),
(315,234,o),
(340,217,o),
(340,174,cs),
(340,135,o),
(321,114,o),
(283,114,cs),
(231,114,o),
(209,158,o),
(209,230,cs),
(209,261,o),
(209,261,o),
(212,271,c),
(231,371,o),
(328,451,o),
(489,451,cs),
(586,451,o),
(652,433,o),
(708,392,c),
(792,342,o),
(832,272,o),
(832,196,cs),
(832,148,o),
(820,114,o),
(781,114,cs),
(750,114,o),
(730,138,o),
(730,197,cs),
(730,279,o),
(770,349,o),
(819,392,cs),
(860,429,o),
(891,451,o),
(959,451,cs),
(1051,451,o),
(1119,381,o),
(1119,266,cs),
(1119,171,o),
(1094,120,o),
(1065,70,c),
(1224,-12,l),
(1265,54,o),
(1310,161,o),
(1310,283,cs),
(1310,446,o),
(1210,581,o),
(974,581,cs),
(863,581,o),
(773,554,o),
(696,489,c),
(667,454,l),
(599,389,o),
(559,299,o),
(559,209,cs),
(559,66,o),
(642,-12,o),
(788,-12,cs),
(926,-12,o),
(1003,54,o),
(1003,194,cs),
(1003,317,o),
(944,404,o),
(831,479,c),
(807,497,l),
(713,557,o),
(616,581,o),
(484,581,cs),
(212,581,o),
(37,451,o),
(37,244,cs),
(37,79,o),
(127,-12,o),
(285,-12,cs)
);
}
);
};
layerId = "B104C26B-E498-4044-8731-03CD50407EE8";
shapes = (
{
closed = 1;
nodes = (
(449,-12,o),
(521,61,o),
(521,177,cs),
(521,294,o),
(447,355,o),
(335,355,cs),
(248,355,o),
(184,311,o),
(124,261,c),
(156,162,l),
(193,204,o),
(230,234,o),
(278,234,cs),
(315,234,o),
(340,217,o),
(340,174,cs),
(340,135,o),
(321,114,o),
(283,114,cs),
(231,114,o),
(209,158,o),
(209,230,cs),
(209,261,o),
(209,261,o),
(212,271,c),
(231,371,o),
(328,451,o),
(489,451,cs),
(586,451,o),
(652,433,o),
(708,392,c),
(792,342,o),
(832,272,o),
(832,196,cs),
(832,148,o),
(820,114,o),
(781,114,cs),
(750,114,o),
(730,138,o),
(730,197,cs),
(730,279,o),
(770,349,o),
(819,392,c),
(860,429,o),
(891,451,o),
(959,451,cs),
(1051,451,o),
(1119,381,o),
(1119,266,cs),
(1119,171,o),
(1094,120,o),
(1065,70,c),
(1224,-12,l),
(1265,54,o),
(1310,161,o),
(1310,283,cs),
(1310,446,o),
(1210,581,o),
(974,581,cs),
(863,581,o),
(773,554,o),
(696,489,c),
(667,454,l),
(599,389,o),
(559,299,o),
(559,209,cs),
(559,66,o),
(642,-12,o),
(788,-12,cs),
(926,-12,o),
(1003,54,o),
(1003,194,cs),
(1003,317,o),
(944,404,o),
(831,479,c),
(807,497,l),
(713,557,o),
(616,581,o),
(484,581,cs),
(212,581,o),
(37,451,o),
(37,244,cs),
(37,79,o),
(127,-12,o),
(285,-12,cs)
);
}
);
width = 1349;
}
);
unicode = 3016;
},
{
glyphname = viramatamil;
lastChange = "2025-02-12 13:50:47 +0000";
layers = (
{
background = {
shapes = (
{
closed = 1;
nodes = (
(-220,656,o),
(-179,693,o),
(-179,751,cs),
(-179,809,o),
(-220,846,o),
(-278,846,cs),
(-336,846,o),
(-377,809,o),
(-377,751,cs),
(-377,693,o),
(-336,656,o),
(-278,656,cs)
);
}
);
};
layerId = "B104C26B-E498-4044-8731-03CD50407EE8";
shapes = (
{
closed = 1;
nodes = (
(-335,752,ls),
(-335,715,o),
(-296,694,o),
(-225,694,cs),
(-220,694,l),
(-220,699,ls),
(-220,770,o),
(-241,809,o),
(-278,809,cs),
(-278,809,ls),
(-315,809,o),
(-335,789,o),
(-335,752,cs)
);
},
{
closed = 1;
nodes = (
(-335,664,l),
(-317,664,l),
(-317,694,l),
(-335,694,l)
);
},
{
closed = 1;
nodes = (
(-238,809,l),
(-220,809,l),
(-220,839,l),
(-238,839,l)
);
},
{
closed = 1;
nodes = (
(-335,694,l),
(-230,694,l),
(-230,752,l),
(-335,752,l)
);
},
{
closed = 1;
nodes = (
(-278,809,l),
(-278,704,l),
(-220,704,l),
(-220,809,l)
);
}
);
width = 0;
}
);
unicode = 3021;
},
{
glyphname = ohmsigntamil;
layers = (
{
background = {
shapes = (
{
closed = 1;
nodes = (
(443,622,o),
(253,594,o),
(137,506,cs),
(77,461,o),
(33,399,o),
(33,307,cs),
(33,174,o),
(120,85,o),
(264,85,cs),
(383,85,o),
(482,134,o),
(482,268,cs),
(482,378,o),
(401,433,o),
(306,433,cs),
(250,433,o),
(207,417,o),
(157,382,c),
(162,271,l),
(195,306,o),
(223,326,o),
(264,326,cs),
(299,326,o),
(324,309,o),
(324,271,cs),
(324,230,o),
(301,209,o),
(264,209,cs),
(205,209,o),
(192,264,o),
(192,298,cs),
(192,331,o),
(195,357,o),
(200,374,c),
(290,463,o),
(451,486,o),
(648,486,cs),
(987,486,o),
(1112,407,o),
(1112,279,cs),
(1112,234,o),
(1093,202,o),
(1056,202,cs),
(1009,202,o),
(994,234,o),
(994,282,cs),
(994,308,o),
(999,341,o),
(1011,367,c),
(861,435,l),
(730,385,o),
(653,295,o),
(653,166,cs),
(653,75,o),
(708,-35,o),
(870,-77,cs),
(914,-89,o),
(958,-97,o),
(1039,-97,cs),
(1200,-97,l),
(1200,32,l),
(1081,32,ls),
(944,32,o),
(897,46,o),
(858,76,cs),
(824,102,o),
(807,139,o),
(807,185,cs),
(807,215,o),
(816,264,o),
(875,305,c),
(861,307,l),
(852,286,o),
(849,252,o),
(849,241,cs),
(849,148,o),
(911,78,o),
(1057,78,cs),
(1240,78,o),
(1300,185,o),
(1300,288,cs),
(1300,382,o),
(1257,446,o),
(1194,494,cs),
(1066,592,o),
(879,622,o),
(638,622,cs)
);
},
{
closed = 1;
nodes = (
(78,-247,o),
(201,-321,o),
(437,-321,cs),
(459,-321,ls),
(675,-321,o),
(861,-292,o),
(971,-72,cs),
(981,-53,l),
(792,-12,l),
(703,-165,o),
(638,-192,o),
(449,-192,cs),
(326,-192,o),
(241,-168,o),
(241,-95,cs),
(241,-72,o),
(246,-51,o),
(261,-26,c),
(123,40,l),
(95,-7,o),
(78,-53,o),
(78,-111,cs)
);
},
{
closed = 1;
nodes = (
(513,99,o),
(494,93,o),
(476,81,cs),
(452,65,o),
(440,42,o),
(440,-3,cs),
(440,-77,l),
(393,-77,l),
(393,73,l),
(296,73,l),
(296,-143,l),
(533,-143,ls),
(594,-143,o),
(624,-136,o),
(651,-113,cs),
(668,-98,o),
(679,-74,o),
(679,-37,cs),
(679,3,o),
(666,36,o),
(644,59,cs),
(621,84,o),
(591,99,o),
(546,99,cs)
);
},
{
closed = 1;
nodes = (
(572,33,o),
(587,9,o),
(587,-31,cs),
(587,-59,o),
(579,-77,o),
(550,-77,cs),
(534,-77,l),
(534,12,ls),
(534,25,o),
(540,33,o),
(550,33,cs)
);
},
{
closed = 1;
nodes = (
(591,121,o),
(618,146,o),
(618,179,cs),
(618,211,o),
(592,235,o),
(559,235,cs),
(527,235,o),
(502,211,o),
(502,179,cs),
(502,146,o),
(525,121,o),
(559,121,cs)
);
}
);
};
layerId = "B104C26B-E498-4044-8731-03CD50407EE8";
shapes = (
{
closed = 1;
nodes = (
(443,622,o),
(253,594,o),
(137,506,cs),
(77,461,o),
(33,399,o),
(33,307,cs),
(33,174,o),
(120,85,o),
(264,85,cs),
(383,85,o),
(482,134,o),
(482,268,cs),
(482,378,o),
(401,433,o),
(306,433,cs),
(250,433,o),
(207,417,o),
(157,382,c),
(162,271,l),
(195,306,o),
(223,326,o),
(264,326,cs),
(299,326,o),
(324,309,o),
(324,271,cs),
(324,230,o),
(301,209,o),
(264,209,cs),
(205,209,o),
(192,264,o),
(192,298,cs),
(192,331,o),
(195,357,o),
(200,374,c),
(290,463,o),
(451,486,o),
(648,486,cs),
(987,486,o),
(1112,407,o),
(1112,279,cs),
(1112,234,o),
(1093,202,o),
(1056,202,cs),
(1009,202,o),
(994,234,o),
(994,282,cs),
(994,308,o),
(999,341,o),
(1011,367,c),
(861,435,l),
(730,385,o),
(653,295,o),
(653,166,cs),
(653,75,o),
(708,-35,o),
(870,-77,c),
(914,-89,o),
(958,-97,o),
(1039,-97,cs),
(1200,-97,l),
(1200,32,l),
(1081,32,ls),
(944,32,o),
(897,46,o),
(858,76,cs),
(824,102,o),
(807,139,o),
(807,185,cs),
(807,215,o),
(816,264,o),
(875,305,c),
(861,307,l),
(852,286,o),
(849,252,o),
(849,241,cs),
(849,148,o),
(911,78,o),
(1057,78,cs),
(1240,78,o),
(1300,185,o),
(1300,288,cs),
(1300,382,o),
(1257,446,o),
(1194,494,cs),
(1066,592,o),
(879,622,o),
(638,622,cs)
);
},
{
closed = 1;
nodes = (
(78,-247,o),
(201,-321,o),
(437,-321,cs),
(459,-321,ls),
(675,-321,o),
(861,-292,o),
(971,-72,cs),
(981,-53,l),
(792,-12,l),
(703,-165,o),
(638,-192,o),
(449,-192,cs),
(326,-192,o),
(241,-168,o),
(241,-95,cs),
(241,-72,o),
(246,-51,o),
(261,-26,c),
(123,40,l),
(95,-7,o),
(78,-53,o),
(78,-111,cs)
);
},
{
closed = 1;
nodes = (
(513,99,o),
(494,93,o),
(476,81,cs),
(452,65,o),
(440,42,o),
(440,-3,cs),
(440,-77,l),
(393,-77,l),
(393,73,l),
(296,73,l),
(296,-143,l),
(533,-143,ls),
(594,-143,o),
(624,-136,o),
(651,-113,cs),
(668,-98,o),
(679,-74,o),
(679,-37,cs),
(679,3,o),
(666,36,o),
(644,59,cs),
(621,84,o),
(591,99,o),
(546,99,cs)
);
},
{
closed = 1;
nodes = (
(572,33,o),
(587,9,o),
(587,-31,cs),
(587,-59,o),
(579,-77,o),
(550,-77,cs),
(534,-77,l),
(534,12,ls),
(534,25,o),
(540,33,o),
(550,33,cs)
);
},
{
closed = 1;
nodes = (
(591,121,o),
(618,146,o),
(618,179,cs),
(618,211,o),
(592,235,o),
(559,235,cs),
(527,235,o),
(502,211,o),
(502,179,cs),
(502,146,o),
(525,121,o),
(559,121,cs)
);
}
);
width = 1333;
}
);
unicode = 3024;
},
{
glyphname = zerotamil;
layers = (
{
anchors = (
{
name = Anchor10;
pos = (353,-29);
}
);
background = {
shapes = (
{
closed = 1;
nodes = (
(560,-12,o),
(662,104,o),
(662,286,cs),
(662,467,o),
(545,581,o),
(350,581,cs),
(155,581,o),
(38,467,o),
(38,286,cs),
(38,104,o),
(137,-12,o),
(349,-12,cs)
);
},
{
closed = 1;
nodes = (
(430,448,o),
(469,386,o),
(469,285,cs),
(469,184,o),
(434,120,o),
(350,120,cs),
(266,120,o),
(231,184,o),
(231,285,cs),
(231,386,o),
(270,448,o),
(350,448,cs)
);
}
);
};
layerId = "B104C26B-E498-4044-8731-03CD50407EE8";
shapes = (
{
closed = 1;
nodes = (
(560,-12,o),
(662,104,o),
(662,286,cs),
(662,467,o),
(545,581,o),
(350,581,cs),
(155,581,o),
(38,467,o),
(38,286,cs),
(38,104,o),
(137,-12,o),
(349,-12,cs)
);
},
{
closed = 1;
nodes = (
(430,448,o),
(469,386,o),
(469,285,cs),
(469,184,o),
(434,120,o),
(350,120,cs),
(266,120,o),
(231,184,o),
(231,285,cs),
(231,386,o),
(270,448,o),
(350,448,cs)
);
}
);
width = 701;
}
);
unicode = 3046;
},
{
glyphname = twotamil;
layers = (
{
anchors = (
{
name = Anchor10;
pos = (549,-29);
}
);
background = {
shapes = (
{
closed = 1;
nodes = (
(161,581,o),
(48,492,o),
(48,382,cs),
(48,295,o),
(92,239,o),
(162,188,c),
(342,221,l),
(272,266,o),
(228,306,o),
(228,365,cs),
(228,415,o),
(271,449,o),
(362,449,cs),
(453,449,o),
(516,429,o),
(516,368,cs),
(516,309,o),
(464,281,o),
(295,267,cs),
(200,259,ls),
(68,248,o),
(37,179,o),
(37,130,cs),
(37,64,o),
(72,0,o),
(237,0,cs),
(1082,0,l),
(1082,130,l),
(230,130,ls),
(217,130,o),
(211,134,o),
(211,140,cs),
(211,147,o),
(219,150,o),
(237,151,cs),
(359,161,ls),
(530,175,o),
(706,218,o),
(706,374,cs),
(706,475,o),
(616,581,o),
(365,581,cs)
);
}
);
};
layerId = "B104C26B-E498-4044-8731-03CD50407EE8";
shapes = (
{
closed = 1;
nodes = (
(161,581,o),
(48,492,o),
(48,382,cs),
(48,295,o),
(92,239,o),
(162,188,c),
(342,221,l),
(272,266,o),
(228,306,o),
(228,365,cs),
(228,415,o),
(271,449,o),
(362,449,cs),
(453,449,o),
(516,429,o),
(516,368,cs),
(516,309,o),
(464,281,o),
(295,267,cs),
(200,259,ls),
(68,248,o),
(37,179,o),
(37,130,cs),
(37,64,o),
(72,0,o),
(237,0,cs),
(1082,0,l),
(1082,130,l),
(230,130,ls),
(217,130,o),
(211,134,o),
(211,140,cs),
(211,147,o),
(219,150,o),
(237,151,cs),
(359,161,ls),
(530,175,o),
(706,218,o),
(706,374,cs),
(706,475,o),
(616,581,o),
(365,581,cs)
);
}
);
width = 1099;
}
);
unicode = 3048;
},
{
glyphname = threetamil;
layers = (
{
anchors = (
{
name = Anchor10;
pos = (594,-29);
}
);
background = {
shapes = (
{
closed = 1;
nodes = (
(258,0,l),
(258,439,l),
(378,439,l),
(378,172,l),
(568,172,l),
(568,214,l),
(595,232,o),
(618,240,o),
(643,240,cs),
(676,240,o),
(698,221,o),
(698,185,cs),
(698,159,o),
(691,144,o),
(682,130,c),
(378,130,l),
(378,0,l),
(1158,0,l),
(1158,130,l),
(867,130,l),
(878,149,o),
(887,174,o),
(887,217,cs),
(887,289,o),
(832,370,o),
(697,370,cs),
(647,370,o),
(608,361,o),
(568,338,c),
(568,439,l),
(771,439,l),
(771,569,l),
(68,569,l),
(68,0,l)
);
}
);
};
layerId = "B104C26B-E498-4044-8731-03CD50407EE8";
shapes = (
{
closed = 1;
nodes = (
(258,0,l),
(258,439,l),
(378,439,l),
(378,172,l),
(568,172,l),
(568,214,l),
(595,232,o),
(618,240,o),
(643,240,cs),
(676,240,o),
(698,221,o),
(698,185,cs),
(698,159,o),
(691,144,o),
(682,130,c),
(378,130,l),
(378,0,l),
(1158,0,l),
(1158,130,l),
(867,130,l),
(878,149,o),
(887,174,o),
(887,217,cs),
(887,289,o),
(832,370,o),
(697,370,cs),
(647,370,o),
(608,361,o),
(568,338,c),
(568,439,l),
(771,439,l),
(771,569,l),
(68,569,l),
(68,0,l)
);
}
);
width = 1175;
}
);
unicode = 3049;
},
{
glyphname = fourtamil;
layers = (
{
anchors = (
{
name = Anchor10;
pos = (564,-29);
}
);
background = {
shapes = (
{
closed = 1;
nodes = (
(424,-12,o),
(498,8,o),
(549,55,cs),
(595,98,o),
(619,162,o),
(619,252,cs),
(619,439,l),
(790,439,l),
(790,569,l),
(129,569,l),
(129,286,l),
(300,302,l),
(300,439,l),
(434,439,l),
(434,240,ls),
(434,144,o),
(389,118,o),
(315,118,cs),
(253,118,o),
(217,133,o),
(217,176,cs),
(217,196,o),
(227,211,o),
(247,221,cs),
(269,231,o),
(296,234,o),
(353,234,cs),
(810,234,l),
(810,355,l),
(379,355,ls),
(126,355,o),
(33,280,o),
(33,168,cs),
(33,50,o),
(131,-12,o),
(313,-12,cs)
);
},
{
closed = 1;
nodes = (
(1068,234,l),
(1068,569,l),
(878,569,l),
(878,355,l),
(713,355,l),
(713,234,l)
);
}
);
};
layerId = "B104C26B-E498-4044-8731-03CD50407EE8";
shapes = (
{
closed = 1;
nodes = (
(424,-12,o),
(498,8,o),
(549,55,cs),
(595,98,o),
(619,162,o),
(619,252,cs),
(619,439,l),
(790,439,l),
(790,569,l),
(129,569,l),
(129,286,l),
(300,302,l),
(300,439,l),
(434,439,l),
(434,240,ls),
(434,144,o),
(389,118,o),
(315,118,cs),
(253,118,o),
(217,133,o),
(217,176,cs),
(217,196,o),
(227,211,o),
(247,221,cs),
(269,231,o),
(296,234,o),
(353,234,cs),
(810,234,l),
(810,355,l),
(379,355,ls),
(126,355,o),
(33,280,o),
(33,168,cs),
(33,50,o),
(131,-12,o),
(313,-12,cs)
);
},
{
closed = 1;
nodes = (
(1068,234,l),
(1068,569,l),
(878,569,l),
(878,355,l),
(713,355,l),
(713,234,l)
);
}
);
width = 1128;
}
);
unicode = 3050;
},
{
glyphname = fivetamil;
layers = (
{
anchors = (
{
name = Anchor10;
pos = (615,-29);
}
);
background = {
shapes = (
{
closed = 1;
nodes = (
(664,-321,ls),
(974,-321,o),
(1198,-180,o),
(1198,94,cs),
(1198,239,o),
(1114,346,o),
(976,346,cs),
(927,346,o),
(877,335,o),
(840,314,c),
(851,191,l),
(872,208,o),
(895,217,o),
(920,217,cs),
(978,217,o),
(1008,175,o),
(1008,84,cs),
(1008,-86,o),
(889,-188,o),
(662,-188,cs),
(637,-188,ls),
(381,-188,o),
(233,-60,o),
(233,249,cs),
(233,274,ls),
(233,589,o),
(414,718,o),
(660,718,cs),
(835,718,o),
(929,675,o),
(1082,593,c),
(1147,727,l),
(997,800,o),
(870,851,o),
(663,851,cs),
(226,851,o),
(51,555,o),
(51,266,cs),
(51,245,ls),
(51,-86,o),
(248,-321,o),
(643,-321,cs)
);
},
{
closed = 1;
nodes = (
(563,0,l),
(563,439,l),
(687,439,l),
(687,0,l),
(877,0,l),
(877,439,l),
(1009,439,l),
(1009,569,l),
(373,569,l),
(373,0,l)
);
}
);
};
layerId = "B104C26B-E498-4044-8731-03CD50407EE8";
shapes = (
{
closed = 1;
nodes = (
(664,-321,ls),
(974,-321,o),
(1198,-180,o),
(1198,94,cs),
(1198,239,o),
(1114,346,o),
(976,346,cs),
(927,346,o),
(877,335,o),
(840,314,c),
(851,191,l),
(872,208,o),
(895,217,o),
(920,217,cs),
(978,217,o),
(1008,175,o),
(1008,84,cs),
(1008,-86,o),
(889,-188,o),
(662,-188,cs),
(637,-188,ls),
(381,-188,o),
(233,-60,o),
(233,249,cs),
(233,274,ls),
(233,589,o),
(414,718,o),
(660,718,cs),
(835,718,o),
(929,675,o),
(1082,593,c),
(1147,727,l),
(997,800,o),
(870,851,o),
(663,851,cs),
(226,851,o),
(51,555,o),
(51,266,cs),
(51,245,ls),
(51,-86,o),
(248,-321,o),
(643,-321,cs)
);
},
{
closed = 1;
nodes = (
(563,0,l),
(563,439,l),
(687,439,l),
(687,0,l),
(877,0,l),
(877,439,l),
(1009,439,l),
(1009,569,l),
(373,569,l),
(373,0,l)
);
}
);
width = 1231;
}
);
unicode = 3051;
},
{
glyphname = sixtamil;
layers = (
{
anchors = (
{
name = Anchor10;
pos = (602,-29);
}
);
background = {
shapes = (
{
closed = 1;
nodes = (
(424,-12,o),
(498,8,o),
(549,55,cs),
(595,98,o),
(619,162,o),
(619,252,cs),
(619,439,l),
(810,439,l),
(810,569,l),
(129,569,l),
(129,286,l),
(300,302,l),
(300,439,l),
(434,439,l),
(434,240,ls),
(434,144,o),
(389,118,o),
(315,118,cs),
(253,118,o),
(217,133,o),
(217,176,cs),
(217,196,o),
(227,211,o),
(247,221,cs),
(269,231,o),
(296,234,o),
(353,234,cs),
(1178,234,l),
(1178,355,l),
(379,355,ls),
(126,355,o),
(33,280,o),
(33,168,cs),
(33,50,o),
(131,-12,o),
(313,-12,cs)
);
},
{
closed = 1;
nodes = (
(859,0,l),
(859,267,l),
(689,275,l),
(689,0,l)
);
},
{
closed = 1;
nodes = (
(1103,0,l),
(1103,267,l),
(933,275,l),
(933,0,l)
);
}
);
};
layerId = "B104C26B-E498-4044-8731-03CD50407EE8";
shapes = (
{
closed = 1;
nodes = (
(424,-12,o),
(498,8,o),
(549,55,cs),
(595,98,o),
(619,162,o),
(619,252,cs),
(619,439,l),
(810,439,l),
(810,569,l),
(129,569,l),
(129,286,l),
(300,302,l),
(300,439,l),
(434,439,l),
(434,240,ls),
(434,144,o),
(389,118,o),
(315,118,cs),
(253,118,o),
(217,133,o),
(217,176,cs),
(217,196,o),
(227,211,o),
(247,221,cs),
(269,231,o),
(296,234,o),
(353,234,cs),
(1178,234,l),
(1178,355,l),
(379,355,ls),
(126,355,o),
(33,280,o),
(33,168,cs),
(33,50,o),
(131,-12,o),
(313,-12,cs)
);
},
{
closed = 1;
nodes = (
(859,0,l),
(859,267,l),
(689,275,l),
(689,0,l)
);
},
{
closed = 1;
nodes = (
(1103,0,l),
(1103,267,l),
(933,275,l),
(933,0,l)
);
}
);
width = 1204;
}
);
unicode = 3052;
},
{
glyphname = eighttamil;
layers = (
{
anchors = (
{
name = Anchor10;
pos = (638,-29);
}
);
background = {
shapes = (
{
closed = 1;
nodes = (
(390,-152,ls),
(674,-152,o),
(853,-56,o),
(927,125,c),
(927,168,l),
(930,190,o),
(933,214,o),
(933,239,cs),
(933,421,o),
(819,581,o),
(574,581,cs),
(391,581,o),
(287,499,o),
(287,365,cs),
(287,251,o),
(353,184,o),
(461,105,c),
(582,182,l),
(505,233,o),
(465,288,o),
(465,349,cs),
(465,418,o),
(512,449,o),
(572,449,cs),
(689,449,o),
(753,344,o),
(753,234,cs),
(753,216,o),
(751,197,o),
(748,177,c),
(749,143,l),
(711,48,o),
(611,-22,o),
(397,-22,cs),
(389,-22,ls),
(261,-22,o),
(206,4,o),
(206,44,cs),
(206,54,o),
(209,62,o),
(218,67,cs),
(227,72,o),
(234,72,o),
(252,72,cs),
(1037,72,l),
(1041,200,l),
(249,200,ls),
(168,200,o),
(119,197,o),
(76,171,cs),
(44,151,o),
(22,119,o),
(22,65,cs),
(22,-63,o),
(147,-152,o),
(369,-152,cs)
);
},
{
closed = 1;
nodes = (
(1209,-154,l),
(1209,569,l),
(1019,569,l),
(1019,-154,l)
);
}
);
};
layerId = "B104C26B-E498-4044-8731-03CD50407EE8";
shapes = (
{
closed = 1;
nodes = (
(390,-152,l),
(674,-152,o),
(853,-56,o),
(927,125,c),
(927,168,l),
(930,190,o),
(933,214,o),
(933,239,cs),
(933,421,o),
(819,581,o),
(574,581,cs),
(391,581,o),
(287,499,o),
(287,365,cs),
(287,251,o),
(353,184,o),
(461,105,c),
(582,182,l),
(505,233,o),
(465,288,o),
(465,349,cs),
(465,418,o),
(512,449,o),
(572,449,cs),
(689,449,o),
(753,344,o),
(753,234,cs),
(753,216,o),
(751,197,o),
(748,177,c),
(749,143,l),
(711,48,o),
(611,-22,o),
(397,-22,cs),
(389,-22,ls),
(261,-22,o),
(206,4,o),
(206,44,cs),
(206,54,o),
(209,62,o),
(218,67,cs),
(227,72,o),
(234,72,o),
(252,72,cs),
(1037,72,l),
(1041,200,l),
(249,200,ls),
(168,200,o),
(119,197,o),
(76,171,cs),
(44,151,o),
(22,119,o),
(22,65,cs),
(22,-63,o),
(147,-152,o),
(369,-152,cs)
);
},
{
closed = 1;
nodes = (
(1209,-154,l),
(1209,569,l),
(1019,569,l),
(1019,-154,l)
);
}
);
width = 1277;
}
);
unicode = 3054;
},
{
glyphname = ninetamil;
layers = (
{
anchors = (
{
name = Anchor10;
pos = (713,-29);
}
);
background = {
shapes = (
{
closed = 1;
nodes = (
(424,-12,o),
(498,8,o),
(549,55,cs),
(595,98,o),
(619,162,o),
(619,252,cs),
(619,439,l),
(810,439,l),
(810,569,l),
(129,569,l),
(129,286,l),
(300,302,l),
(300,439,l),
(434,439,l),
(434,240,ls),
(434,144,o),
(389,118,o),
(315,118,cs),
(253,118,o),
(217,133,o),
(217,176,cs),
(217,196,o),
(227,211,o),
(247,221,cs),
(269,231,o),
(295,234,o),
(352,234,cs),
(699,234,l),
(699,355,l),
(378,355,ls),
(125,355,o),
(33,280,o),
(33,168,cs),
(33,50,o),
(131,-12,o),
(313,-12,cs)
);
},
{
closed = 1;
nodes = (
(1058,-12,o),
(1131,55,o),
(1131,165,cs),
(1131,286,o),
(1035,348,o),
(868,348,c),
(827,355,l),
(820,355,o),
(808,355,o),
(782,355,cs),
(638,355,l),
(637,234,l),
(851,234,ls),
(960,234,o),
(971,186,o),
(971,159,cs),
(971,125,o),
(951,109,o),
(926,109,cs),
(885,109,o),
(869,139,o),
(869,180,cs),
(869,224,o),
(883,249,o),
(898,271,c),
(907,291,l),
(935,327,o),
(986,354,o),
(1050,354,cs),
(1167,354,o),
(1212,284,o),
(1212,208,cs),
(1212,145,o),
(1191,103,o),
(1161,62,c),
(1316,-17,l),
(1359,57,o),
(1392,133,o),
(1392,220,cs),
(1392,331,o),
(1335,478,o),
(1063,478,cs),
(903,478,o),
(784,407,o),
(732,313,c),
(732,285,l),
(717,250,o),
(705,212,o),
(705,174,cs),
(705,51,o),
(790,-12,o),
(927,-12,cs)
);
}
);
};
layerId = "B104C26B-E498-4044-8731-03CD50407EE8";
shapes = (
{
closed = 1;
nodes = (
(424,-12,o),
(498,8,o),
(549,55,cs),
(595,98,o),
(619,162,o),
(619,252,cs),
(619,439,l),
(810,439,l),
(810,569,l),
(129,569,l),
(129,286,l),
(300,302,l),
(300,439,l),
(434,439,l),
(434,240,ls),
(434,144,o),
(389,118,o),
(315,118,cs),
(253,118,o),
(217,133,o),
(217,176,cs),
(217,196,o),
(227,211,o),
(247,221,cs),
(269,231,o),
(295,234,o),
(352,234,cs),
(699,234,l),
(699,355,l),
(378,355,ls),
(125,355,o),
(33,280,o),
(33,168,cs),
(33,50,o),
(131,-12,o),
(313,-12,cs)
);
},
{
closed = 1;
nodes = (
(1058,-12,o),
(1131,55,o),
(1131,165,cs),
(1131,286,o),
(1035,348,o),
(868,348,c),
(827,355,l),
(820,355,o),
(808,355,o),
(782,355,cs),
(638,355,l),
(637,234,l),
(851,234,ls),
(960,234,o),
(971,186,o),
(971,159,cs),
(971,125,o),
(951,109,o),
(926,109,cs),
(885,109,o),
(869,139,o),
(869,180,cs),
(869,224,o),
(883,249,o),
(898,271,c),
(907,291,l),
(935,327,o),
(986,354,o),
(1050,354,cs),
(1167,354,o),
(1212,284,o),
(1212,208,cs),
(1212,145,o),
(1191,103,o),
(1161,62,c),
(1316,-17,l),
(1359,57,o),
(1392,133,o),
(1392,220,cs),
(1392,331,o),
(1335,478,o),
(1063,478,cs),
(903,478,o),
(784,407,o),
(732,313,c),
(732,285,l),
(717,250,o),
(705,212,o),
(705,174,cs),
(705,51,o),
(790,-12,o),
(927,-12,cs)
);
}
);
width = 1426;
}
);
unicode = 3055;
},
{
glyphname = tentamil;
layers = (
{
background = {
shapes = (
{
closed = 1;
nodes = (
(416,-12,o),
(467,42,o),
(515,129,c),
(452,127,l),
(509,39,o),
(574,-12,o),
(699,-12,cs),
(923,-12,o),
(985,165,o),
(985,372,cs),
(985,406,ls),
(985,582,o),
(938,707,o),
(840,782,cs),
(782,826,o),
(706,851,o),
(619,851,cs),
(508,851,o),
(438,831,o),
(354,797,c),
(403,672,l),
(475,705,o),
(521,721,o),
(599,721,cs),
(727,721,o),
(795,617,o),
(795,387,cs),
(795,190,o),
(751,118,o),
(676,118,cs),
(647,118,o),
(628,126,o),
(613,140,cs),
(585,166,o),
(577,205,o),
(577,271,cs),
(577,569,l),
(387,569,l),
(387,272,ls),
(387,197,o),
(385,161,o),
(367,138,cs),
(357,126,o),
(344,118,o),
(324,118,cs),
(304,118,o),
(289,125,o),
(279,137,cs),
(258,162,o),
(256,203,o),
(256,265,cs),
(256,569,l),
(66,569,l),
(66,259,ls),
(66,140,o),
(98,75,o),
(153,33,cs),
(191,4,o),
(241,-12,o),
(305,-12,cs)
);
}
);
};
layerId = "B104C26B-E498-4044-8731-03CD50407EE8";
shapes = (
{
closed = 1;
nodes = (
(416,-12,o),
(467,42,o),
(515,129,c),
(452,127,l),
(509,39,o),
(574,-12,o),
(699,-12,cs),
(923,-12,o),
(985,165,o),
(985,372,cs),
(985,406,ls),
(985,582,o),
(938,707,o),
(840,782,cs),
(782,826,o),
(706,851,o),
(619,851,cs),
(508,851,o),
(438,831,o),
(354,797,c),
(403,672,l),
(475,705,o),
(521,721,o),
(599,721,cs),
(727,721,o),
(795,617,o),
(795,387,cs),
(795,190,o),
(751,118,o),
(676,118,cs),
(647,118,o),
(628,126,o),
(613,140,cs),
(585,166,o),
(577,205,o),
(577,271,cs),
(577,569,l),
(387,569,l),
(387,272,ls),
(387,197,o),
(385,161,o),
(367,138,cs),
(357,126,o),
(344,118,o),
(324,118,cs),
(304,118,o),
(289,125,o),
(279,137,cs),
(258,162,o),
(256,203,o),
(256,265,cs),
(256,569,l),
(66,569,l),
(66,259,ls),
(66,140,o),
(98,75,o),
(153,33,cs),
(191,4,o),
(241,-12,o),
(305,-12,cs)
);
}
);
width = 1037;
}
);
unicode = 3056;
},
{
glyphname = hundredtamil;
layers = (
{
background = {
shapes = (
{
closed = 1;
nodes = (
(567,0,l),
(567,439,l),
(691,439,l),
(691,0,l),
(881,0,l),
(881,439,l),
(1013,439,l),
(1013,569,l),
(377,569,l),
(377,0,l)
);
},
{
closed = 1;
nodes = (
(202,581,o),
(157,565,o),
(123,533,cs),
(85,496,o),
(65,440,o),
(65,344,cs),
(65,0,l),
(255,0,l),
(255,340,ls),
(255,390,o),
(258,420,o),
(275,437,cs),
(285,447,o),
(299,452,o),
(319,452,cs),
(361,452,o),
(383,426,o),
(402,393,c),
(406,520,l),
(370,557,o),
(332,581,o),
(257,581,cs)
);
}
);
};
layerId = "B104C26B-E498-4044-8731-03CD50407EE8";
shapes = (
{
closed = 1;
nodes = (
(567,0,l),
(567,439,l),
(691,439,l),
(691,0,l),
(881,0,l),
(881,439,l),
(1013,439,l),
(1013,569,l),
(377,569,l),
(377,0,l)
);
},
{
closed = 1;
nodes = (
(202,581,o),
(157,565,o),
(123,533,cs),
(85,496,o),
(65,440,o),
(65,344,cs),
(65,0,l),
(255,0,l),
(255,340,ls),
(255,390,o),
(258,420,o),
(275,437,cs),
(285,447,o),
(299,452,o),
(319,452,cs),
(361,452,o),
(383,426,o),
(402,393,c),
(406,520,l),
(370,557,o),
(332,581,o),
(257,581,cs)
);
}
);
width = 1030;
}
);
unicode = 3057;
},
{
glyphname = thousandtamil;
layers = (
{
background = {
shapes = (
{
closed = 1;
nodes = (
(935,205,o),
(883,187,o),
(846,167,c),
(857,49,l),
(890,69,o),
(914,79,o),
(947,79,cs),
(978,79,o),
(1003,64,o),
(1003,28,cs),
(1003,2,o),
(994,-18,o),
(969,-31,cs),
(945,-43,o),
(921,-50,o),
(845,-50,cs),
(294,-50,ls),
(186,-50,o),
(146,-62,o),
(102,-91,cs),
(58,-120,o),
(30,-169,o),
(30,-231,cs),
(30,-262,o),
(32,-291,o),
(36,-322,c),
(223,-312,l),
(222,-299,o),
(220,-286,o),
(220,-269,cs),
(220,-235,o),
(231,-214,o),
(250,-200,cs),
(273,-184,o),
(300,-180,o),
(361,-180,cs),
(835,-180,ls),
(952,-180,o),
(1033,-167,o),
(1087,-134,cs),
(1143,-100,o),
(1181,-50,o),
(1181,39,cs),
(1181,136,o),
(1112,205,o),
(994,205,cs)
);
},
{
closed = 1;
nodes = (
(424,-12,o),
(498,8,o),
(549,55,cs),
(595,98,o),
(619,162,o),
(619,252,cs),
(619,439,l),
(810,439,l),
(810,569,l),
(129,569,l),
(129,286,l),
(300,302,l),
(300,439,l),
(434,439,l),
(434,240,ls),
(434,144,o),
(389,118,o),
(315,118,cs),
(253,118,o),
(217,133,o),
(217,176,cs),
(217,196,o),
(227,211,o),
(247,221,cs),
(269,231,o),
(296,234,o),
(353,234,cs),
(989,234,l),
(989,355,l),
(379,355,ls),
(126,355,o),
(33,280,o),
(33,168,cs),
(33,50,o),
(131,-12,o),
(313,-12,cs)
);
},
{
closed = 1;
nodes = (
(882,0,l),
(882,267,l),
(705,275,l),
(705,0,l)
);
}
);
};
layerId = "B104C26B-E498-4044-8731-03CD50407EE8";
shapes = (
{
closed = 1;
nodes = (
(935,205,o),
(883,187,o),
(846,167,c),
(857,49,l),
(890,69,o),
(914,79,o),
(947,79,cs),
(978,79,o),
(1003,64,o),
(1003,28,cs),
(1003,2,o),
(994,-18,o),
(969,-31,cs),
(945,-43,o),
(921,-50,o),
(845,-50,cs),
(294,-50,ls),
(186,-50,o),
(146,-62,o),
(102,-91,cs),
(58,-120,o),
(30,-169,o),
(30,-231,cs),
(30,-262,o),
(32,-291,o),
(36,-322,c),
(223,-312,l),
(222,-299,o),
(220,-286,o),
(220,-269,cs),
(220,-235,o),
(231,-214,o),
(250,-200,cs),
(273,-184,o),
(300,-180,o),
(361,-180,cs),
(835,-180,ls),
(952,-180,o),
(1033,-167,o),
(1087,-134,cs),
(1143,-100,o),
(1181,-50,o),
(1181,39,cs),
(1181,136,o),
(1112,205,o),
(994,205,cs)
);
},
{
closed = 1;
nodes = (
(424,-12,o),
(498,8,o),
(549,55,cs),
(595,98,o),
(619,162,o),
(619,252,cs),
(619,439,l),
(810,439,l),
(810,569,l),
(129,569,l),
(129,286,l),
(300,302,l),
(300,439,l),
(434,439,l),
(434,240,ls),
(434,144,o),
(389,118,o),
(315,118,cs),
(253,118,o),
(217,133,o),
(217,176,cs),
(217,196,o),
(227,211,o),
(247,221,cs),
(269,231,o),
(296,234,o),
(353,234,cs),
(989,234,l),
(989,355,l),
(379,355,ls),
(126,355,o),
(33,280,o),
(33,168,cs),
(33,50,o),
(131,-12,o),
(313,-12,cs)
);
},
{
closed = 1;
nodes = (
(882,0,l),
(882,267,l),
(705,275,l),
(705,0,l)
);
}
);
width = 1189;
}
);
unicode = 3058;
},
{
glyphname = daysigntamil;
layers = (
{
background = {
shapes = (
{
closed = 1;
nodes = (
(449,-12,o),
(521,61,o),
(521,177,cs),
(521,293,o),
(450,355,o),
(335,355,cs),
(248,355,o),
(184,311,o),
(124,261,c),
(156,162,l),
(193,204,o),
(230,234,o),
(278,234,cs),
(315,234,o),
(340,217,o),
(340,174,cs),
(340,135,o),
(321,114,o),
(283,114,cs),
(231,114,o),
(209,157,o),
(209,235,cs),
(209,369,o),
(285,451,o),
(415,451,cs),
(528,451,o),
(601,381,o),
(601,259,cs),
(601,198,o),
(589,142,o),
(564,99,c),
(570,0,l),
(1140,0,l),
(1140,130,l),
(762,130,l),
(783,175,o),
(791,236,o),
(791,283,cs),
(791,446,o),
(686,581,o),
(428,581,cs),
(204,581,o),
(37,469,o),
(37,245,cs),
(37,79,o),
(127,-12,o),
(285,-12,cs)
);
}
);
};
layerId = "B104C26B-E498-4044-8731-03CD50407EE8";
shapes = (
{
closed = 1;
nodes = (
(449,-12,o),
(521,61,o),
(521,177,cs),
(521,293,o),
(450,355,o),
(335,355,cs),
(248,355,o),
(184,311,o),
(124,261,c),
(156,162,l),
(193,204,o),
(230,234,o),
(278,234,cs),
(315,234,o),
(340,217,o),
(340,174,cs),
(340,135,o),
(321,114,o),
(283,114,cs),
(231,114,o),
(209,157,o),
(209,235,cs),
(209,369,o),
(285,451,o),
(415,451,cs),
(528,451,o),
(601,381,o),
(601,259,cs),
(601,198,o),
(589,142,o),
(564,99,c),
(570,0,l),
(1140,0,l),
(1140,130,l),
(762,130,l),
(783,175,o),
(791,236,o),
(791,283,cs),
(791,446,o),
(686,581,o),
(428,581,cs),
(204,581,o),
(37,469,o),
(37,245,cs),
(37,79,o),
(127,-12,o),
(285,-12,cs)
);
}
);
width = 1157;
}
);
unicode = 3059;
},
{
glyphname = monthsigntamil;
layers = (
{
background = {
shapes = (
{
closed = 1;
nodes = (
(576,581,o),
(515,563,o),
(475,528,cs),
(433,492,o),
(410,442,o),
(410,351,cs),
(410,130,l),
(258,130,l),
(258,569,l),
(68,569,l),
(68,0,l),
(589,0,ls),
(717,0,o),
(787,15,o),
(842,57,cs),
(897,98,o),
(930,166,o),
(930,275,cs),
(930,445,o),
(845,581,o),
(641,581,cs)
);
},
{
closed = 1;
nodes = (
(717,451,o),
(742,385,o),
(742,276,cs),
(742,166,o),
(703,130,o),
(616,130,cs),
(600,130,l),
(600,356,ls),
(600,402,o),
(603,418,o),
(617,434,cs),
(626,445,o),
(641,451,o),
(657,451,cs)
);
},
{
closed = 1;
nodes = (
(1068,469,o),
(1135,499,o),
(1135,594,cs),
(1135,634,o),
(1122,662,o),
(1101,682,cs),
(1072,709,o),
(1035,720,o),
(972,720,cs),
(872,720,ls),
(726,720,o),
(651,663,o),
(651,551,c),
(784,516,l),
(784,540,ls),
(784,579,o),
(798,621,o),
(864,621,cs),
(970,621,ls),
(994,621,o),
(1007,619,o),
(1016,612,cs),
(1022,607,o),
(1026,600,o),
(1026,590,cs),
(1026,572,o),
(1015,563,o),
(994,563,cs),
(965,563,o),
(955,585,o),
(955,613,cs),
(955,624,o),
(956,637,o),
(959,657,c),
(975,708,o),
(1010,738,o),
(1077,738,cs),
(1159,738,o),
(1189,682,o),
(1189,636,cs),
(1189,596,o),
(1177,564,o),
(1165,546,c),
(1165,474,l),
(1427,474,l),
(1427,584,l),
(1279,584,l),
(1306,562,l),
(1313,575,o),
(1326,618,o),
(1326,659,cs),
(1326,772,o),
(1248,850,o),
(1092,850,cs),
(952,850,o),
(867,778,o),
(838,679,c),
(834,659,o),
(833,638,o),
(833,617,cs),
(833,524,o),
(891,469,o),
(994,469,cs)
);
}
);
};
layerId = "B104C26B-E498-4044-8731-03CD50407EE8";
shapes = (
{
closed = 1;
nodes = (
(576,581,o),
(515,563,o),
(475,528,cs),
(433,492,o),
(410,442,o),
(410,351,cs),
(410,130,l),
(258,130,l),
(258,569,l),
(68,569,l),
(68,0,l),
(589,0,ls),
(717,0,o),
(787,15,o),
(842,57,cs),
(897,98,o),
(930,166,o),
(930,275,cs),
(930,445,o),
(845,581,o),
(641,581,cs)
);
},
{
closed = 1;
nodes = (
(717,451,o),
(742,385,o),
(742,276,cs),
(742,166,o),
(703,130,o),
(616,130,cs),
(600,130,l),
(600,356,ls),
(600,402,o),
(603,418,o),
(617,434,cs),
(626,445,o),
(641,451,o),
(657,451,cs)
);
},
{
closed = 1;
nodes = (
(1068,469,o),
(1135,499,o),
(1135,594,cs),
(1135,634,o),
(1122,662,o),
(1101,682,cs),
(1072,709,o),
(1035,720,o),
(972,720,cs),
(872,720,ls),
(726,720,o),
(651,663,o),
(651,551,c),
(784,516,l),
(784,540,ls),
(784,579,o),
(798,621,o),
(864,621,cs),
(970,621,ls),
(994,621,o),
(1007,619,o),
(1016,612,cs),
(1022,607,o),
(1026,600,o),
(1026,590,cs),
(1026,572,o),
(1015,563,o),
(994,563,cs),
(965,563,o),
(955,585,o),
(955,613,cs),
(955,624,o),
(956,637,o),
(959,657,c),
(975,708,o),
(1010,738,o),
(1077,738,cs),
(1159,738,o),
(1189,682,o),
(1189,636,cs),
(1189,596,o),
(1177,564,o),
(1165,546,c),
(1165,474,l),
(1427,474,l),
(1427,584,l),
(1279,584,l),
(1306,562,l),
(1313,575,o),
(1326,618,o),
(1326,659,cs),
(1326,772,o),
(1248,850,o),
(1092,850,cs),
(952,850,o),
(867,778,o),
(838,679,c),
(834,659,o),
(833,638,o),
(833,617,cs),
(833,524,o),
(891,469,o),
(994,469,cs)
);
}
);
width = 1444;
}
);
unicode = 3060;
},
{
glyphname = yearsigntamil;
layers = (
{
background = {
shapes = (
{
closed = 1;
nodes = (
(1482,715,o),
(1744,709,o),
(1891,568,cs),
(1964,498,o),
(2003,394,o),
(2023,242,cs),
(2037,137,o),
(2069,67,o),
(2124,31,cs),
(2167,3,o),
(2218,-12,o),
(2300,-12,cs),
(2493,-12,o),
(2578,112,o),
(2578,266,cs),
(2578,388,o),
(2540,501,o),
(2443,615,c),
(2286,526,l),
(2356,440,o),
(2388,345,o),
(2388,253,cs),
(2388,150,o),
(2359,118,o),
(2304,118,cs),
(2278,118,o),
(2257,126,o),
(2243,141,cs),
(2225,160,o),
(2214,187,o),
(2205,285,cs),
(2188,480,o),
(2121,606,o),
(1990,696,cs),
(1786,837,o),
(1543,851,o),
(1225,851,cs),
(1065,851,ls),
(477,851,o),
(41,719,o),
(41,278,cs),
(41,265,ls),
(41,-211,o),
(472,-321,o),
(1015,-321,cs),
(1155,-321,ls),
(1514,-321,o),
(1981,-241,o),
(1981,106,cs),
(1981,255,o),
(1900,346,o),
(1766,346,cs),
(1728,346,o),
(1690,339,o),
(1665,329,c),
(1665,439,l),
(1799,439,l),
(1799,569,l),
(1176,569,l),
(1176,0,l),
(1366,0,l),
(1366,439,l),
(1475,439,l),
(1475,0,l),
(1665,0,l),
(1665,203,l),
(1680,211,o),
(1697,217,o),
(1716,217,cs),
(1768,217,o),
(1794,174,o),
(1794,110,cs),
(1794,-123,o),
(1477,-185,o),
(1159,-185,cs),
(1042,-185,ls),
(542,-185,o),
(230,-98,o),
(230,264,cs),
(230,277,ls),
(230,608,o),
(514,715,o),
(1111,715,cs)
);
},
{
closed = 1;
nodes = (
(743,-12,o),
(815,61,o),
(815,177,cs),
(815,293,o),
(744,355,o),
(629,355,cs),
(542,355,o),
(478,311,o),
(418,261,c),
(450,162,l),
(487,204,o),
(524,234,o),
(572,234,cs),
(609,234,o),
(634,217,o),
(634,174,cs),
(634,135,o),
(615,114,o),
(577,114,cs),
(525,114,o),
(503,157,o),
(503,235,cs),
(503,369,o),
(579,451,o),
(709,451,cs),
(822,451,o),
(895,381,o),
(895,259,cs),
(895,198,o),
(883,142,o),
(858,99,c),
(864,0,l),
(1231,0,l),
(1227,130,l),
(1056,130,l),
(1077,175,o),
(1085,236,o),
(1085,283,cs),
(1085,446,o),
(980,581,o),
(722,581,cs),
(498,581,o),
(331,469,o),
(331,245,cs),
(331,79,o),
(421,-12,o),
(579,-12,cs)
);
}
);
};
layerId = "B104C26B-E498-4044-8731-03CD50407EE8";
shapes = (
{
closed = 1;
nodes = (
(1482,715,o),
(1744,709,o),
(1891,568,cs),
(1964,498,o),
(2003,394,o),
(2023,242,cs),
(2037,137,o),
(2069,67,o),
(2124,31,cs),
(2167,3,o),
(2218,-12,o),
(2300,-12,cs),
(2493,-12,o),
(2578,112,o),
(2578,266,cs),
(2578,388,o),
(2540,501,o),
(2443,615,c),
(2286,526,l),
(2356,440,o),
(2388,345,o),
(2388,253,cs),
(2388,150,o),
(2359,118,o),
(2304,118,cs),
(2278,118,o),
(2257,126,o),
(2243,141,cs),
(2225,160,o),
(2214,187,o),
(2205,285,cs),
(2188,480,o),
(2121,606,o),
(1990,696,cs),
(1786,837,o),
(1543,851,o),
(1225,851,cs),
(1065,851,ls),
(477,851,o),
(41,719,o),
(41,278,cs),
(41,265,ls),
(41,-211,o),
(472,-321,o),
(1015,-321,cs),
(1155,-321,ls),
(1514,-321,o),
(1981,-241,o),
(1981,106,cs),
(1981,255,o),
(1900,346,o),
(1766,346,cs),
(1728,346,o),
(1690,339,o),
(1665,329,c),
(1665,439,l),
(1799,439,l),
(1799,569,l),
(1176,569,l),
(1176,0,l),
(1366,0,l),
(1366,439,l),
(1475,439,l),
(1475,0,l),
(1665,0,l),
(1665,203,l),
(1680,211,o),
(1697,217,o),
(1716,217,cs),
(1768,217,o),
(1794,174,o),
(1794,110,cs),
(1794,-123,o),
(1477,-185,o),
(1159,-185,cs),
(1042,-185,ls),
(542,-185,o),
(230,-98,o),
(230,264,cs),
(230,277,ls),
(230,608,o),
(514,715,o),
(1111,715,cs)
);
},
{
closed = 1;
nodes = (
(743,-12,o),
(815,61,o),
(815,177,cs),
(815,293,o),
(744,355,o),
(629,355,cs),
(542,355,o),
(478,311,o),
(418,261,c),
(450,162,l),
(487,204,o),
(524,234,o),
(572,234,cs),
(609,234,o),
(634,217,o),
(634,174,cs),
(634,135,o),
(615,114,o),
(577,114,cs),
(525,114,o),
(503,157,o),
(503,235,cs),
(503,369,o),
(579,451,o),
(709,451,cs),
(822,451,o),
(895,381,o),
(895,259,cs),
(895,198,o),
(883,142,o),
(858,99,c),
(864,0,l),
(1231,0,l),
(1227,130,l),
(1056,130,l),
(1077,175,o),
(1085,236,o),
(1085,283,cs),
(1085,446,o),
(980,581,o),
(722,581,cs),
(498,581,o),
(331,469,o),
(331,245,cs),
(331,79,o),
(421,-12,o),
(579,-12,cs)
);
}
);
width = 2619;
}
);
unicode = 3061;
},
{
glyphname = debitsigntamil;
layers = (
{
background = {
shapes = (
{
closed = 1;
nodes = (
(485,-321,o),
(632,-278,o),
(719,-157,c),
(753,-71,ls),
(767,-35,o),
(776,9,o),
(776,70,cs),
(776,132,l),
(586,89,l),
(586,30,ls),
(586,-8,o),
(579,-51,o),
(563,-81,cs),
(528,-145,l),
(475,-189,o),
(398,-205,o),
(300,-205,cs),
(236,-205,o),
(191,-194,o),
(191,-173,cs),
(191,-164,o),
(198,-161,o),
(208,-161,cs),
(546,-161,l),
(618,-180,l),
(1094,-180,l),
(1094,569,l),
(904,569,l),
(904,-50,l),
(181,-50,ls),
(128,-50,o),
(86,-59,o),
(59,-79,cs),
(37,-96,o),
(25,-120,o),
(25,-153,cs),
(25,-274,o),
(152,-321,o),
(300,-321,cs)
);
},
{
closed = 1;
nodes = (
(597,130,l),
(258,130,l),
(258,569,l),
(68,569,l),
(68,0,l),
(597,0,l)
);
},
{
closed = 1;
nodes = (
(586,569,l),
(586,53,l),
(776,95,l),
(776,569,l)
);
}
);
};
layerId = "B104C26B-E498-4044-8731-03CD50407EE8";
shapes = (
{
closed = 1;
nodes = (
(485,-321,o),
(632,-278,o),
(719,-157,c),
(753,-71,l),
(767,-35,o),
(776,9,o),
(776,70,cs),
(776,132,l),
(586,89,l),
(586,30,ls),
(586,-8,o),
(579,-51,o),
(563,-81,c),
(528,-145,l),
(475,-189,o),
(398,-205,o),
(300,-205,cs),
(236,-205,o),
(191,-194,o),
(191,-173,cs),
(191,-164,o),
(198,-161,o),
(208,-161,cs),
(546,-161,l),
(618,-180,l),
(1094,-180,l),
(1094,569,l),
(904,569,l),
(904,-50,l),
(181,-50,ls),
(128,-50,o),
(86,-59,o),
(59,-79,cs),
(37,-96,o),
(25,-120,o),
(25,-153,cs),
(25,-274,o),
(152,-321,o),
(300,-321,cs)
);
},
{
closed = 1;
nodes = (
(597,130,l),
(258,130,l),
(258,569,l),
(68,569,l),
(68,0,l),
(597,0,l)
);
},
{
closed = 1;
nodes = (
(586,569,l),
(586,53,l),
(776,95,l),
(776,569,l)
);
}
);
width = 1162;
}
);
unicode = 3062;
},
{
glyphname = creditsigntamil;
layers = (
{
background = {
shapes = (
{
closed = 1;
nodes = (
(449,-12,o),
(521,61,o),
(521,177,cs),
(521,294,o),
(447,355,o),
(335,355,cs),
(248,355,o),
(184,311,o),
(124,261,c),
(156,162,l),
(193,204,o),
(230,234,o),
(278,234,cs),
(315,234,o),
(340,217,o),
(340,174,cs),
(340,135,o),
(321,114,o),
(283,114,cs),
(231,114,o),
(209,158,o),
(209,226,cs),
(209,314,o),
(240,366,o),
(287,398,cs),
(329,427,o),
(394,439,o),
(485,439,cs),
(574,439,l),
(574,569,l),
(530,569,ls),
(340,569,o),
(234,550,o),
(146,482,cs),
(80,431,o),
(37,355,o),
(37,239,cs),
(37,79,o),
(127,-12,o),
(285,-12,cs)
);
},
{
closed = 1;
nodes = (
(781,0,l),
(781,439,l),
(913,439,l),
(913,569,l),
(551,569,l),
(535,439,l),
(591,439,l),
(591,0,l)
);
},
{
closed = 1;
nodes = (
(1068,-5,o),
(1135,25,o),
(1135,120,cs),
(1135,160,o),
(1122,188,o),
(1101,208,cs),
(1072,235,o),
(1035,246,o),
(972,246,cs),
(754,246,l),
(775,147,l),
(970,147,ls),
(994,147,o),
(1007,145,o),
(1016,138,cs),
(1022,133,o),
(1026,126,o),
(1026,116,cs),
(1026,98,o),
(1015,89,o),
(994,89,cs),
(965,89,o),
(955,111,o),
(955,139,cs),
(955,150,o),
(956,163,o),
(959,183,c),
(975,234,o),
(1010,264,o),
(1077,264,cs),
(1159,264,o),
(1189,208,o),
(1189,162,cs),
(1189,122,o),
(1177,90,o),
(1165,72,c),
(1165,0,l),
(1501,0,l),
(1501,110,l),
(1279,110,l),
(1306,88,l),
(1313,101,o),
(1326,144,o),
(1326,185,cs),
(1326,298,o),
(1248,376,o),
(1092,376,cs),
(952,376,o),
(867,304,o),
(838,205,c),
(834,185,o),
(833,164,o),
(833,143,cs),
(833,50,o),
(891,-5,o),
(994,-5,cs)
);
}
);
};
layerId = "B104C26B-E498-4044-8731-03CD50407EE8";
shapes = (
{
closed = 1;
nodes = (
(449,-12,o),
(521,61,o),
(521,177,cs),
(521,294,o),
(447,355,o),
(335,355,cs),
(248,355,o),
(184,311,o),
(124,261,c),
(156,162,l),
(193,204,o),
(230,234,o),
(278,234,cs),
(315,234,o),
(340,217,o),
(340,174,cs),
(340,135,o),
(321,114,o),
(283,114,cs),
(231,114,o),
(209,158,o),
(209,226,cs),
(209,314,o),
(240,366,o),
(287,398,cs),
(329,427,o),
(394,439,o),
(485,439,cs),
(574,439,l),
(574,569,l),
(530,569,ls),
(340,569,o),
(234,550,o),
(146,482,cs),
(80,431,o),
(37,355,o),
(37,239,cs),
(37,79,o),
(127,-12,o),
(285,-12,cs)
);
},
{
closed = 1;
nodes = (
(781,0,l),
(781,439,l),
(913,439,l),
(913,569,l),
(551,569,l),
(535,439,l),
(591,439,l),
(591,0,l)
);
},
{
closed = 1;
nodes = (
(1068,-5,o),
(1135,25,o),
(1135,120,cs),
(1135,160,o),
(1122,188,o),
(1101,208,cs),
(1072,235,o),
(1035,246,o),
(972,246,cs),
(754,246,l),
(775,147,l),
(970,147,ls),
(994,147,o),
(1007,145,o),
(1016,138,cs),
(1022,133,o),
(1026,126,o),
(1026,116,cs),
(1026,98,o),
(1015,89,o),
(994,89,cs),
(965,89,o),
(955,111,o),
(955,139,cs),
(955,150,o),
(956,163,o),
(959,183,c),
(975,234,o),
(1010,264,o),
(1077,264,cs),
(1159,264,o),
(1189,208,o),
(1189,162,cs),
(1189,122,o),
(1177,90,o),
(1165,72,c),
(1165,0,l),
(1501,0,l),
(1501,110,l),
(1279,110,l),
(1306,88,l),
(1313,101,o),
(1326,144,o),
(1326,185,cs),
(1326,298,o),
(1248,376,o),
(1092,376,cs),
(952,376,o),
(867,304,o),
(838,205,c),
(834,185,o),
(833,164,o),
(833,143,cs),
(833,50,o),
(891,-5,o),
(994,-5,cs)
);
}
);
width = 1518;
}
);
unicode = 3063;
},
{
glyphname = asabovesigntamil;
layers = (
{
background = {
shapes = (
{
closed = 1;
nodes = (
(596,-12,o),
(698,62,o),
(698,192,cs),
(698,292,o),
(632,388,o),
(472,388,cs),
(330,388,o),
(265,310,o),
(265,207,cs),
(265,152,o),
(279,117,o),
(290,93,c),
(441,81,l),
(422,98,o),
(399,138,o),
(399,189,cs),
(399,237,o),
(422,264,o),
(462,264,cs),
(507,264,o),
(519,227,o),
(519,192,cs),
(519,147,o),
(498,112,o),
(442,112,cs),
(419,112,o),
(393,114,o),
(374,117,c),
(329,111,l),
(273,134,o),
(226,204,o),
(226,364,cs),
(226,617,o),
(411,718,o),
(609,718,cs),
(769,718,o),
(898,644,o),
(973,525,c),
(994,488,l),
(1022,431,o),
(1037,365,o),
(1037,295,cs),
(1037,208,o),
(1006,190,o),
(977,190,cs),
(933,190,o),
(916,234,o),
(916,284,cs),
(916,383,o),
(968,451,o),
(1119,454,c),
(1165,450,l),
(1248,431,o),
(1304,373,o),
(1304,259,cs),
(1304,198,o),
(1292,142,o),
(1267,99,c),
(1273,0,l),
(1639,0,l),
(1639,130,l),
(1465,130,l),
(1486,175,o),
(1494,236,o),
(1494,283,cs),
(1494,446,o),
(1389,581,o),
(1123,581,cs),
(1091,581,o),
(1060,578,o),
(1028,573,cs),
(869,549,o),
(739,462,o),
(739,290,cs),
(739,144,o),
(831,66,o),
(981,66,cs),
(1143,66,o),
(1214,151,o),
(1214,309,cs),
(1214,380,o),
(1197,450,o),
(1175,504,c),
(1164,543,l),
(1071,739,o),
(861,850,o),
(600,850,cs),
(267,850,o),
(44,663,o),
(44,380,cs),
(44,142,o),
(172,-12,o),
(425,-12,cs)
);
},
{
closed = 1;
nodes = (
(1603,581,o),
(1544,484,o),
(1544,390,cs),
(1544,284,o),
(1604,179,o),
(1838,179,cs),
(1906,179,ls),
(1995,179,o),
(2055,209,o),
(2083,226,c),
(2082,210,o),
(2081,192,o),
(2081,178,cs),
(2081,130,l),
(1570,130,l),
(1573,0,l),
(2241,0,l),
(2241,362,l),
(2081,362,l),
(2037,328,o),
(1979,302,o),
(1905,302,cs),
(1828,302,ls),
(1743,302,o),
(1710,333,o),
(1710,390,cs),
(1710,423,o),
(1729,453,o),
(1762,453,cs),
(1794,453,o),
(1804,426,o),
(1804,391,cs),
(1804,362,o),
(1797,331,o),
(1789,297,c),
(1734,103,l),
(1729,65,l),
(1643,-236,l),
(1820,-284,l),
(1959,209,l),
(1965,244,l),
(1978,291,o),
(1989,337,o),
(1989,393,cs),
(1989,493,o),
(1931,581,o),
(1772,581,cs)
);
}
);
};
layerId = "B104C26B-E498-4044-8731-03CD50407EE8";
shapes = (
{
closed = 1;
nodes = (
(596,-12,o),
(698,62,o),
(698,192,cs),
(698,292,o),
(632,388,o),
(472,388,cs),
(330,388,o),
(265,310,o),
(265,207,cs),
(265,152,o),
(279,117,o),
(290,93,c),
(441,81,l),
(422,98,o),
(399,138,o),
(399,189,cs),
(399,237,o),
(422,264,o),
(462,264,cs),
(507,264,o),
(519,227,o),
(519,192,cs),
(519,147,o),
(498,112,o),
(442,112,cs),
(419,112,o),
(393,114,o),
(374,117,c),
(329,111,l),
(273,134,o),
(226,204,o),
(226,364,cs),
(226,617,o),
(411,718,o),
(609,718,cs),
(769,718,o),
(898,644,o),
(973,525,c),
(994,488,l),
(1022,431,o),
(1037,365,o),
(1037,295,cs),
(1037,208,o),
(1006,190,o),
(977,190,cs),
(933,190,o),
(916,234,o),
(916,284,cs),
(916,383,o),
(968,451,o),
(1119,454,c),
(1165,450,l),
(1248,431,o),
(1304,373,o),
(1304,259,cs),
(1304,198,o),
(1292,142,o),
(1267,99,c),
(1273,0,l),
(1639,0,l),
(1639,130,l),
(1465,130,l),
(1486,175,o),
(1494,236,o),
(1494,283,cs),
(1494,446,o),
(1389,581,o),
(1123,581,cs),
(1091,581,o),
(1060,578,o),
(1028,573,c),
(869,549,o),
(739,462,o),
(739,290,cs),
(739,144,o),
(831,66,o),
(981,66,cs),
(1143,66,o),
(1214,151,o),
(1214,309,cs),
(1214,380,o),
(1197,450,o),
(1175,504,c),
(1164,543,l),
(1071,739,o),
(861,850,o),
(600,850,cs),
(267,850,o),
(44,663,o),
(44,380,cs),
(44,142,o),
(172,-12,o),
(425,-12,cs)
);
},
{
closed = 1;
nodes = (
(1603,581,o),
(1544,484,o),
(1544,390,cs),
(1544,284,o),
(1604,179,o),
(1838,179,cs),
(1906,179,ls),
(1995,179,o),
(2055,209,o),
(2083,226,c),
(2082,210,o),
(2081,192,o),
(2081,178,cs),
(2081,130,l),
(1570,130,l),
(1573,0,l),
(2241,0,l),
(2241,362,l),
(2081,362,l),
(2037,328,o),
(1979,302,o),
(1905,302,cs),
(1828,302,ls),
(1743,302,o),
(1710,333,o),
(1710,390,cs),
(1710,423,o),
(1729,453,o),
(1762,453,cs),
(1794,453,o),
(1804,426,o),
(1804,391,cs),
(1804,362,o),
(1797,331,o),
(1789,297,c),
(1734,103,l),
(1729,65,l),
(1643,-236,l),
(1820,-284,l),
(1959,209,l),
(1965,244,l),
(1978,291,o),
(1989,337,o),
(1989,393,cs),
(1989,493,o),
(1931,581,o),
(1772,581,cs)
);
}
);
width = 2298;
}
);
unicode = 3064;
},
{
glyphname = rupeesigntamil;
layers = (
{
background = {
shapes = (
{
closed = 1;
nodes = (
(935,260,o),
(877,249,o),
(840,228,c),
(851,105,l),
(872,122,o),
(895,131,o),
(927,131,cs),
(978,131,o),
(1009,89,o),
(1009,26,cs),
(1009,-94,o),
(902,-188,o),
(660,-188,cs),
(640,-188,ls),
(353,-188,o),
(234,-49,o),
(234,194,cs),
(234,213,ls),
(234,428,o),
(341,555,o),
(459,617,c),
(470,749,l),
(227,684,o),
(51,481,o),
(51,206,cs),
(51,192,ls),
(51,-168,o),
(302,-321,o),
(644,-321,cs),
(654,-321,ls),
(988,-321,o),
(1198,-191,o),
(1198,40,cs),
(1198,153,o),
(1130,260,o),
(984,260,cs)
);
},
{
closed = 1;
nodes = (
(563,0,l),
(563,350,l),
(687,350,l),
(687,0,l),
(877,0,l),
(877,350,l),
(1009,350,l),
(1009,480,l),
(373,480,l),
(372,0,l)
);
},
{
closed = 1;
nodes = (
(627,501,o),
(693,529,o),
(693,629,cs),
(693,683,o),
(660,746,o),
(567,746,cs),
(537,746,o),
(518,743,o),
(502,739,c),
(498,641,l),
(513,651,o),
(528,659,o),
(550,659,cs),
(573,659,o),
(584,645,o),
(584,626,cs),
(584,607,o),
(574,594,o),
(551,594,cs),
(523,594,o),
(511,619,o),
(511,642,cs),
(511,652,o),
(512,670,o),
(519,683,c),
(533,713,l),
(553,728,o),
(590,743,o),
(647,743,cs),
(712,743,o),
(755,713,o),
(755,664,cs),
(755,631,o),
(744,610,o),
(726,587,c),
(726,503,l),
(1008,503,l),
(1008,612,l),
(842,612,l),
(862,595,l),
(878,616,o),
(888,660,o),
(888,693,cs),
(888,787,o),
(812,851,o),
(655,851,cs),
(511,851,o),
(403,764,o),
(402,656,cs),
(402,558,o),
(466,501,o),
(554,501,cs)
);
}
);
};
layerId = "B104C26B-E498-4044-8731-03CD50407EE8";
shapes = (
{
closed = 1;
nodes = (
(935,260,o),
(877,249,o),
(840,228,c),
(851,105,l),
(872,122,o),
(895,131,o),
(927,131,cs),
(978,131,o),
(1009,89,o),
(1009,26,cs),
(1009,-94,o),
(902,-188,o),
(660,-188,cs),
(640,-188,ls),
(353,-188,o),
(234,-49,o),
(234,194,cs),
(234,213,ls),
(234,428,o),
(341,555,o),
(459,617,c),
(470,749,l),
(227,684,o),
(51,481,o),
(51,206,cs),
(51,192,ls),
(51,-168,o),
(302,-321,o),
(644,-321,cs),
(654,-321,ls),
(988,-321,o),
(1198,-191,o),
(1198,40,cs),
(1198,153,o),
(1130,260,o),
(984,260,cs)
);
},
{
closed = 1;
nodes = (
(563,0,l),
(563,350,l),
(687,350,l),
(687,0,l),
(877,0,l),
(877,350,l),
(1009,350,l),
(1009,480,l),
(373,480,l),
(372,0,l)
);
},
{
closed = 1;
nodes = (
(627,501,o),
(693,529,o),
(693,629,cs),
(693,683,o),
(660,746,o),
(567,746,cs),
(537,746,o),
(518,743,o),
(502,739,c),
(498,641,l),
(513,651,o),
(528,659,o),
(550,659,cs),
(573,659,o),
(584,645,o),
(584,626,cs),
(584,607,o),
(574,594,o),
(551,594,cs),
(523,594,o),
(511,619,o),
(511,642,cs),
(511,652,o),
(512,670,o),
(519,683,c),
(533,713,l),
(553,728,o),
(590,743,o),
(647,743,cs),
(712,743,o),
(755,713,o),
(755,664,cs),
(755,631,o),
(744,610,o),
(726,587,c),
(726,503,l),
(1008,503,l),
(1008,612,l),
(842,612,l),
(862,595,l),
(878,616,o),
(888,660,o),
(888,693,cs),
(888,787,o),
(812,851,o),
(655,851,cs),
(511,851,o),
(403,764,o),
(402,656,c),
(402,558,o),
(466,501,o),
(554,501,cs)
);
}
);
width = 1231;
}
);
unicode = 3065;
},
{
glyphname = numsigntamil;
layers = (
{
background = {
shapes = (
{
closed = 1;
nodes = (
(620,370,o),
(576,356,o),
(533,333,c),
(548,210,l),
(568,226,o),
(600,240,o),
(630,240,cs),
(686,240,o),
(716,200,o),
(716,123,cs),
(716,64,o),
(703,27,o),
(677,1,cs),
(639,-37,o),
(585,-50,o),
(463,-50,cs),
(300,-50,ls),
(192,-50,o),
(146,-62,o),
(102,-91,cs),
(58,-120,o),
(30,-169,o),
(30,-231,cs),
(30,-262,o),
(32,-291,o),
(36,-322,c),
(223,-312,l),
(221,-299,o),
(220,-286,o),
(220,-269,cs),
(220,-235,o),
(231,-214,o),
(250,-200,cs),
(273,-184,o),
(300,-180,o),
(361,-180,cs),
(494,-180,ls),
(625,-180,o),
(714,-164,o),
(787,-115,cs),
(857,-68,o),
(902,8,o),
(902,130,cs),
(902,269,o),
(832,370,o),
(684,370,cs)
);
},
{
closed = 1;
nodes = (
(258,0,l),
(258,439,l),
(382,439,l),
(382,0,l),
(572,0,l),
(572,439,l),
(704,439,l),
(704,569,l),
(68,569,l),
(68,0,l)
);
},
{
closed = 1;
nodes = (
(988,469,o),
(1055,499,o),
(1055,594,cs),
(1055,634,o),
(1042,662,o),
(1021,682,cs),
(992,709,o),
(955,720,o),
(892,720,cs),
(792,720,ls),
(646,720,o),
(571,663,o),
(571,551,c),
(704,516,l),
(704,540,ls),
(704,579,o),
(718,621,o),
(784,621,cs),
(890,621,ls),
(914,621,o),
(927,619,o),
(936,612,cs),
(942,607,o),
(946,600,o),
(946,590,cs),
(946,572,o),
(935,563,o),
(914,563,cs),
(885,563,o),
(875,585,o),
(875,613,cs),
(875,624,o),
(876,637,o),
(879,657,c),
(895,708,o),
(930,738,o),
(997,738,cs),
(1079,738,o),
(1109,682,o),
(1109,636,cs),
(1109,596,o),
(1097,564,o),
(1085,546,c),
(1085,474,l),
(1347,474,l),
(1347,584,l),
(1200,584,l),
(1226,562,l),
(1233,575,o),
(1246,618,o),
(1246,659,cs),
(1246,772,o),
(1168,850,o),
(1012,850,cs),
(872,850,o),
(787,778,o),
(758,679,c),
(754,659,o),
(753,638,o),
(753,617,cs),
(753,524,o),
(811,469,o),
(914,469,cs)
);
}
);
};
layerId = "B104C26B-E498-4044-8731-03CD50407EE8";
shapes = (
{
closed = 1;
nodes = (
(620,370,o),
(576,356,o),
(533,333,c),
(548,210,l),
(568,226,o),
(600,240,o),
(630,240,cs),
(686,240,o),
(716,200,o),
(716,123,cs),
(716,64,o),
(703,27,o),
(677,1,cs),
(639,-37,o),
(585,-50,o),
(463,-50,cs),
(300,-50,ls),
(192,-50,o),
(146,-62,o),
(102,-91,cs),
(58,-120,o),
(30,-169,o),
(30,-231,cs),
(30,-262,o),
(32,-291,o),
(36,-322,c),
(223,-312,l),
(221,-299,o),
(220,-286,o),
(220,-269,cs),
(220,-235,o),
(231,-214,o),
(250,-200,cs),
(273,-184,o),
(300,-180,o),
(361,-180,cs),
(494,-180,ls),
(625,-180,o),
(714,-164,o),
(787,-115,cs),
(857,-68,o),
(902,8,o),
(902,130,cs),
(902,269,o),
(832,370,o),
(684,370,cs)
);
},
{
closed = 1;
nodes = (
(258,0,l),
(258,439,l),
(382,439,l),
(382,0,l),
(572,0,l),
(572,439,l),
(704,439,l),
(704,569,l),
(68,569,l),
(68,0,l)
);
},
{
closed = 1;
nodes = (
(988,469,o),
(1055,499,o),
(1055,594,cs),
(1055,634,o),
(1042,662,o),
(1021,682,cs),
(992,709,o),
(955,720,o),
(892,720,cs),
(792,720,ls),
(646,720,o),
(571,663,o),
(571,551,c),
(704,516,l),
(704,540,ls),
(704,579,o),
(718,621,o),
(784,621,cs),
(890,621,ls),
(914,621,o),
(927,619,o),
(936,612,cs),
(942,607,o),
(946,600,o),
(946,590,cs),
(946,572,o),
(935,563,o),
(914,563,cs),
(885,563,o),
(875,585,o),
(875,613,cs),
(875,624,o),
(876,637,o),
(879,657,c),
(895,708,o),
(930,738,o),
(997,738,cs),
(1079,738,o),
(1109,682,o),
(1109,636,cs),
(1109,596,o),
(1097,564,o),
(1085,546,c),
(1085,474,l),
(1347,474,l),
(1347,584,l),
(1200,584,l),
(1226,562,l),
(1233,575,o),
(1246,618,o),
(1246,659,cs),
(1246,772,o),
(1168,850,o),
(1012,850,cs),
(872,850,o),
(787,778,o),
(758,679,c),
(754,659,o),
(753,638,o),
(753,617,cs),
(753,524,o),
(811,469,o),
(914,469,cs)
);
}
);
width = 1364;
}
);
unicode = 3066;
},
{
glyphname = tchatamil;
layers = (
{
anchors = (
{
name = Anchor10;
pos = (1097,-29);
},
{
name = Anchor8;
pos = (1097,-29);
}
);
background = {
shapes = (
{
closed = 1;
nodes = (
(1499,581,o),
(1440,484,o),
(1440,390,cs),
(1440,287,o),
(1500,185,o),
(1734,185,cs),
(1802,185,ls),
(1891,185,o),
(1951,215,o),
(1979,232,c),
(1978,216,o),
(1977,198,o),
(1977,184,cs),
(1977,130,l),
(1466,130,l),
(1469,0,l),
(2137,0,l),
(2137,368,l),
(1977,368,l),
(1933,334,o),
(1875,308,o),
(1801,308,cs),
(1724,308,ls),
(1639,308,o),
(1606,336,o),
(1606,390,cs),
(1606,423,o),
(1625,453,o),
(1658,453,cs),
(1690,453,o),
(1700,426,o),
(1700,394,cs),
(1700,362,o),
(1693,337,o),
(1685,303,c),
(1630,103,l),
(1625,65,l),
(1539,-236,l),
(1716,-284,l),
(1855,215,l),
(1861,250,l),
(1874,297,o),
(1885,337,o),
(1885,393,cs),
(1885,493,o),
(1827,581,o),
(1668,581,cs)
);
},
{
closed = 1;
nodes = (
(424,-12,o),
(498,8,o),
(549,55,cs),
(595,98,o),
(619,162,o),
(619,252,cs),
(619,439,l),
(810,439,l),
(810,569,l),
(129,569,l),
(129,286,l),
(300,302,l),
(300,439,l),
(434,439,l),
(434,240,ls),
(434,144,o),
(389,118,o),
(315,118,cs),
(253,118,o),
(217,133,o),
(217,176,cs),
(217,196,o),
(227,211,o),
(247,221,cs),
(269,231,o),
(296,234,o),
(353,234,cs),
(702,234,l),
(705,355,l),
(379,355,ls),
(126,355,o),
(33,280,o),
(33,168,cs),
(33,50,o),
(131,-12,o),
(313,-12,cs)
);
},
{
closed = 1;
nodes = (
(1069,-12,o),
(1142,55,o),
(1142,165,cs),
(1142,216,o),
(1124,257,o),
(1093,287,cs),
(1042,335,o),
(970,355,o),
(843,355,cs),
(689,355,l),
(682,234,l),
(862,234,ls),
(971,234,o),
(982,186,o),
(982,159,cs),
(982,125,o),
(962,109,o),
(937,109,cs),
(897,109,o),
(882,139,o),
(882,191,cs),
(882,224,o),
(890,253,o),
(904,278,c),
(917,309,l),
(950,346,o),
(997,363,o),
(1059,363,cs),
(1163,363,o),
(1223,307,o),
(1223,216,cs),
(1223,170,o),
(1215,130,o),
(1193,99,c),
(1199,0,l),
(1559,0,l),
(1547,130,l),
(1381,130,l),
(1388,145,o),
(1404,184,o),
(1404,248,cs),
(1404,347,o),
(1348,493,o),
(1079,493,cs),
(855,493,o),
(717,355,o),
(717,197,cs),
(717,48,o),
(806,-12,o),
(938,-12,cs)
);
}
);
};
layerId = "B104C26B-E498-4044-8731-03CD50407EE8";
shapes = (
{
closed = 1;
nodes = (
(1499,581,o),
(1440,484,o),
(1440,390,cs),
(1440,287,o),
(1500,185,o),
(1734,185,cs),
(1802,185,ls),
(1891,185,o),
(1951,215,o),
(1979,232,c),
(1978,216,o),
(1977,198,o),
(1977,184,cs),
(1977,130,l),
(1466,130,l),
(1469,0,l),
(2137,0,l),
(2137,368,l),
(1977,368,l),
(1933,334,o),
(1875,308,o),
(1801,308,cs),
(1724,308,ls),
(1639,308,o),
(1606,336,o),
(1606,390,cs),
(1606,423,o),
(1625,453,o),
(1658,453,cs),
(1690,453,o),
(1700,426,o),
(1700,394,cs),
(1700,362,o),
(1693,337,o),
(1685,303,c),
(1630,103,l),
(1625,65,l),
(1539,-236,l),
(1716,-284,l),
(1855,215,l),
(1861,250,l),
(1874,297,o),
(1885,337,o),
(1885,393,cs),
(1885,493,o),
(1827,581,o),
(1668,581,cs)
);
},
{
closed = 1;
nodes = (
(424,-12,o),
(498,8,o),
(549,55,cs),
(595,98,o),
(619,162,o),
(619,252,cs),
(619,439,l),
(810,439,l),
(810,569,l),
(129,569,l),
(129,286,l),
(300,302,l),
(300,439,l),
(434,439,l),
(434,240,ls),
(434,144,o),
(389,118,o),
(315,118,cs),
(253,118,o),
(217,133,o),
(217,176,cs),
(217,196,o),
(227,211,o),
(247,221,cs),
(269,231,o),
(296,234,o),
(353,234,cs),
(702,234,l),
(705,355,l),
(379,355,ls),
(126,355,o),
(33,280,o),
(33,168,cs),
(33,50,o),
(131,-12,o),
(313,-12,cs)
);
},
{
closed = 1;
nodes = (
(1069,-12,o),
(1142,55,o),
(1142,165,cs),
(1142,216,o),
(1124,257,o),
(1093,287,cs),
(1042,335,o),
(970,355,o),
(843,355,cs),
(689,355,l),
(682,234,l),
(862,234,ls),
(971,234,o),
(982,186,o),
(982,159,cs),
(982,125,o),
(962,109,o),
(937,109,cs),
(897,109,o),
(882,139,o),
(882,191,cs),
(882,224,o),
(890,253,o),
(904,278,c),
(917,309,l),
(950,346,o),
(997,363,o),
(1059,363,cs),
(1163,363,o),
(1223,307,o),
(1223,216,cs),
(1223,170,o),
(1215,130,o),
(1193,99,c),
(1199,0,l),
(1559,0,l),
(1547,130,l),
(1381,130,l),
(1388,145,o),
(1404,184,o),
(1404,248,cs),
(1404,347,o),
(1348,493,o),
(1079,493,cs),
(855,493,o),
(717,355,o),
(717,197,cs),
(717,48,o),
(806,-12,o),
(938,-12,cs)
);
}
);
width = 2194;
}
);
},
{
glyphname = kauvowelsigntamil;
layers = (
{
anchors = (
{
name = Anchor10;
pos = (622,-29);
},
{
name = Anchor12;
pos = (635,-34);
},
{
name = Anchor8;
pos = (622,-29);
}
);
background = {
shapes = (
{
closed = 1;
nodes = (
(701,-12,o),
(775,8,o),
(826,55,cs),
(872,98,o),
(896,162,o),
(896,252,cs),
(896,439,l),
(1085,439,l),
(1085,569,l),
(406,569,l),
(406,286,l),
(577,302,l),
(577,439,l),
(711,439,l),
(711,240,ls),
(711,144,o),
(666,118,o),
(592,118,cs),
(530,118,o),
(494,133,o),
(494,176,cs),
(494,196,o),
(504,211,o),
(524,221,cs),
(546,231,o),
(573,234,o),
(630,234,cs),
(809,234,ls),
(918,234,o),
(1024,193,o),
(1024,51,cs),
(1024,-114,o),
(872,-187,o),
(648,-187,cs),
(633,-187,ls),
(336,-187,o),
(225,-39,o),
(225,154,cs),
(225,170,ls),
(225,269,o),
(258,388,o),
(332,498,c),
(184,582,l),
(109,470,o),
(47,328,o),
(47,163,cs),
(47,152,ls),
(47,-69,o),
(171,-321,o),
(636,-321,cs),
(662,-321,ls),
(939,-321,o),
(1214,-224,o),
(1214,53,cs),
(1214,214,o),
(1105,355,o),
(821,355,cs),
(656,355,ls),
(403,355,o),
(310,280,o),
(310,168,cs),
(310,50,o),
(409,-12,o),
(590,-12,cs)
);
}
);
};
layerId = "B104C26B-E498-4044-8731-03CD50407EE8";
shapes = (
{
closed = 1;
nodes = (
(701,-12,o),
(775,8,o),
(826,55,cs),
(872,98,o),
(896,162,o),
(896,252,cs),
(896,439,l),
(1085,439,l),
(1085,569,l),
(406,569,l),
(406,286,l),
(577,302,l),
(577,439,l),
(711,439,l),
(711,240,ls),
(711,144,o),
(666,118,o),
(592,118,cs),
(530,118,o),
(494,133,o),
(494,176,cs),
(494,196,o),
(504,211,o),
(524,221,cs),
(546,231,o),
(573,234,o),
(630,234,cs),
(809,234,ls),
(918,234,o),
(1024,193,o),
(1024,51,cs),
(1024,-114,o),
(872,-187,o),
(648,-187,cs),
(633,-187,ls),
(336,-187,o),
(225,-39,o),
(225,154,cs),
(225,170,ls),
(225,269,o),
(258,388,o),
(332,498,c),
(184,582,l),
(109,470,o),
(47,328,o),
(47,163,cs),
(47,152,ls),
(47,-69,o),
(171,-321,o),
(636,-321,cs),
(662,-321,ls),
(939,-321,o),
(1214,-224,o),
(1214,53,cs),
(1214,214,o),
(1105,355,o),
(821,355,cs),
(656,355,ls),
(403,355,o),
(310,280,o),
(310,168,cs),
(310,50,o),
(409,-12,o),
(590,-12,cs)
);
}
);
width = 1245;
}
);
},
{
glyphname = kauuvowelsigntamil;
layers = (
{
anchors = (
{
name = Anchor10;
pos = (780,-29);
},
{
name = Anchor12;
pos = (780,-78);
},
{
name = Anchor8;
pos = (780,-29);
}
);
background = {
shapes = (
{
closed = 1;
nodes = (
(1069,-12,o),
(1142,55,o),
(1142,165,cs),
(1142,216,o),
(1124,257,o),
(1093,287,cs),
(1042,335,o),
(970,355,o),
(843,355,cs),
(689,355,l),
(682,234,l),
(862,234,ls),
(971,234,o),
(982,186,o),
(982,159,cs),
(982,125,o),
(962,109,o),
(937,109,cs),
(897,109,o),
(880,139,o),
(880,191,cs),
(880,224,o),
(888,253,o),
(902,278,c),
(917,309,l),
(950,346,o),
(997,363,o),
(1059,363,cs),
(1163,363,o),
(1223,307,o),
(1223,216,cs),
(1223,170,o),
(1215,130,o),
(1193,99,c),
(1199,0,l),
(1544,0,l),
(1544,130,l),
(1381,130,l),
(1388,145,o),
(1404,184,o),
(1404,248,cs),
(1404,347,o),
(1348,493,o),
(1079,493,cs),
(844,493,o),
(716,355,o),
(716,197,cs),
(716,48,o),
(806,-12,o),
(938,-12,cs)
);
},
{
closed = 1;
nodes = (
(424,-12,o),
(498,8,o),
(549,55,cs),
(595,98,o),
(619,162,o),
(619,252,cs),
(619,439,l),
(810,439,l),
(810,569,l),
(129,569,l),
(129,286,l),
(300,302,l),
(300,439,l),
(434,439,l),
(434,240,ls),
(434,144,o),
(389,118,o),
(315,118,cs),
(253,118,o),
(217,133,o),
(217,176,cs),
(217,196,o),
(227,211,o),
(247,221,cs),
(269,231,o),
(296,234,o),
(353,234,cs),
(702,234,l),
(705,355,l),
(379,355,ls),
(126,355,o),
(33,280,o),
(33,168,cs),
(33,50,o),
(131,-12,o),
(313,-12,cs)
);
}
);
};
layerId = "B104C26B-E498-4044-8731-03CD50407EE8";
shapes = (
{
closed = 1;
nodes = (
(1069,-12,o),
(1142,55,o),
(1142,165,cs),
(1142,216,o),
(1124,257,o),
(1093,287,cs),
(1042,335,o),
(970,355,o),
(843,355,cs),
(689,355,l),
(682,234,l),
(862,234,ls),
(971,234,o),
(982,186,o),
(982,159,cs),
(982,125,o),
(962,109,o),
(937,109,cs),
(897,109,o),
(880,139,o),
(880,191,cs),
(880,224,o),
(888,253,o),
(902,278,c),
(917,309,l),
(950,346,o),
(997,363,o),
(1059,363,cs),
(1163,363,o),
(1223,307,o),
(1223,216,cs),
(1223,170,o),
(1215,130,o),
(1193,99,c),
(1199,0,l),
(1544,0,l),
(1544,130,l),
(1381,130,l),
(1388,145,o),
(1404,184,o),
(1404,248,cs),
(1404,347,o),
(1348,493,o),
(1079,493,cs),
(844,493,o),
(716,355,o),
(716,197,cs),
(716,48,o),
(806,-12,o),
(938,-12,cs)
);
},
{
closed = 1;
nodes = (
(424,-12,o),
(498,8,o),
(549,55,cs),
(595,98,o),
(619,162,o),
(619,252,cs),
(619,439,l),
(810,439,l),
(810,569,l),
(129,569,l),
(129,286,l),
(300,302,l),
(300,439,l),
(434,439,l),
(434,240,ls),
(434,144,o),
(389,118,o),
(315,118,cs),
(253,118,o),
(217,133,o),
(217,176,cs),
(217,196,o),
(227,211,o),
(247,221,cs),
(269,231,o),
(296,234,o),
(353,234,cs),
(702,234,l),
(705,355,l),
(379,355,ls),
(126,355,o),
(33,280,o),
(33,168,cs),
(33,50,o),
(131,-12,o),
(313,-12,cs)
);
}
);
width = 1561;
}
);
},
{
glyphname = ngaiivowelsigntamil;
layers = (
{
anchors = (
{
name = Anchor10;
pos = (622,-29);
},
{
name = Anchor12;
pos = (622,-78);
},
{
name = Anchor8;
pos = (622,-29);
}
);
background = {
shapes = (
{
closed = 1;
nodes = (
(258,0,l),
(258,439,l),
(378,439,l),
(378,172,l),
(568,172,l),
(568,214,l),
(595,232,o),
(618,240,o),
(643,240,cs),
(676,240,o),
(698,221,o),
(698,185,cs),
(698,159,o),
(691,144,o),
(682,130,c),
(378,130,l),
(378,0,l),
(1033,0,l),
(1033,130,l),
(867,130,l),
(878,149,o),
(887,174,o),
(887,217,cs),
(887,289,o),
(832,370,o),
(697,370,cs),
(647,370,o),
(608,361,o),
(568,338,c),
(568,439,l),
(726,439,l),
(726,569,l),
(68,569,l),
(68,0,l)
);
},
{
closed = 1;
nodes = (
(1176,0,l),
(1176,569,l),
(986,569,l),
(986,0,l)
);
},
{
closed = 1;
nodes = (
(813,851,o),
(733,730,o),
(733,613,cs),
(733,488,o),
(836,388,o),
(999,357,c),
(999,495,l),
(922,515,o),
(884,548,o),
(884,612,cs),
(884,667,o),
(907,696,o),
(943,720,c),
(973,734,o),
(1014,744,o),
(1056,744,cs),
(1091,744,o),
(1116,733,o),
(1116,706,cs),
(1116,684,o),
(1103,669,o),
(1075,669,cs),
(1043,669,o),
(1028,684,o),
(1028,715,cs),
(1028,751,o),
(1048,774,o),
(1086,814,c),
(989,845,l),
(946,811,o),
(913,756,o),
(913,706,cs),
(913,628,o),
(958,576,o),
(1079,576,cs),
(1197,576,o),
(1258,626,o),
(1258,707,cs),
(1258,791,o),
(1188,851,o),
(1037,851,cs)
);
}
);
};
layerId = "B104C26B-E498-4044-8731-03CD50407EE8";
shapes = (
{
closed = 1;
nodes = (
(258,0,l),
(258,439,l),
(378,439,l),
(378,172,l),
(568,172,l),
(568,214,l),
(595,232,o),
(618,240,o),
(643,240,cs),
(676,240,o),
(698,221,o),
(698,185,cs),
(698,159,o),
(691,144,o),
(682,130,c),
(378,130,l),
(378,0,l),
(1033,0,l),
(1033,130,l),
(867,130,l),
(878,149,o),
(887,174,o),
(887,217,cs),
(887,289,o),
(832,370,o),
(697,370,cs),
(647,370,o),
(608,361,o),
(568,338,c),
(568,439,l),
(726,439,l),
(726,569,l),
(68,569,l),
(68,0,l)
);
},
{
closed = 1;
nodes = (
(1176,0,l),
(1176,569,l),
(986,569,l),
(986,0,l)
);
},
{
closed = 1;
nodes = (
(813,851,o),
(733,730,o),
(733,613,cs),
(733,488,o),
(836,388,o),
(999,357,c),
(999,495,l),
(922,515,o),
(884,548,o),
(884,612,cs),
(884,667,o),
(907,696,o),
(943,720,c),
(973,734,o),
(1014,744,o),
(1056,744,cs),
(1091,744,o),
(1116,733,o),
(1116,706,cs),
(1116,684,o),
(1103,669,o),
(1075,669,cs),
(1043,669,o),
(1028,684,o),
(1028,715,cs),
(1028,751,o),
(1048,774,o),
(1086,814,c),
(989,845,l),
(946,811,o),
(913,756,o),
(913,706,cs),
(913,628,o),
(958,576,o),
(1079,576,cs),
(1197,576,o),
(1258,626,o),
(1258,707,cs),
(1258,791,o),
(1188,851,o),
(1037,851,cs)
);
}
);
width = 1244;
}
);
},
{
glyphname = ngauvowelsigntamil;
layers = (
{
anchors = (
{
name = Anchor10;
pos = (622,-29);
},
{
name = Anchor12;
pos = (622,-78);
},
{
name = Anchor8;
pos = (622,-29);
}
);
background = {
shapes = (
{
closed = 1;
nodes = (
(258,0,l),
(258,439,l),
(378,439,l),
(378,172,l),
(568,172,l),
(568,214,l),
(595,232,o),
(618,240,o),
(643,240,cs),
(676,240,o),
(698,221,o),
(698,185,cs),
(698,159,o),
(691,144,o),
(682,130,c),
(378,130,l),
(378,0,l),
(1033,0,l),
(1033,130,l),
(867,130,l),
(878,149,o),
(887,174,o),
(887,217,cs),
(887,289,o),
(832,370,o),
(697,370,cs),
(647,370,o),
(608,361,o),
(568,338,c),
(568,439,l),
(763,439,l),
(763,569,l),
(68,569,l),
(68,0,l)
);
},
{
closed = 1;
nodes = (
(1176,-283,l),
(1176,569,l),
(986,569,l),
(986,-283,l)
);
}
);
};
layerId = "B104C26B-E498-4044-8731-03CD50407EE8";
shapes = (
{
closed = 1;
nodes = (
(258,0,l),
(258,439,l),
(378,439,l),
(378,172,l),
(568,172,l),
(568,214,l),
(595,232,o),
(618,240,o),
(643,240,cs),
(676,240,o),
(698,221,o),
(698,185,cs),
(698,159,o),
(691,144,o),
(682,130,c),
(378,130,l),
(378,0,l),
(1033,0,l),
(1033,130,l),
(867,130,l),
(878,149,o),
(887,174,o),
(887,217,cs),
(887,289,o),
(832,370,o),
(697,370,cs),
(647,370,o),
(608,361,o),
(568,338,c),
(568,439,l),
(763,439,l),
(763,569,l),
(68,569,l),
(68,0,l)
);
},
{
closed = 1;
nodes = (
(1176,-283,l),
(1176,569,l),
(986,569,l),
(986,-283,l)
);
}
);
width = 1244;
}
);
},
{
glyphname = ngauuvowelsigntamil;
layers = (
{
anchors = (
{
name = Anchor10;
pos = (744,-29);
},
{
name = Anchor12;
pos = (764,-42);
},
{
name = Anchor8;
pos = (744,-29);
}
);
background = {
shapes = (
{
closed = 1;
nodes = (
(1213,130,o),
(1163,111,o),
(1126,90,c),
(1135,-31,l),
(1169,-8,o),
(1198,4,o),
(1239,4,cs),
(1284,4,o),
(1307,-20,o),
(1307,-56,cs),
(1307,-87,o),
(1292,-109,o),
(1266,-128,cs),
(1194,-181,o),
(1042,-194,o),
(769,-194,cs),
(667,-194,ls),
(305,-194,o),
(239,-180,o),
(239,-151,cs),
(239,-133,o),
(256,-130,o),
(291,-130,cs),
(338,-130,o),
(391,-140,o),
(434,-150,c),
(460,-35,l),
(410,-20,o),
(341,-9,o),
(262,-9,cs),
(133,-9,o),
(67,-60,o),
(67,-143,cs),
(67,-219,o),
(115,-261,o),
(196,-288,cs),
(282,-317,o),
(390,-321,o),
(651,-321,cs),
(766,-321,ls),
(1039,-321,o),
(1239,-309,o),
(1361,-241,cs),
(1438,-198,o),
(1488,-141,o),
(1488,-43,cs),
(1488,73,o),
(1400,130,o),
(1295,130,cs)
);
},
{
closed = 1;
nodes = (
(258,0,l),
(258,439,l),
(378,439,l),
(378,172,l),
(568,172,l),
(568,214,l),
(595,232,o),
(618,240,o),
(643,240,cs),
(676,240,o),
(698,221,o),
(698,185,cs),
(698,159,o),
(691,144,o),
(682,130,c),
(378,130,l),
(378,0,l),
(1033,0,l),
(1033,130,l),
(867,130,l),
(878,149,o),
(887,174,o),
(887,217,cs),
(887,289,o),
(832,370,o),
(697,370,cs),
(647,370,o),
(608,361,o),
(568,338,c),
(568,439,l),
(763,439,l),
(763,569,l),
(68,569,l),
(68,0,l)
);
},
{
closed = 1;
nodes = (
(1176,-133,l),
(1176,569,l),
(986,569,l),
(986,-133,l)
);
}
);
};
layerId = "B104C26B-E498-4044-8731-03CD50407EE8";
shapes = (
{
closed = 1;
nodes = (
(1213,130,o),
(1163,111,o),
(1126,90,c),
(1135,-31,l),
(1169,-8,o),
(1198,4,o),
(1239,4,cs),
(1284,4,o),
(1307,-20,o),
(1307,-56,cs),
(1307,-87,o),
(1292,-109,o),
(1266,-128,cs),
(1194,-181,o),
(1042,-194,o),
(769,-194,cs),
(667,-194,ls),
(305,-194,o),
(239,-180,o),
(239,-151,cs),
(239,-133,o),
(256,-130,o),
(291,-130,cs),
(338,-130,o),
(391,-140,o),
(434,-150,c),
(460,-35,l),
(410,-20,o),
(341,-9,o),
(262,-9,cs),
(133,-9,o),
(67,-60,o),
(67,-143,cs),
(67,-219,o),
(115,-261,o),
(196,-288,cs),
(282,-317,o),
(390,-321,o),
(651,-321,cs),
(766,-321,ls),
(1039,-321,o),
(1239,-309,o),
(1361,-241,cs),
(1438,-198,o),
(1488,-141,o),
(1488,-43,cs),
(1488,73,o),
(1400,130,o),
(1295,130,cs)
);
},
{
closed = 1;
nodes = (
(258,0,l),
(258,439,l),
(378,439,l),
(378,172,l),
(568,172,l),
(568,214,l),
(595,232,o),
(618,240,o),
(643,240,cs),
(676,240,o),
(698,221,o),
(698,185,cs),
(698,159,o),
(691,144,o),
(682,130,c),
(378,130,l),
(378,0,l),
(1033,0,l),
(1033,130,l),
(867,130,l),
(878,149,o),
(887,174,o),
(887,217,cs),
(887,289,o),
(832,370,o),
(697,370,cs),
(647,370,o),
(608,361,o),
(568,338,c),
(568,439,l),
(763,439,l),
(763,569,l),
(68,569,l),
(68,0,l)
);
},
{
closed = 1;
nodes = (
(1176,-133,l),
(1176,569,l),
(986,569,l),
(986,-133,l)
);
}
);
width = 1489;
}
);
},
{
glyphname = cauvowelsigntamil;
layers = (
{
anchors = (
{
name = Anchor10;
pos = (507,-29);
},
{
name = Anchor12;
pos = (507,-78);
},
{
name = Anchor8;
pos = (507,-29);
}
);
background = {
shapes = (
{
closed = 1;
nodes = (
(424,-12,o),
(498,8,o),
(549,55,cs),
(595,98,o),
(619,162,o),
(619,252,cs),
(619,439,l),
(810,439,l),
(810,569,l),
(129,569,l),
(129,286,l),
(300,302,l),
(300,439,l),
(434,439,l),
(434,240,ls),
(434,144,o),
(389,118,o),
(315,118,cs),
(253,118,o),
(217,133,o),
(217,176,cs),
(217,196,o),
(227,211,o),
(247,221,cs),
(269,231,o),
(296,234,o),
(353,234,cs),
(989,234,l),
(989,355,l),
(379,355,ls),
(126,355,o),
(33,280,o),
(33,168,cs),
(33,50,o),
(131,-12,o),
(313,-12,cs)
);
},
{
closed = 1;
nodes = (
(890,0,l),
(890,267,l),
(705,275,l),
(705,0,l)
);
}
);
};
layerId = "B104C26B-E498-4044-8731-03CD50407EE8";
shapes = (
{
closed = 1;
nodes = (
(424,-12,o),
(498,8,o),
(549,55,cs),
(595,98,o),
(619,162,o),
(619,252,cs),
(619,439,l),
(810,439,l),
(810,569,l),
(129,569,l),
(129,286,l),
(300,302,l),
(300,439,l),
(434,439,l),
(434,240,ls),
(434,144,o),
(389,118,o),
(315,118,cs),
(253,118,o),
(217,133,o),
(217,176,cs),
(217,196,o),
(227,211,o),
(247,221,cs),
(269,231,o),
(296,234,o),
(353,234,cs),
(989,234,l),
(989,355,l),
(379,355,ls),
(126,355,o),
(33,280,o),
(33,168,cs),
(33,50,o),
(131,-12,o),
(313,-12,cs)
);
},
{
closed = 1;
nodes = (
(890,0,l),
(890,267,l),
(705,275,l),
(705,0,l)
);
}
);
width = 1015;
}
);
},
{
glyphname = cauuvowelsigntamil;
lastChange = "2025-02-12 10:01:33 +0000";
layers = (
{
anchors = (
{
name = Anchor10;
pos = (303,-29);
},
{
name = Anchor12;
pos = (364,-31);
},
{
name = Anchor8;
pos = (303,-29);
}
);
background = {
shapes = (
{
closed = 1;
nodes = (
(777,205,o),
(724,187,o),
(688,167,c),
(699,49,l),
(732,69,o),
(756,79,o),
(784,79,cs),
(825,79,o),
(847,58,o),
(847,8,cs),
(847,-163,o),
(575,-186,o),
(367,-186,cs),
(331,-186,ls),
(-24,-186,o),
(-206,-70,o),
(-206,172,cs),
(-206,191,ls),
(-206,276,o),
(-173,379,o),
(-99,498,c),
(-247,581,l),
(-322,470,o),
(-384,328,o),
(-384,168,cs),
(-384,155,ls),
(-384,15,o),
(-334,-85,o),
(-254,-157,cs),
(-121,-278,o),
(81,-321,o),
(327,-321,cs),
(378,-321,ls),
(721,-321,o),
(1025,-259,o),
(1025,16,cs),
(1025,104,o),
(977,205,o),
(834,205,cs)
);
},
{
closed = 1;
nodes = (
(270,-12,o),
(344,8,o),
(395,55,cs),
(441,98,o),
(465,162,o),
(465,252,cs),
(465,439,l),
(656,439,l),
(656,569,l),
(-25,569,l),
(-25,286,l),
(146,302,l),
(146,439,l),
(280,439,l),
(280,240,ls),
(280,144,o),
(235,118,o),
(161,118,cs),
(99,118,o),
(63,133,o),
(63,176,cs),
(63,196,o),
(73,211,o),
(93,221,cs),
(115,231,o),
(141,234,o),
(198,234,cs),
(835,234,l),
(835,355,l),
(224,355,ls),
(-29,355,o),
(-121,280,o),
(-121,168,cs),
(-121,50,o),
(-23,-12,o),
(159,-12,cs)
);
},
{
closed = 1;
nodes = (
(724,0,l),
(728,267,l),
(551,275,l),
(551,0,l)
);
}
);
};
layerId = "B104C26B-E498-4044-8731-03CD50407EE8";
shapes = (
{
closed = 1;
nodes = (
(287,464,l),
(655,464,l),
(655,469,ls),
(655,540,o),
(616,579,o),
(545,579,cs),
(397,579,ls),
(326,579,o),
(287,540,o),
(287,469,cs)
);
},
{
closed = 1;
nodes = (
(287,315,l),
(307,315,l),
(307,464,l),
(287,464,l)
);
},
{
closed = 1;
nodes = (
(515,-10,l),
(535,-10,l),
(535,464,l),
(515,464,l)
);
},
{
closed = 1;
nodes = (
(697,159,ls),
(697,230,o),
(658,269,o),
(587,269,cs),
(260,269,ls),
(189,269,o),
(150,230,o),
(150,159,cs),
(150,154,l),
(697,154,l)
);
},
{
closed = 1;
nodes = (
(529,105,l),
(150,105,l),
(150,-10,l),
(529,-10,l)
);
},
{
closed = 1;
nodes = (
(170,154,l),
(150,154,l),
(150,105,l),
(170,105,l)
);
},
{
closed = 1;
nodes = (
(652,154,l),
(632,154,l),
(632,-10,l),
(652,-10,l)
);
},
{
closed = 1;
nodes = (
(769,105,l),
(749,105,l),
(749,-56,l),
(769,-56,l)
);
},
{
closed = 1;
nodes = (
(50,313,l),
(30,313,l),
(30,-56,l),
(50,-56,l)
);
},
{
closed = 1;
nodes = (
(769,-56,l),
(30,-56,l),
(30,-61,ls),
(30,-132,o),
(69,-171,o),
(141,-171,cs),
(658,-171,ls),
(730,-171,o),
(769,-132,o),
(769,-61,cs)
);
},
{
closed = 1;
nodes = (
(769,105,l),
(644,105,l),
(644,-10,l),
(769,-10,l)
);
},
{
closed = 1;
nodes = (
(544,464,l),
(655,464,l),
(655,579,l),
(544,579,l)
);
},
{
closed = 1;
nodes = (
(586,154,l),
(697,154,l),
(697,269,l),
(586,269,l)
);
}
);
width = 799;
}
);
},
{
glyphname = nyauvowelsigntamil;
layers = (
{
anchors = (
{
name = Anchor10;
pos = (733,-29);
},
{
name = Anchor12;
pos = (1030,-234);
},
{
name = Anchor8;
pos = (733,-29);
}
);
background = {
shapes = (
{
closed = 1;
nodes = (
(1208,569,l),
(1208,-50,l),
(379,-50,l),
(377,-161,l),
(833,-161,l),
(884,-180,l),
(1398,-180,l),
(1398,569,l)
);
},
{
closed = 1;
nodes = (
(833,346,o),
(783,336,o),
(746,315,c),
(757,190,l),
(778,207,o),
(801,216,o),
(826,216,cs),
(884,216,o),
(914,170,o),
(914,96,cs),
(914,23,o),
(891,-34,o),
(855,-78,c),
(848,-126,l),
(761,-193,o),
(600,-205,o),
(420,-205,cs),
(350,-205,ls),
(235,-205,o),
(191,-192,o),
(191,-173,cs),
(191,-164,o),
(198,-161,o),
(208,-161,cs),
(406,-161,l),
(405,-50,l),
(181,-50,ls),
(128,-50,o),
(86,-59,o),
(59,-79,cs),
(37,-96,o),
(25,-120,o),
(25,-153,cs),
(25,-267,o),
(135,-321,o),
(363,-321,cs),
(427,-321,ls),
(675,-321,o),
(903,-290,o),
(1033,-157,c),
(1044,-108,l),
(1079,-62,o),
(1104,10,o),
(1104,95,cs),
(1104,252,o),
(1022,346,o),
(875,346,cs)
);
},
{
closed = 1;
nodes = (
(781,0,l),
(781,439,l),
(913,439,l),
(913,569,l),
(551,569,l),
(535,439,l),
(591,439,l),
(591,0,l)
);
},
{
closed = 1;
nodes = (
(449,-12,o),
(521,61,o),
(521,177,cs),
(521,294,o),
(447,355,o),
(335,355,cs),
(248,355,o),
(184,311,o),
(124,261,c),
(156,162,l),
(193,204,o),
(230,234,o),
(278,234,cs),
(315,234,o),
(340,217,o),
(340,174,cs),
(340,135,o),
(321,114,o),
(283,114,cs),
(231,114,o),
(209,158,o),
(209,226,cs),
(209,314,o),
(240,366,o),
(287,398,cs),
(329,427,o),
(394,439,o),
(485,439,cs),
(574,439,l),
(574,569,l),
(530,569,ls),
(340,569,o),
(234,550,o),
(146,482,cs),
(80,431,o),
(37,355,o),
(37,239,cs),
(37,79,o),
(127,-12,o),
(285,-12,cs)
);
}
);
};
layerId = "B104C26B-E498-4044-8731-03CD50407EE8";
shapes = (
{
closed = 1;
nodes = (
(1208,569,l),
(1208,-50,l),
(379,-50,l),
(377,-161,l),
(833,-161,l),
(884,-180,l),
(1398,-180,l),
(1398,569,l)
);
},
{
closed = 1;
nodes = (
(833,346,o),
(783,336,o),
(746,315,c),
(757,190,l),
(778,207,o),
(801,216,o),
(826,216,cs),
(884,216,o),
(914,170,o),
(914,96,cs),
(914,23,o),
(891,-34,o),
(855,-78,c),
(848,-126,l),
(761,-193,o),
(600,-205,o),
(420,-205,cs),
(350,-205,ls),
(235,-205,o),
(191,-192,o),
(191,-173,cs),
(191,-164,o),
(198,-161,o),
(208,-161,cs),
(406,-161,l),
(405,-50,l),
(181,-50,ls),
(128,-50,o),
(86,-59,o),
(59,-79,cs),
(37,-96,o),
(25,-120,o),
(25,-153,cs),
(25,-267,o),
(135,-321,o),
(363,-321,cs),
(427,-321,ls),
(675,-321,o),
(903,-290,o),
(1033,-157,c),
(1044,-108,l),
(1079,-62,o),
(1104,10,o),
(1104,95,cs),
(1104,252,o),
(1022,346,o),
(875,346,cs)
);
},
{
closed = 1;
nodes = (
(781,0,l),
(781,439,l),
(913,439,l),
(913,569,l),
(551,569,l),
(535,439,l),
(591,439,l),
(591,0,l)
);
},
{
closed = 1;
nodes = (
(449,-12,o),
(521,61,o),
(521,177,cs),
(521,294,o),
(447,355,o),
(335,355,cs),
(248,355,o),
(184,311,o),
(124,261,c),
(156,162,l),
(193,204,o),
(230,234,o),
(278,234,cs),
(315,234,o),
(340,217,o),
(340,174,cs),
(340,135,o),
(321,114,o),
(283,114,cs),
(231,114,o),
(209,158,o),
(209,226,cs),
(209,314,o),
(240,366,o),
(287,398,cs),
(329,427,o),
(394,439,o),
(485,439,cs),
(574,439,l),
(574,569,l),
(530,569,ls),
(340,569,o),
(234,550,o),
(146,482,cs),
(80,431,o),
(37,355,o),
(37,239,cs),
(37,79,o),
(127,-12,o),
(285,-12,cs)
);
}
);
width = 1466;
}
);
},
{
glyphname = nyauuvowelsigntamil;
layers = (
{
anchors = (
{
name = Anchor10;
pos = (931,-29);
},
{
name = Anchor12;
pos = (1030,-234);
},
{
name = Anchor8;
pos = (931,-29);
}
);
background = {
shapes = (
{
closed = 1;
nodes = (
(449,-12,o),
(521,61,o),
(521,177,cs),
(521,294,o),
(447,355,o),
(335,355,cs),
(248,355,o),
(184,311,o),
(124,261,c),
(156,162,l),
(193,204,o),
(230,234,o),
(278,234,cs),
(315,234,o),
(340,217,o),
(340,174,cs),
(340,135,o),
(321,114,o),
(283,114,cs),
(231,114,o),
(209,158,o),
(209,226,cs),
(209,314,o),
(240,366,o),
(287,398,cs),
(329,427,o),
(394,439,o),
(485,439,cs),
(574,439,l),
(574,569,l),
(530,569,ls),
(340,569,o),
(234,550,o),
(146,482,cs),
(80,431,o),
(37,355,o),
(37,239,cs),
(37,79,o),
(127,-12,o),
(285,-12,cs)
);
},
{
closed = 1;
nodes = (
(781,0,l),
(781,439,l),
(913,439,l),
(913,569,l),
(551,569,l),
(535,439,l),
(591,439,l),
(591,0,l)
);
},
{
closed = 1;
nodes = (
(833,346,o),
(783,336,o),
(746,315,c),
(757,190,l),
(778,207,o),
(801,216,o),
(826,216,cs),
(884,216,o),
(914,170,o),
(914,96,cs),
(914,23,o),
(891,-34,o),
(855,-78,c),
(846,-126,l),
(759,-193,o),
(600,-205,o),
(420,-205,cs),
(350,-205,ls),
(235,-205,o),
(191,-192,o),
(191,-173,cs),
(191,-164,o),
(198,-161,o),
(208,-161,cs),
(406,-161,l),
(405,-50,l),
(181,-50,ls),
(128,-50,o),
(86,-59,o),
(59,-79,cs),
(37,-96,o),
(25,-120,o),
(25,-153,cs),
(25,-267,o),
(135,-321,o),
(363,-321,cs),
(427,-321,ls),
(675,-321,o),
(903,-290,o),
(1033,-157,c),
(1044,-108,l),
(1079,-62,o),
(1104,10,o),
(1104,95,cs),
(1104,252,o),
(1022,346,o),
(875,346,cs)
);
},
{
closed = 1;
nodes = (
(1208,569,l),
(1208,-50,l),
(379,-50,l),
(377,-161,l),
(833,-161,l),
(884,-180,l),
(1398,-180,l),
(1398,439,l),
(1524,439,l),
(1524,-180,l),
(1713,-180,l),
(1713,439,l),
(1846,439,l),
(1846,569,l)
);
}
);
};
layerId = "B104C26B-E498-4044-8731-03CD50407EE8";
shapes = (
{
closed = 1;
nodes = (
(449,-12,o),
(521,61,o),
(521,177,cs),
(521,294,o),
(447,355,o),
(335,355,cs),
(248,355,o),
(184,311,o),
(124,261,c),
(156,162,l),
(193,204,o),
(230,234,o),
(278,234,cs),
(315,234,o),
(340,217,o),
(340,174,cs),
(340,135,o),
(321,114,o),
(283,114,cs),
(231,114,o),
(209,158,o),
(209,226,cs),
(209,314,o),
(240,366,o),
(287,398,cs),
(329,427,o),
(394,439,o),
(485,439,cs),
(574,439,l),
(574,569,l),
(530,569,ls),
(340,569,o),
(234,550,o),
(146,482,cs),
(80,431,o),
(37,355,o),
(37,239,cs),
(37,79,o),
(127,-12,o),
(285,-12,cs)
);
},
{
closed = 1;
nodes = (
(781,0,l),
(781,439,l),
(913,439,l),
(913,569,l),
(551,569,l),
(535,439,l),
(591,439,l),
(591,0,l)
);
},
{
closed = 1;
nodes = (
(833,346,o),
(783,336,o),
(746,315,c),
(757,190,l),
(778,207,o),
(801,216,o),
(826,216,cs),
(884,216,o),
(914,170,o),
(914,96,cs),
(914,23,o),
(891,-34,o),
(855,-78,c),
(846,-126,l),
(759,-193,o),
(600,-205,o),
(420,-205,cs),
(350,-205,ls),
(235,-205,o),
(191,-192,o),
(191,-173,cs),
(191,-164,o),
(198,-161,o),
(208,-161,cs),
(406,-161,l),
(405,-50,l),
(181,-50,ls),
(128,-50,o),
(86,-59,o),
(59,-79,cs),
(37,-96,o),
(25,-120,o),
(25,-153,cs),
(25,-267,o),
(135,-321,o),
(363,-321,cs),
(427,-321,ls),
(675,-321,o),
(903,-290,o),
(1033,-157,c),
(1044,-108,l),
(1079,-62,o),
(1104,10,o),
(1104,95,cs),
(1104,252,o),
(1022,346,o),
(875,346,cs)
);
},
{
closed = 1;
nodes = (
(1208,569,l),
(1208,-50,l),
(379,-50,l),
(377,-161,l),
(833,-161,l),
(884,-180,l),
(1398,-180,l),
(1398,439,l),
(1524,439,l),
(1524,-180,l),
(1713,-180,l),
(1713,439,l),
(1846,439,l),
(1846,569,l)
);
}
);
width = 1863;
}
);
},
{
glyphname = ttaivowelsigntamil;
layers = (
{
anchors = (
{
name = Anchor10;
pos = (450,-29);
},
{
name = Anchor12;
pos = (280,-78);
},
{
name = Anchor8;
pos = (450,-29);
}
);
background = {
shapes = (
{
closed = 1;
nodes = (
(883,0,l),
(883,130,l),
(258,130,l),
(258,569,l),
(68,569,l),
(68,0,l)
);
},
{
closed = 1;
nodes = (
(400,488,o),
(332,393,o),
(332,294,cs),
(332,185,o),
(389,110,o),
(471,19,c),
(595,93,l),
(532,169,o),
(504,222,o),
(504,288,cs),
(504,331,o),
(521,358,o),
(554,358,cs),
(587,358,o),
(597,327,o),
(597,296,cs),
(597,256,o),
(585,200,o),
(571,151,cs),
(552,86,l),
(545,46,l),
(460,-236,l),
(637,-283,l),
(743,81,ls),
(767,162,o),
(780,223,o),
(780,293,cs),
(780,379,o),
(739,488,o),
(561,488,cs)
);
}
);
};
layerId = "B104C26B-E498-4044-8731-03CD50407EE8";
shapes = (
{
closed = 1;
nodes = (
(883,0,l),
(883,130,l),
(258,130,l),
(258,569,l),
(68,569,l),
(68,0,l)
);
},
{
closed = 1;
nodes = (
(400,488,o),
(332,393,o),
(332,294,cs),
(332,185,o),
(389,110,o),
(471,19,c),
(595,93,l),
(532,169,o),
(504,222,o),
(504,288,cs),
(504,331,o),
(521,358,o),
(554,358,cs),
(587,358,o),
(597,327,o),
(597,296,cs),
(597,256,o),
(585,200,o),
(571,151,cs),
(552,86,l),
(545,46,l),
(460,-236,l),
(637,-283,l),
(743,81,ls),
(767,162,o),
(780,223,o),
(780,293,cs),
(780,379,o),
(739,488,o),
(561,488,cs)
);
}
);
width = 900;
}
);
},
{
glyphname = ttaiivowelsigntamil;
layers = (
{
anchors = (
{
name = Anchor10;
pos = (450,-29);
},
{
name = Anchor12;
pos = (450,-78);
},
{
name = Anchor8;
pos = (450,-29);
}
);
background = {
shapes = (
{
closed = 1;
nodes = (
(883,0,l),
(883,130,l),
(258,130,l),
(258,569,l),
(68,569,l),
(68,0,l)
);
},
{
closed = 1;
nodes = (
(386,488,o),
(332,345,o),
(332,254,cs),
(332,141,o),
(382,72,o),
(455,4,c),
(570,75,l),
(517,123,o),
(489,180,o),
(489,243,cs),
(489,297,o),
(509,349,o),
(571,369,c),
(593,374,o),
(609,377,o),
(645,377,cs),
(680,377,o),
(705,366,o),
(705,339,cs),
(705,317,o),
(693,302,o),
(664,302,cs),
(631,302,o),
(617,317,o),
(617,348,cs),
(617,384,o),
(637,411,o),
(675,451,c),
(578,482,l),
(535,448,o),
(502,393,o),
(502,343,cs),
(502,254,o),
(547,188,o),
(671,188,cs),
(790,188,o),
(856,241,o),
(856,330,cs),
(856,416,o),
(797,488,o),
(630,488,cs)
);
}
);
};
layerId = "B104C26B-E498-4044-8731-03CD50407EE8";
shapes = (
{
closed = 1;
nodes = (
(883,0,l),
(883,130,l),
(258,130,l),
(258,569,l),
(68,569,l),
(68,0,l)
);
},
{
closed = 1;
nodes = (
(386,488,o),
(332,345,o),
(332,254,cs),
(332,141,o),
(382,72,o),
(455,4,c),
(570,75,l),
(517,123,o),
(489,180,o),
(489,243,cs),
(489,297,o),
(509,349,o),
(571,369,c),
(593,374,o),
(609,377,o),
(645,377,cs),
(680,377,o),
(705,366,o),
(705,339,cs),
(705,317,o),
(693,302,o),
(664,302,cs),
(631,302,o),
(617,317,o),
(617,348,cs),
(617,384,o),
(637,411,o),
(675,451,c),
(578,482,l),
(535,448,o),
(502,393,o),
(502,343,cs),
(502,254,o),
(547,188,o),
(671,188,cs),
(790,188,o),
(856,241,o),
(856,330,cs),
(856,416,o),
(797,488,o),
(630,488,cs)
);
}
);
width = 900;
}
);
},
{
glyphname = ttauvowelsigntamil;
layers = (
{
anchors = (
{
name = Anchor10;
pos = (592,-29);
},
{
name = Anchor12;
pos = (961,-191);
}
);
background = {
shapes = (
{
closed = 1;
nodes = (
(742,-318,o),
(885,-191,o),
(885,51,cs),
(885,250,o),
(792,346,o),
(650,346,cs),
(614,346,o),
(564,336,o),
(527,315,c),
(538,190,l),
(559,207,o),
(582,216,o),
(607,216,cs),
(665,216,o),
(695,170,o),
(695,57,cs),
(695,-85,o),
(650,-188,o),
(496,-188,cs),
(368,-188,o),
(239,-132,o),
(239,208,cs),
(239,519,o),
(378,719,o),
(637,719,cs),
(729,719,o),
(792,692,o),
(835,649,cs),
(908,577,o),
(925,450,o),
(925,314,cs),
(925,0,l),
(1115,0,l),
(1115,341,ls),
(1115,620,o),
(1039,721,o),
(912,791,cs),
(837,832,o),
(740,851,o),
(641,851,cs),
(255,851,o),
(57,590,o),
(57,222,cs),
(57,200,ls),
(57,-75,o),
(161,-318,o),
(496,-318,cs)
);
},
{
closed = 1;
nodes = (
(562,0,l),
(562,569,l),
(372,569,l),
(372,0,l)
);
}
);
};
layerId = "B104C26B-E498-4044-8731-03CD50407EE8";
shapes = (
{
closed = 1;
nodes = (
(742,-318,o),
(885,-191,o),
(885,51,cs),
(885,250,o),
(792,346,o),
(650,346,cs),
(614,346,o),
(564,336,o),
(527,315,c),
(538,190,l),
(559,207,o),
(582,216,o),
(607,216,cs),
(665,216,o),
(695,170,o),
(695,57,cs),
(695,-85,o),
(650,-188,o),
(496,-188,cs),
(368,-188,o),
(239,-132,o),
(239,208,cs),
(239,519,o),
(378,719,o),
(637,719,cs),
(729,719,o),
(792,692,o),
(835,649,cs),
(908,577,o),
(925,450,o),
(925,314,cs),
(925,0,l),
(1115,0,l),
(1115,341,ls),
(1115,620,o),
(1039,721,o),
(912,791,cs),
(837,832,o),
(740,851,o),
(641,851,cs),
(255,851,o),
(57,590,o),
(57,222,cs),
(57,200,ls),
(57,-75,o),
(161,-318,o),
(496,-318,cs)
);
},
{
closed = 1;
nodes = (
(562,0,l),
(562,569,l),
(372,569,l),
(372,0,l)
);
}
);
width = 1182;
}
);
},
{
glyphname = ttauuvowelsigntamil;
layers = (
{
anchors = (
{
name = Anchor10;
pos = (543,-29);
},
{
name = Anchor12;
pos = (890,-237);
}
);
background = {
shapes = (
{
closed = 1;
nodes = (
(742,-318,o),
(885,-191,o),
(885,51,cs),
(885,250,o),
(792,346,o),
(650,346,cs),
(614,346,o),
(564,336,o),
(527,315,c),
(538,190,l),
(559,207,o),
(582,216,o),
(607,216,cs),
(665,216,o),
(695,170,o),
(695,57,cs),
(695,-85,o),
(650,-188,o),
(496,-188,cs),
(368,-188,o),
(239,-132,o),
(239,208,cs),
(239,519,o),
(377,720,o),
(648,720,cs),
(808,720,o),
(864,664,o),
(903,616,c),
(909,607,o),
(928,572,o),
(928,551,cs),
(928,509,o),
(915,472,o),
(870,472,cs),
(838,472,o),
(820,493,o),
(820,525,cs),
(820,549,o),
(834,576,o),
(874,576,cs),
(918,576,o),
(943,558,o),
(970,533,c),
(986,640,l),
(940,665,o),
(890,679,o),
(842,679,cs),
(785,679,o),
(668,650,o),
(668,521,cs),
(668,422,o),
(746,352,o),
(871,352,cs),
(1006,352,o),
(1077,436,o),
(1077,550,cs),
(1077,741,o),
(903,851,o),
(649,851,cs),
(255,851,o),
(57,591,o),
(57,228,cs),
(57,200,ls),
(57,-75,o),
(161,-318,o),
(496,-318,cs)
);
},
{
closed = 1;
nodes = (
(562,0,l),
(562,569,l),
(372,569,l),
(372,0,l)
);
}
);
};
layerId = "B104C26B-E498-4044-8731-03CD50407EE8";
shapes = (
{
closed = 1;
nodes = (
(742,-318,o),
(885,-191,o),
(885,51,cs),
(885,250,o),
(792,346,o),
(650,346,cs),
(614,346,o),
(564,336,o),
(527,315,c),
(538,190,l),
(559,207,o),
(582,216,o),
(607,216,cs),
(665,216,o),
(695,170,o),
(695,57,cs),
(695,-85,o),
(650,-188,o),
(496,-188,cs),
(368,-188,o),
(239,-132,o),
(239,208,cs),
(239,519,o),
(377,720,o),
(648,720,cs),
(808,720,o),
(864,664,o),
(903,616,c),
(909,607,o),
(928,572,o),
(928,551,cs),
(928,509,o),
(915,472,o),
(870,472,cs),
(838,472,o),
(820,493,o),
(820,525,cs),
(820,549,o),
(834,576,o),
(874,576,cs),
(918,576,o),
(943,558,o),
(970,533,c),
(986,640,l),
(940,665,o),
(890,679,o),
(842,679,cs),
(785,679,o),
(668,650,o),
(668,521,cs),
(668,422,o),
(746,352,o),
(871,352,cs),
(1006,352,o),
(1077,436,o),
(1077,550,cs),
(1077,741,o),
(903,851,o),
(649,851,cs),
(255,851,o),
(57,591,o),
(57,228,cs),
(57,200,ls),
(57,-75,o),
(161,-318,o),
(496,-318,cs)
);
},
{
closed = 1;
nodes = (
(562,0,l),
(562,569,l),
(372,569,l),
(372,0,l)
);
}
);
width = 1084;
}
);
},
{
glyphname = nnauvowelsigntamil;
layers = (
{
anchors = (
{
name = Anchor10;
pos = (1083,-29);
},
{
name = Anchor12;
pos = (1622,-234);
},
{
name = Anchor8;
pos = (1083,-29);
}
);
background = {
shapes = (
{
closed = 1;
nodes = (
(449,-12,o),
(521,61,o),
(521,177,cs),
(521,294,o),
(447,355,o),
(335,355,cs),
(248,355,o),
(184,311,o),
(124,261,c),
(156,162,l),
(193,204,o),
(230,234,o),
(278,234,cs),
(315,234,o),
(340,217,o),
(340,174,cs),
(340,133,o),
(320,113,o),
(287,113,cs),
(218,113,o),
(209,187,o),
(209,230,cs),
(209,240,o),
(209,261,o),
(212,271,c),
(231,371,o),
(328,451,o),
(489,451,cs),
(586,451,o),
(650,433,o),
(706,392,c),
(790,342,o),
(832,272,o),
(832,196,cs),
(832,148,o),
(820,114,o),
(781,114,cs),
(750,114,o),
(730,138,o),
(730,200,cs),
(730,277,o),
(768,343,o),
(828,388,cs),
(881,428,o),
(938,451,o),
(1024,451,cs),
(1105,451,o),
(1161,429,o),
(1213,392,cs),
(1278,346,o),
(1321,276,o),
(1321,196,cs),
(1321,148,o),
(1309,114,o),
(1270,114,cs),
(1239,114,o),
(1219,138,o),
(1219,197,cs),
(1219,269,o),
(1250,335,o),
(1296,382,c),
(1319,404,l),
(1356,433,o),
(1395,451,o),
(1455,451,cs),
(1575,451,o),
(1615,348,o),
(1615,240,cs),
(1615,106,o),
(1548,-12,o),
(1475,-79,c),
(1464,-117,l),
(1313,-189,o),
(1063,-204,o),
(715,-204,cs),
(480,-204,ls),
(288,-204,o),
(191,-197,o),
(191,-173,cs),
(191,-164,o),
(198,-161,o),
(223,-161,cs),
(1438,-161,l),
(1530,-180,l),
(1951,-180,l),
(1931,-50,l),
(181,-50,ls),
(128,-50,o),
(86,-59,o),
(59,-79,cs),
(37,-96,o),
(25,-120,o),
(25,-153,cs),
(25,-282,o),
(164,-321,o),
(425,-321,cs),
(768,-321,ls),
(1144,-321,o),
(1433,-299,o),
(1669,-144,c),
(1683,-92,l),
(1757,-12,o),
(1805,93,o),
(1805,243,cs),
(1805,432,o),
(1700,581,o),
(1456,581,cs),
(1345,581,o),
(1271,552,o),
(1197,497,c),
(1166,466,ls),
(1096,397,o),
(1048,312,o),
(1048,202,cs),
(1048,66,o),
(1126,-12,o),
(1275,-12,cs),
(1415,-12,o),
(1492,52,o),
(1492,196,cs),
(1492,300,o),
(1441,392,o),
(1353,460,c),
(1326,489,l),
(1229,555,o),
(1153,581,o),
(1024,581,cs),
(904,581,o),
(801,553,o),
(713,486,c),
(685,458,l),
(611,395,o),
(559,311,o),
(559,202,cs),
(559,66,o),
(637,-12,o),
(786,-12,cs),
(926,-12,o),
(1003,52,o),
(1003,196,cs),
(1003,317,o),
(934,402,o),
(829,478,cs),
(805,496,l),
(711,556,o),
(616,581,o),
(484,581,cs),
(212,581,o),
(37,451,o),
(37,244,cs),
(37,79,o),
(127,-12,o),
(285,-12,cs)
);
},
{
closed = 1;
nodes = (
(2099,-180,l),
(2099,569,l),
(1909,569,l),
(1909,-180,l)
);
}
);
};
layerId = "B104C26B-E498-4044-8731-03CD50407EE8";
shapes = (
{
closed = 1;
nodes = (
(449,-12,o),
(521,61,o),
(521,177,cs),
(521,294,o),
(447,355,o),
(335,355,cs),
(248,355,o),
(184,311,o),
(124,261,c),
(156,162,l),
(193,204,o),
(230,234,o),
(278,234,cs),
(315,234,o),
(340,217,o),
(340,174,cs),
(340,133,o),
(320,113,o),
(287,113,cs),
(218,113,o),
(209,187,o),
(209,230,cs),
(209,240,o),
(209,261,o),
(212,271,c),
(231,371,o),
(328,451,o),
(489,451,cs),
(586,451,o),
(650,433,o),
(706,392,c),
(790,342,o),
(832,272,o),
(832,196,cs),
(832,148,o),
(820,114,o),
(781,114,cs),
(750,114,o),
(730,138,o),
(730,200,cs),
(730,277,o),
(768,343,o),
(828,388,cs),
(881,428,o),
(938,451,o),
(1024,451,cs),
(1105,451,o),
(1161,429,o),
(1213,392,cs),
(1278,346,o),
(1321,276,o),
(1321,196,cs),
(1321,148,o),
(1309,114,o),
(1270,114,cs),
(1239,114,o),
(1219,138,o),
(1219,197,cs),
(1219,269,o),
(1250,335,o),
(1296,382,c),
(1319,404,l),
(1356,433,o),
(1395,451,o),
(1455,451,cs),
(1575,451,o),
(1615,348,o),
(1615,240,cs),
(1615,106,o),
(1548,-12,o),
(1475,-79,c),
(1464,-117,l),
(1313,-189,o),
(1063,-204,o),
(715,-204,cs),
(480,-204,ls),
(288,-204,o),
(191,-197,o),
(191,-173,cs),
(191,-164,o),
(198,-161,o),
(223,-161,cs),
(1438,-161,l),
(1530,-180,l),
(1951,-180,l),
(1931,-50,l),
(181,-50,ls),
(128,-50,o),
(86,-59,o),
(59,-79,cs),
(37,-96,o),
(25,-120,o),
(25,-153,cs),
(25,-282,o),
(164,-321,o),
(425,-321,cs),
(768,-321,ls),
(1144,-321,o),
(1433,-299,o),
(1669,-144,c),
(1683,-92,l),
(1757,-12,o),
(1805,93,o),
(1805,243,cs),
(1805,432,o),
(1700,581,o),
(1456,581,cs),
(1345,581,o),
(1271,552,o),
(1197,497,c),
(1166,466,l),
(1096,397,o),
(1048,312,o),
(1048,202,cs),
(1048,66,o),
(1126,-12,o),
(1275,-12,cs),
(1415,-12,o),
(1492,52,o),
(1492,196,cs),
(1492,300,o),
(1441,392,o),
(1353,460,c),
(1326,489,l),
(1229,555,o),
(1153,581,o),
(1024,581,cs),
(904,581,o),
(801,553,o),
(713,486,c),
(685,458,l),
(611,395,o),
(559,311,o),
(559,202,cs),
(559,66,o),
(637,-12,o),
(786,-12,cs),
(926,-12,o),
(1003,52,o),
(1003,196,cs),
(1003,317,o),
(934,402,o),
(829,478,cs),
(805,496,l),
(711,556,o),
(616,581,o),
(484,581,cs),
(212,581,o),
(37,451,o),
(37,244,cs),
(37,79,o),
(127,-12,o),
(285,-12,cs)
);
},
{
closed = 1;
nodes = (
(2099,-180,l),
(2099,569,l),
(1909,569,l),
(1909,-180,l)
);
}
);
width = 2167;
}
);
},
{
glyphname = nnauuvowelsigntamil;
layers = (
{
anchors = (
{
name = Anchor10;
pos = (1281,-29);
},
{
name = Anchor12;
pos = (1622,-234);
},
{
name = Anchor8;
pos = (1281,-29);
}
);
background = {
shapes = (
{
closed = 1;
nodes = (
(449,-12,o),
(521,61,o),
(521,177,cs),
(521,294,o),
(447,355,o),
(335,355,cs),
(248,355,o),
(184,311,o),
(124,261,c),
(156,162,l),
(193,204,o),
(230,234,o),
(278,234,cs),
(315,234,o),
(340,217,o),
(340,174,cs),
(340,133,o),
(320,113,o),
(287,113,cs),
(218,113,o),
(209,187,o),
(209,230,cs),
(209,240,o),
(209,261,o),
(212,271,c),
(231,371,o),
(328,451,o),
(489,451,cs),
(586,451,o),
(650,433,o),
(706,392,c),
(790,342,o),
(832,272,o),
(832,196,cs),
(832,148,o),
(820,114,o),
(781,114,cs),
(750,114,o),
(730,138,o),
(730,200,cs),
(730,277,o),
(768,343,o),
(828,388,cs),
(881,428,o),
(938,451,o),
(1024,451,cs),
(1105,451,o),
(1161,429,o),
(1213,392,cs),
(1278,346,o),
(1321,276,o),
(1321,196,cs),
(1321,148,o),
(1309,114,o),
(1270,114,cs),
(1239,114,o),
(1219,138,o),
(1219,197,cs),
(1219,269,o),
(1250,335,o),
(1296,382,c),
(1319,404,l),
(1356,433,o),
(1395,451,o),
(1455,451,cs),
(1575,451,o),
(1615,348,o),
(1615,240,cs),
(1615,106,o),
(1548,-12,o),
(1475,-79,c),
(1464,-117,l),
(1313,-189,o),
(1063,-204,o),
(715,-204,cs),
(480,-204,ls),
(288,-204,o),
(191,-197,o),
(191,-173,cs),
(191,-164,o),
(198,-161,o),
(223,-161,cs),
(1438,-161,l),
(1530,-180,l),
(1951,-180,l),
(1931,-50,l),
(181,-50,ls),
(128,-50,o),
(86,-59,o),
(59,-79,cs),
(37,-96,o),
(25,-120,o),
(25,-153,cs),
(25,-282,o),
(164,-321,o),
(425,-321,cs),
(768,-321,ls),
(1144,-321,o),
(1433,-299,o),
(1669,-144,c),
(1683,-92,l),
(1757,-12,o),
(1805,93,o),
(1805,234,cs),
(1805,432,o),
(1700,581,o),
(1456,581,cs),
(1345,581,o),
(1271,552,o),
(1197,497,c),
(1166,466,ls),
(1096,397,o),
(1048,312,o),
(1048,202,cs),
(1048,66,o),
(1126,-12,o),
(1275,-12,cs),
(1415,-12,o),
(1492,52,o),
(1492,196,cs),
(1492,300,o),
(1441,392,o),
(1353,460,c),
(1326,489,l),
(1229,555,o),
(1153,581,o),
(1024,581,cs),
(904,581,o),
(801,553,o),
(713,486,c),
(685,458,l),
(611,395,o),
(559,311,o),
(559,202,cs),
(559,66,o),
(637,-12,o),
(786,-12,cs),
(926,-12,o),
(1003,52,o),
(1003,196,cs),
(1003,317,o),
(934,402,o),
(829,478,cs),
(805,496,l),
(711,556,o),
(616,581,o),
(484,581,cs),
(212,581,o),
(37,451,o),
(37,244,cs),
(37,79,o),
(127,-12,o),
(285,-12,cs)
);
},
{
closed = 1;
nodes = (
(2099,-180,l),
(2099,439,l),
(2225,439,l),
(2225,-180,l),
(2415,-180,l),
(2415,439,l),
(2547,439,l),
(2547,569,l),
(1909,569,l),
(1909,-180,l)
);
}
);
};
layerId = "B104C26B-E498-4044-8731-03CD50407EE8";
shapes = (
{
closed = 1;
nodes = (
(449,-12,o),
(521,61,o),
(521,177,cs),
(521,294,o),
(447,355,o),
(335,355,cs),
(248,355,o),
(184,311,o),
(124,261,c),
(156,162,l),
(193,204,o),
(230,234,o),
(278,234,cs),
(315,234,o),
(340,217,o),
(340,174,cs),
(340,133,o),
(320,113,o),
(287,113,cs),
(218,113,o),
(209,187,o),
(209,230,cs),
(209,240,o),
(209,261,o),
(212,271,c),
(231,371,o),
(328,451,o),
(489,451,cs),
(586,451,o),
(650,433,o),
(706,392,c),
(790,342,o),
(832,272,o),
(832,196,cs),
(832,148,o),
(820,114,o),
(781,114,cs),
(750,114,o),
(730,138,o),
(730,200,cs),
(730,277,o),
(768,343,o),
(828,388,cs),
(881,428,o),
(938,451,o),
(1024,451,cs),
(1105,451,o),
(1161,429,o),
(1213,392,cs),
(1278,346,o),
(1321,276,o),
(1321,196,cs),
(1321,148,o),
(1309,114,o),
(1270,114,cs),
(1239,114,o),
(1219,138,o),
(1219,197,cs),
(1219,269,o),
(1250,335,o),
(1296,382,c),
(1319,404,l),
(1356,433,o),
(1395,451,o),
(1455,451,cs),
(1575,451,o),
(1615,348,o),
(1615,240,cs),
(1615,106,o),
(1548,-12,o),
(1475,-79,c),
(1464,-117,l),
(1313,-189,o),
(1063,-204,o),
(715,-204,cs),
(480,-204,ls),
(288,-204,o),
(191,-197,o),
(191,-173,cs),
(191,-164,o),
(198,-161,o),
(223,-161,cs),
(1438,-161,l),
(1530,-180,l),
(1951,-180,l),
(1931,-50,l),
(181,-50,ls),
(128,-50,o),
(86,-59,o),
(59,-79,cs),
(37,-96,o),
(25,-120,o),
(25,-153,cs),
(25,-282,o),
(164,-321,o),
(425,-321,cs),
(768,-321,ls),
(1144,-321,o),
(1433,-299,o),
(1669,-144,c),
(1683,-92,l),
(1757,-12,o),
(1805,93,o),
(1805,234,cs),
(1805,432,o),
(1700,581,o),
(1456,581,cs),
(1345,581,o),
(1271,552,o),
(1197,497,c),
(1166,466,ls),
(1096,397,o),
(1048,312,o),
(1048,202,cs),
(1048,66,o),
(1126,-12,o),
(1275,-12,cs),
(1415,-12,o),
(1492,52,o),
(1492,196,cs),
(1492,300,o),
(1441,392,o),
(1353,460,c),
(1326,489,l),
(1229,555,o),
(1153,581,o),
(1024,581,cs),
(904,581,o),
(801,553,o),
(713,486,c),
(685,458,l),
(611,395,o),
(559,311,o),
(559,202,cs),
(559,66,o),
(637,-12,o),
(786,-12,cs),
(926,-12,o),
(1003,52,o),
(1003,196,cs),
(1003,317,o),
(934,402,o),
(829,478,cs),
(805,496,l),
(711,556,o),
(616,581,o),
(484,581,cs),
(212,581,o),
(37,451,o),
(37,244,cs),
(37,79,o),
(127,-12,o),
(285,-12,cs)
);
},
{
closed = 1;
nodes = (
(2099,-180,l),
(2099,439,l),
(2225,439,l),
(2225,-180,l),
(2415,-180,l),
(2415,439,l),
(2547,439,l),
(2547,569,l),
(1909,569,l),
(1909,-180,l)
);
}
);
width = 2564;
}
);
},
{
glyphname = tauvowelsigntamil;
lastChange = "2025-02-12 16:19:03 +0000";
layers = (
{
anchors = (
{
name = Anchor10;
pos = (274,-29);
},
{
name = Anchor12;
pos = (549,-234);
},
{
name = Anchor8;
pos = (274,-29);
}
);
background = {
shapes = (
{
closed = 1;
nodes = (
(53,-12,o),
(127,8,o),
(178,55,cs),
(224,98,o),
(248,162,o),
(248,252,cs),
(248,439,l),
(438,439,l),
(438,569,l),
(-242,569,l),
(-242,286,l),
(-71,302,l),
(-71,439,l),
(63,439,l),
(63,240,ls),
(63,144,o),
(18,118,o),
(-56,118,cs),
(-118,118,o),
(-154,133,o),
(-154,176,cs),
(-154,196,o),
(-144,211,o),
(-124,221,cs),
(-102,231,o),
(-75,234,o),
(-18,234,cs),
(173,234,ls),
(291,234,o),
(383,193,o),
(383,65,cs),
(383,-22,o),
(365,-56,o),
(327,-100,c),
(320,-131,l),
(259,-185,o),
(152,-205,o),
(19,-205,cs),
(-28,-205,ls),
(-136,-205,o),
(-180,-192,o),
(-180,-173,cs),
(-180,-164,o),
(-173,-161,o),
(-163,-161,cs),
(334,-161,l),
(390,-180,l),
(814,-180,l),
(721,-50,l),
(-190,-50,ls),
(-243,-50,o),
(-285,-59,o),
(-312,-79,cs),
(-334,-96,o),
(-346,-120,o),
(-346,-153,cs),
(-346,-267,o),
(-227,-321,o),
(-17,-321,cs),
(8,-321,ls),
(247,-321,o),
(426,-263,o),
(513,-142,c),
(510,-121,l),
(543,-69,o),
(569,-12,o),
(569,64,cs),
(569,291,o),
(377,355,o),
(207,355,cs),
(8,355,ls),
(-245,355,o),
(-338,280,o),
(-338,168,cs),
(-338,50,o),
(-239,-12,o),
(-58,-12,cs)
);
},
{
closed = 1;
nodes = (
(852,-180,l),
(852,569,l),
(662,569,l),
(662,-180,l)
);
}
);
};
layerId = "B104C26B-E498-4044-8731-03CD50407EE8";
shapes = (
{
closed = 1;
nodes = (
(167,464,l),
(535,464,l),
(535,469,ls),
(535,540,o),
(496,579,o),
(425,579,cs),
(277,579,ls),
(206,579,o),
(167,540,o),
(167,469,cs)
);
},
{
closed = 1;
nodes = (
(167,315,l),
(187,315,l),
(187,464,l),
(167,464,l)
);
},
{
closed = 1;
nodes = (
(395,-10,l),
(415,-10,l),
(415,464,l),
(395,464,l)
);
},
{
closed = 1;
nodes = (
(571,159,ls),
(571,230,o),
(532,269,o),
(461,269,cs),
(140,269,ls),
(69,269,o),
(30,230,o),
(30,159,cs),
(30,154,l),
(571,154,l)
);
},
{
closed = 1;
nodes = (
(409,105,l),
(30,105,l),
(30,-10,l),
(409,-10,l)
);
},
{
closed = 1;
nodes = (
(50,157,l),
(30,157,l),
(30,105,l),
(50,105,l)
);
},
{
closed = 1;
nodes = (
(557,-213,l),
(577,-213,l),
(577,269,l),
(557,269,l)
);
},
{
closed = 1;
nodes = (
(686,-59,l),
(706,-59,l),
(706,103,l),
(686,103,l)
);
},
{
closed = 1;
nodes = (
(706,-169,ls),
(706,-98,o),
(667,-59,o),
(596,-59,cs),
(259,-59,ls),
(188,-59,o),
(149,-98,o),
(149,-169,cs),
(149,-174,l),
(706,-174,l)
);
},
{
closed = 1;
nodes = (
(577,-213,l),
(149,-213,l),
(149,-218,ls),
(149,-289,o),
(189,-328,o),
(261,-328,cs),
(465,-328,ls),
(537,-328,o),
(577,-289,o),
(577,-218,cs)
);
},
{
closed = 1;
nodes = (
(149,-292,l),
(169,-292,l),
(169,-174,l),
(149,-174,l)
);
},
{
closed = 1;
nodes = (
(424,464,l),
(535,464,l),
(535,579,l),
(424,579,l)
);
},
{
closed = 1;
nodes = (
(466,154,l),
(577,154,l),
(577,269,l),
(466,269,l)
);
},
{
closed = 1;
nodes = (
(595,-174,l),
(706,-174,l),
(706,-59,l),
(595,-59,l)
);
},
{
closed = 1;
nodes = (
(149,-328,l),
(260,-328,l),
(260,-213,l),
(149,-213,l)
);
}
);
width = 736;
}
);
},
